SplineFontDB: 3.0
FontName: EGYSlabThin-Regular
FullName: EGY Slab Thin Regular
FamilyName: EGY Slab Thin
Weight: Regular
Copyright: Copyright (c) 2010 by Oriol Esparraguera Font. All rights reserved.
Version: 1.000
ItalicAngle: 0
UnderlinePosition: -75
UnderlineWidth: 50
Ascent: 800
Descent: 200
sfntRevision: 0x00010000
LayerCount: 2
Layer: 0 1 "Back"  1
Layer: 1 1 "Fore"  0
XUID: [1021 288 713564382 5922787]
FSType: 0
OS2Version: 3
OS2_WeightWidthSlopeOnly: 0
OS2_UseTypoMetrics: 1
CreationTime: 1287078300
ModificationTime: 1304090106
PfmFamily: 17
TTFWeight: 400
TTFWidth: 5
LineGap: 0
VLineGap: 0
Panose: 2 0 5 3 0 0 0 2 0 4
OS2TypoAscent: 953
OS2TypoAOffset: 0
OS2TypoDescent: -234
OS2TypoDOffset: 0
OS2TypoLinegap: 0
OS2WinAscent: 953
OS2WinAOffset: 0
OS2WinDescent: 234
OS2WinDOffset: 0
HheadAscent: 953
HheadAOffset: 0
HheadDescent: -234
HheadDOffset: 0
OS2SubXSize: 204
OS2SubYSize: 204
OS2SubXOff: 0
OS2SubYOff: 286
OS2SupXSize: 204
OS2SupYSize: 204
OS2SupXOff: 0
OS2SupYOff: 286
OS2StrikeYSize: 50
OS2StrikeYPos: 250
OS2Vendor: 'LINO'
OS2CodePages: 00000011.00000000
OS2UnicodeRanges: 8000002f.40000042.00000000.00000000
Lookup: 4 0 1 "'liga' Standard Ligatures in Latin lookup 0"  {"'liga' Standard Ligatures in Latin lookup 0 subtable"  } ['liga' ('latn' <'dflt' > ) ]
Lookup: 4 0 0 "'ccmp' Glyph Composition/Decomposition in Latin lookup 1"  {"'ccmp' Glyph Composition/Decomposition in Latin lookup 1 subtable"  } ['ccmp' ('latn' <'dflt' > ) ]
Lookup: 258 0 0 "'kern' Horizontal Kerning in Latin lookup 0"  {"'kern' Horizontal Kerning in Latin lookup 0 subtable"  } ['kern' ('latn' <'dflt' > ) ]
MarkAttachClasses: 1
DEI: 91125
TtTable: prep
PUSHW_1
 511
SCANCTRL
PUSHB_1
 4
SCANTYPE
EndTTInstrs
TtTable: fpgm
PUSHW_1
 0
FDEF
MPPEM
PUSHW_1
 9
LT
IF
PUSHB_2
 1
 1
INSTCTRL
EIF
PUSHW_1
 511
SCANCTRL
PUSHW_1
 68
SCVTCI
PUSHW_2
 9
 3
SDS
SDB
ENDF
PUSHW_1
 1
FDEF
DUP
DUP
RCVT
ROUND[Black]
WCVTP
PUSHB_1
 1
ADD
ENDF
PUSHW_1
 2
FDEF
PUSHW_1
 1
LOOPCALL
POP
ENDF
PUSHW_1
 3
FDEF
DUP

StartChar: exclam
Encoding: 33 33 1
Width: 284
Flags: W
LayerCount: 2
Fore
SplineSet
154 223 m 1,0,-1
 133 223 l 1,1,-1
 108 517 l 1,2,-1
 108 730 l 1,3,-1
 179 730 l 1,4,-1
 179 517 l 1,5,-1
 154 223 l 1,0,-1
104 83 m 1,6,-1
 189 83 l 1,7,-1
 189 -1 l 1,8,-1
 104 -1 l 1,9,-1
 104 83 l 1,6,-1
EndSplineSet
EndChar

StartChar: quotedbl
Encoding: 34 34 2
Width: 455
Flags: W
LayerCount: 2
Fore
SplineSet
293 493 m 1,0,-1
 293 730 l 1,1,-1
 339 730 l 1,2,-1
 339 493 l 1,3,-1
 293 493 l 1,0,-1
187 730 m 1,4,-1
 187 493 l 1,5,-1
 141 493 l 1,6,-1
 141 730 l 1,7,-1
 187 730 l 1,4,-1
EndSplineSet
EndChar

StartChar: numbersign
Encoding: 35 35 3
Width: 594
Flags: W
LayerCount: 2
Fore
SplineSet
257 459 m 1,0,1
 253 431 253 431 248.5 406 c 128,-1,2
 244 381 244 381 239.5 357 c 128,-1,3
 235 333 235 333 231 308 c 128,-1,4
 227 283 227 283 223 255 c 1,5,-1
 390 255 l 1,6,7
 398 309 398 309 407 357 c 128,-1,8
 416 405 416 405 424 459 c 1,9,-1
 257 459 l 1,0,1
82 459 m 1,10,-1
 82 490 l 1,11,-1
 217 490 l 1,12,-1
 253 710 l 1,13,-1
 300 710 l 1,14,-1
 262 490 l 1,15,-1
 430 490 l 1,16,-1
 466 710 l 1,17,-1
 513 710 l 1,18,-1
 475 490 l 1,19,-1
 570 490 l 1,20,-1
 570 459 l 1,21,-1
 469 459 l 1,22,-1
 435 255 l 1,23,-1
 538 255 l 1,24,-1
 538 224 l 1,25,-1
 432 224 l 1,26,27
 419 167 419 167 412.5 112.5 c 128,-1,28
 406 58 406 58 394 1 c 1,29,-1
 349 1 l 1,30,-1
 385 224 l 1,31,-1
 217 224 l 1,32,33
 209 170 209 170 203.5 134.5 c 128,-1,34
 198 99 198 99 194 75 c 128,-1,35
 190 51 190 51 187 34 c 128,-1,36
 184 17 184 17 181 1 c 1,37,-1
 135 1 l 1,38,-1
 172 224 l 1,39,-1
 56 224 l 1,40,-1
 56 255 l 1,41,-1
 178 255 l 1,42,-1
 212 459 l 1,43,-1
 82 459 l 1,10,-1
EndSplineSet
EndChar

StartChar: dollar
Encoding: 36 36 4
Width: 605
Flags: W
LayerCount: 2
Fore
SplineSet
339 27 m 1,0,1
 371 35 371 35 400 50 c 128,-1,2
 429 65 429 65 450.5 84.5 c 128,-1,3
 472 104 472 104 485 127 c 128,-1,4
 498 150 498 150 498 174 c 0,5,6
 498 188 498 188 494.5 208 c 128,-1,7
 491 228 491 228 475.5 250.5 c 128,-1,8
 460 273 460 273 428 297 c 128,-1,9
 396 321 396 321 339 344 c 1,10,-1
 339 27 l 1,0,1
308 709 m 1,11,12
 277 703 277 703 248.5 690.5 c 128,-1,13
 220 678 220 678 198 659 c 128,-1,14
 176 640 176 640 162.5 616 c 128,-1,15
 149 592 149 592 149 563 c 0,16,17
 149 510 149 510 194 472.5 c 128,-1,18
 239 435 239 435 308 409 c 1,19,-1
 308 709 l 1,11,12
339 751 m 1,20,21
 425 746 425 746 476 732 c 128,-1,22
 527 718 527 718 553 704 c 1,23,-1
 553 654 l 1,24,25
 496 681 496 681 445 693 c 128,-1,26
 394 705 394 705 339 709 c 1,27,-1
 339 402 l 1,28,29
 381 387 381 387 423.5 369 c 128,-1,30
 466 351 466 351 500 325 c 128,-1,31
 534 299 534 299 555.5 262.5 c 128,-1,32
 577 226 577 226 577 174 c 0,33,34
 577 127 577 127 555 93 c 128,-1,35
 533 59 533 59 498.5 36 c 128,-1,36
 464 13 464 13 421.5 0 c 128,-1,37
 379 -13 379 -13 339 -19 c 1,38,-1
 339 -119 l 1,39,-1
 308 -119 l 1,40,-1
 308 -20 l 1,41,42
 215 -16 215 -16 155 3 c 128,-1,43
 95 22 95 22 69 40 c 1,44,-1
 69 105 l 1,45,46
 87 93 87 93 110.5 80 c 128,-1,47
 134 67 134 67 164 56 c 128,-1,48
 194 45 194 45 230 37 c 128,-1,49
 266 29 266 29 308 28 c 1,50,-1
 308 350 l 1,51,52
 191 384 191 384 130 433.5 c 128,-1,53
 69 483 69 483 69 564 c 0,54,55
 69 596 69 596 84 627 c 128,-1,56
 99 658 99 658 129 683.5 c 128,-1,57
 159 709 159 709 204 727 c 128,-1,58
 249 745 249 745 308 751 c 1,59,-1
 308 820 l 1,60,-1
 339 820 l 1,61,-1
 339 751 l 1,20,21
EndSplineSet
EndChar

StartChar: percent
Encoding: 37 37 5
Width: 1020
Flags: W
LayerCount: 2
Fore
SplineSet
805 383 m 0,0,1
 853 383 853 383 883 366 c 128,-1,2
 913 349 913 349 930.5 321.5 c 128,-1,3
 948 294 948 294 955 258 c 128,-1,4
 962 222 962 222 963 183 c 1,5,6
 962 117 962 117 947 78.5 c 128,-1,7
 932 40 932 40 909.5 20.5 c 128,-1,8
 887 1 887 1 859.5 -4 c 128,-1,9
 832 -9 832 -9 806 -9 c 0,10,11
 779 -9 779 -9 750.5 -4 c 128,-1,12
 722 1 722 1 699 20.5 c 128,-1,13
 676 40 676 40 660.5 78.5 c 128,-1,14
 645 117 645 117 644 183 c 1,15,16
 646 278 646 278 682 330.5 c 128,-1,17
 718 383 718 383 805 383 c 0,0,1
805 6 m 0,18,19
 833 6 833 6 855.5 15 c 128,-1,20
 878 24 878 24 893 44.5 c 128,-1,21
 908 65 908 65 916 99 c 128,-1,22
 924 133 924 133 924 183 c 0,23,24
 924 235 924 235 917 270 c 128,-1,25
 910 305 910 305 895.5 326 c 128,-1,26
 881 347 881 347 858.5 356 c 128,-1,27
 836 365 836 365 805 365 c 0,28,29
 777 365 777 365 754.5 356.5 c 128,-1,30
 732 348 732 348 716.5 326.5 c 128,-1,31
 701 305 701 305 692.5 269 c 128,-1,32
 684 233 684 233 684 179 c 0,33,34
 684 128 684 128 692.5 94.5 c 128,-1,35
 701 61 701 61 717 41.5 c 128,-1,36
 733 22 733 22 755.5 14 c 128,-1,37
 778 6 778 6 805 6 c 0,18,19
858 740 m 1,38,-1
 296 -19 l 1,39,-1
 245 -19 l 1,40,-1
 807 740 l 1,41,-1
 858 740 l 1,38,-1
274 353 m 0,42,43
 301 353 301 353 323 361 c 128,-1,44
 345 369 345 369 360.5 389 c 128,-1,45
 376 409 376 409 384.5 442 c 128,-1,46
 393 475 393 475 393 525 c 0,47,48
 393 578 393 578 384 612.5 c 128,-1,49
 375 647 375 647 359.5 667 c 128,-1,50
 344 687 344 687 322 695 c 128,-1,51
 300 703 300 703 274 703 c 0,52,53
 247 703 247 703 224.5 695 c 128,-1,54
 202 687 202 687 186.5 666.5 c 128,-1,55
 171 646 171 646 162 611 c 128,-1,56
 153 576 153 576 153 522 c 0,57,58
 153 471 153 471 163 438 c 128,-1,59
 173 405 173 405 189.5 386 c 128,-1,60
 206 367 206 367 228 360 c 128,-1,61
 250 353 250 353 274 353 c 0,42,43
274 726 m 0,62,63
 322 726 322 726 352 709 c 128,-1,64
 382 692 382 692 399.5 664.5 c 128,-1,65
 417 637 417 637 424 600.5 c 128,-1,66
 431 564 431 564 433 525 c 1,67,68
 431 459 431 459 415 420.5 c 128,-1,69
 399 382 399 382 375 362.5 c 128,-1,70
 351 343 351 343 324 337.5 c 128,-1,71
 297 332 297 332 275 332 c 256,72,73
 253 332 253 332 225 337.5 c 128,-1,74
 197 343 197 343 172.5 362.5 c 128,-1,75
 148 382 148 382 130.5 420.5 c 128,-1,76
 113 459 113 459 112 525 c 1,77,78
 115 620 115 620 151 673 c 128,-1,79
 187 726 187 726 274 726 c 0,62,63
EndSplineSet
EndChar

StartChar: zero
Encoding: 48 48 6
Width: 670
Flags: W
LayerCount: 2
Fore
SplineSet
353 678 m 0,0,1
 304 678 304 678 264 661.5 c 128,-1,2
 224 645 224 645 195.5 605.5 c 128,-1,3
 167 566 167 566 151 501.5 c 128,-1,4
 135 437 135 437 135 341 c 0,5,6
 135 248 135 248 152.5 187 c 128,-1,7
 170 126 170 126 199.5 90 c 128,-1,8
 229 54 229 54 268.5 39.5 c 128,-1,9
 308 25 308 25 353 25 c 256,10,11
 398 25 398 25 436.5 42 c 128,-1,12
 475 59 475 59 503.5 97.5 c 128,-1,13
 532 136 532 136 548.5 197.5 c 128,-1,14
 565 259 565 259 565 348 c 0,15,16
 565 441 565 441 548.5 504.5 c 128,-1,17
 532 568 532 568 503.5 606.5 c 128,-1,18
 475 645 475 645 436.5 661.5 c 128,-1,19
 398 678 398 678 353 678 c 0,0,1
353 723 m 0,20,21
 381 723 381 723 413 718 c 128,-1,22
 445 713 445 713 476 699 c 128,-1,23
 507 685 507 685 535 659 c 128,-1,24
 563 633 563 633 584.5 591.5 c 128,-1,25
 606 550 606 550 619 490 c 128,-1,26
 632 430 632 430 632 348 c 0,27,28
 632 268 632 268 618 210 c 128,-1,29
 604 152 604 152 581.5 111.5 c 128,-1,30
 559 71 559 71 529.5 46 c 128,-1,31
 500 21 500 21 469 7.5 c 128,-1,32
 438 -6 438 -6 408 -11 c 128,-1,33
 378 -16 378 -16 353 -16 c 256,34,35
 328 -16 328 -16 297 -11 c 128,-1,36
 266 -6 266 -6 234 7.5 c 128,-1,37
 202 21 202 21 171.5 46 c 128,-1,38
 141 71 141 71 117.5 111.5 c 128,-1,39
 94 152 94 152 80 210 c 128,-1,40
 66 268 66 268 66 348 c 0,41,42
 66 466 66 466 91.5 539.5 c 128,-1,43
 117 613 117 613 158.5 654 c 128,-1,44
 200 695 200 695 251 709 c 128,-1,45
 302 723 302 723 353 723 c 0,20,21
EndSplineSet
EndChar

StartChar: one
Encoding: 49 49 7
Width: 433
Flags: W
LayerCount: 2
Fore
SplineSet
198 40 m 1,0,-1
 198 673 l 1,1,2
 177 671 177 671 154.5 665 c 128,-1,3
 132 659 132 659 113 651 c 1,4,-1
 113 682 l 1,5,6
 130 695 130 695 148.5 704.5 c 128,-1,7
 167 714 167 714 184 727 c 1,8,-1
 264 727 l 1,9,-1
 264 40 l 1,10,11
 281 35 281 35 303 30.5 c 128,-1,12
 325 26 325 26 343 21 c 1,13,-1
 343 0 l 1,14,-1
 119 0 l 1,15,-1
 119 21 l 1,16,-1
 198 40 l 1,0,-1
EndSplineSet
EndChar

StartChar: two
Encoding: 50 50 8
Width: 601
Flags: W
LayerCount: 2
Fore
SplineSet
501 128 m 1,0,-1
 523 128 l 1,1,-1
 533 0 l 1,2,-1
 43 0 l 1,3,4
 45 75 45 75 66.5 129.5 c 128,-1,5
 88 184 88 184 124 225.5 c 128,-1,6
 160 267 160 267 208.5 299 c 128,-1,7
 257 331 257 331 313 360 c 0,8,9
 382 395 382 395 414 441 c 128,-1,10
 446 487 446 487 446 537 c 0,11,12
 446 564 446 564 436.5 589 c 128,-1,13
 427 614 427 614 407.5 633 c 128,-1,14
 388 652 388 652 357.5 664.5 c 128,-1,15
 327 677 327 677 284 679 c 1,16,17
 246 679 246 679 217 669 c 128,-1,18
 188 659 188 659 167 644.5 c 128,-1,19
 146 630 146 630 132.5 615.5 c 128,-1,20
 119 601 119 601 112 592 c 1,21,22
 108 575 108 575 105.5 558.5 c 128,-1,23
 103 542 103 542 98 525 c 1,24,-1
 77 525 l 1,25,26
 75 554 75 554 72.5 579 c 128,-1,27
 70 604 70 604 68 631 c 1,28,29
 72 635 72 635 89.5 650.5 c 128,-1,30
 107 666 107 666 135.5 683 c 128,-1,31
 164 700 164 700 201 713 c 128,-1,32
 238 726 238 726 282 726 c 0,33,34
 341 726 341 726 384 711 c 128,-1,35
 427 696 427 696 455 670 c 128,-1,36
 483 644 483 644 496.5 609.5 c 128,-1,37
 510 575 510 575 510 537 c 0,38,39
 510 465 510 465 467 405.5 c 128,-1,40
 424 346 424 346 331 301 c 0,41,42
 291 281 291 281 255 256.5 c 128,-1,43
 219 232 219 232 191 201 c 128,-1,44
 163 170 163 170 146 132.5 c 128,-1,45
 129 95 129 95 126 48 c 1,46,-1
 482 48 l 1,47,-1
 501 128 l 1,0,-1
EndSplineSet
EndChar

StartChar: three
Encoding: 51 51 9
Width: 640
Flags: W
LayerCount: 2
Fore
SplineSet
73 661 m 1,0,1
 122 685 122 685 182 706 c 128,-1,2
 242 727 242 727 320 727 c 0,3,4
 365 727 365 727 407 717.5 c 128,-1,5
 449 708 449 708 481 688 c 128,-1,6
 513 668 513 668 532.5 636.5 c 128,-1,7
 552 605 552 605 552 561 c 0,8,9
 552 526 552 526 540.5 496.5 c 128,-1,10
 529 467 529 467 509 445 c 128,-1,11
 489 423 489 423 462 409.5 c 128,-1,12
 435 396 435 396 404 393 c 1,13,14
 446 387 446 387 482 371 c 128,-1,15
 518 355 518 355 544 330.5 c 128,-1,16
 570 306 570 306 584.5 273.5 c 128,-1,17
 599 241 599 241 599 202 c 0,18,19
 599 158 599 158 578.5 118.5 c 128,-1,20
 558 79 558 79 519 49 c 128,-1,21
 480 19 480 19 424 1 c 128,-1,22
 368 -17 368 -17 297 -17 c 0,23,24
 241 -17 241 -17 200 -13 c 128,-1,25
 159 -9 159 -9 129.5 -3.5 c 128,-1,26
 100 2 100 2 81 8.5 c 128,-1,27
 62 15 62 15 52 20 c 1,28,29
 54 47 54 47 56 77 c 128,-1,30
 58 107 58 107 60 134 c 1,31,-1
 81 134 l 1,32,-1
 98 58 l 1,33,34
 138 46 138 46 188.5 35 c 128,-1,35
 239 24 239 24 291 24 c 0,36,37
 357 24 357 24 400 43.5 c 128,-1,38
 443 63 443 63 468.5 91 c 128,-1,39
 494 119 494 119 504.5 149.5 c 128,-1,40
 515 180 515 180 515 202 c 0,41,42
 515 227 515 227 502.5 254.5 c 128,-1,43
 490 282 490 282 465 304.5 c 128,-1,44
 440 327 440 327 402 342 c 128,-1,45
 364 357 364 357 314 357 c 2,46,-1
 229 357 l 1,47,-1
 229 405 l 1,48,-1
 314 405 l 2,49,50
 362 405 362 405 393.5 417 c 128,-1,51
 425 429 425 429 443.5 448.5 c 128,-1,52
 462 468 462 468 469.5 493.5 c 128,-1,53
 477 519 477 519 477 546 c 0,54,55
 477 570 477 570 468 594 c 128,-1,56
 459 618 459 618 440.5 636.5 c 128,-1,57
 422 655 422 655 392 667 c 128,-1,58
 362 679 362 679 320 679 c 0,59,60
 272 679 272 679 218.5 663 c 128,-1,61
 165 647 165 647 118 627 c 1,62,63
 115 610 115 610 110 592 c 128,-1,64
 105 574 105 574 101 557 c 1,65,66
 93 557 93 557 89 556 c 128,-1,67
 85 555 85 555 80 555 c 1,68,-1
 73 661 l 1,0,1
EndSplineSet
EndChar

StartChar: four
Encoding: 52 52 10
Width: 696
Flags: W
LayerCount: 2
Fore
SplineSet
435 244 m 1,0,-1
 435 674 l 1,1,2
 308 522 308 522 221.5 417 c 128,-1,3
 135 312 135 312 80 244 c 1,4,-1
 435 244 l 1,0,-1
584 21 m 1,5,-1
 584 0 l 1,6,-1
 354 0 l 1,7,8
 354 6 354 6 353.5 11.5 c 128,-1,9
 353 17 353 17 353 21 c 1,10,-1
 434 40 l 1,11,-1
 435 201 l 1,12,-1
 47 201 l 1,13,-1
 47 263 l 1,14,15
 147 380 147 380 243.5 495 c 128,-1,16
 340 610 340 610 440 727 c 1,17,-1
 502 727 l 1,18,-1
 502 244 l 1,19,-1
 665 244 l 1,20,-1
 665 201 l 1,21,-1
 502 201 l 1,22,-1
 502 41 l 1,23,-1
 584 21 l 1,5,-1
EndSplineSet
EndChar

StartChar: five
Encoding: 53 53 11
Width: 640
Flags: W
LayerCount: 2
Fore
SplineSet
561 597 m 1,0,-1
 542 676 l 1,1,-1
 177 676 l 1,2,3
 170 617 170 617 162 562 c 128,-1,4
 154 507 154 507 148 447 c 1,5,6
 173 458 173 458 216 470.5 c 128,-1,7
 259 483 259 483 307 483 c 0,8,9
 369 483 369 483 422 467.5 c 128,-1,10
 475 452 475 452 514 422 c 128,-1,11
 553 392 553 392 575 348.5 c 128,-1,12
 597 305 597 305 597 250 c 0,13,14
 597 189 597 189 575.5 142.5 c 128,-1,15
 554 96 554 96 515.5 64.5 c 128,-1,16
 477 33 477 33 424.5 16.5 c 128,-1,17
 372 0 372 0 311 0 c 0,18,19
 254 0 254 0 210 6.5 c 128,-1,20
 166 13 166 13 134 22 c 128,-1,21
 102 31 102 31 82 40 c 128,-1,22
 62 49 62 49 54 54 c 1,23,24
 56 80 56 80 58 109.5 c 128,-1,25
 60 139 60 139 62 165 c 1,26,-1
 83 165 l 1,27,-1
 100 93 l 1,28,29
 122 83 122 83 148 73 c 128,-1,30
 174 63 174 63 202 55.5 c 128,-1,31
 230 48 230 48 258 43 c 128,-1,32
 286 38 286 38 311 38 c 0,33,34
 369 38 369 38 410 58.5 c 128,-1,35
 451 79 451 79 476.5 110.5 c 128,-1,36
 502 142 502 142 513.5 179.5 c 128,-1,37
 525 217 525 217 525 250 c 0,38,39
 525 286 525 286 513.5 320.5 c 128,-1,40
 502 355 502 355 476.5 382 c 128,-1,41
 451 409 451 409 410 425.5 c 128,-1,42
 369 442 369 442 311 442 c 0,43,44
 284 442 284 442 256 437 c 128,-1,45
 228 432 228 432 202.5 425.5 c 128,-1,46
 177 419 177 419 156.5 411.5 c 128,-1,47
 136 404 136 404 125 400 c 1,48,49
 112 408 112 408 97.5 416 c 128,-1,50
 83 424 83 424 71 432 c 1,51,52
 84 517 84 517 92.5 568 c 128,-1,53
 101 619 101 619 106 648.5 c 128,-1,54
 111 678 111 678 113 691.5 c 128,-1,55
 115 705 115 705 117 715 c 1,56,-1
 593 715 l 1,57,58
 591 683 591 683 587 656 c 128,-1,59
 583 629 583 629 581 597 c 1,60,-1
 561 597 l 1,0,-1
EndSplineSet
EndChar

StartChar: six
Encoding: 54 54 12
Width: 622
Flags: W
LayerCount: 2
Fore
SplineSet
143 219 m 0,0,1
 143 187 143 187 155 154 c 128,-1,2
 167 121 167 121 190 93 c 128,-1,3
 213 65 213 65 246.5 47.5 c 128,-1,4
 280 30 280 30 323 30 c 0,5,6
 386 30 386 30 428.5 57 c 128,-1,7
 471 84 471 84 492.5 125 c 128,-1,8
 514 166 514 166 515.5 213.5 c 128,-1,9
 517 261 517 261 499 302 c 128,-1,10
 481 343 481 343 444 370 c 128,-1,11
 407 397 407 397 351 397 c 0,12,13
 296 397 296 397 257 370 c 128,-1,14
 218 343 218 343 192.5 310 c 128,-1,15
 167 277 167 277 155 249 c 128,-1,16
 143 221 143 221 143 219 c 0,0,1
532 626 m 1,17,18
 493 646 493 646 445.5 661.5 c 128,-1,19
 398 677 398 677 346 677 c 0,20,21
 290 677 290 677 249 651 c 128,-1,22
 208 625 208 625 181 584.5 c 128,-1,23
 154 544 154 544 141 494 c 128,-1,24
 128 444 128 444 128 395 c 0,25,26
 128 384 128 384 128 373 c 128,-1,27
 128 362 128 362 128.5 348.5 c 128,-1,28
 129 335 129 335 129.5 318 c 128,-1,29
 130 301 130 301 131 277 c 1,30,31
 139 313 139 313 161.5 343.5 c 128,-1,32
 184 374 184 374 215 396.5 c 128,-1,33
 246 419 246 419 281.5 432 c 128,-1,34
 317 445 317 445 351 445 c 0,35,36
 432 445 432 445 485.5 411.5 c 128,-1,37
 539 378 539 378 565.5 327 c 128,-1,38
 592 276 592 276 590.5 217.5 c 128,-1,39
 589 159 589 159 559 108 c 128,-1,40
 529 57 529 57 470.5 23.5 c 128,-1,41
 412 -10 412 -10 324 -10 c 0,42,43
 264 -10 264 -10 215.5 7.5 c 128,-1,44
 167 25 167 25 133 67 c 128,-1,45
 99 109 99 109 80.5 179.5 c 128,-1,46
 62 250 62 250 62 356 c 0,47,48
 62 459 62 459 84.5 530 c 128,-1,49
 107 601 107 601 145.5 645 c 128,-1,50
 184 689 184 689 235.5 708 c 128,-1,51
 287 727 287 727 346 727 c 0,52,53
 382 727 382 727 412.5 721 c 128,-1,54
 443 715 443 715 470.5 705.5 c 128,-1,55
 498 696 498 696 524 684 c 128,-1,56
 550 672 550 672 577 660 c 1,57,-1
 570 554 l 1,58,-1
 549 554 l 1,59,-1
 532 626 l 1,17,18
EndSplineSet
EndChar

StartChar: seven
Encoding: 55 55 13
Width: 633
Flags: W
LayerCount: 2
Fore
SplineSet
94 710 m 1,0,-1
 585 710 l 1,1,2
 585 666 585 666 574 638 c 128,-1,3
 563 610 563 610 539 584 c 1,4,-1
 375 389 l 1,5,6
 347 349 347 349 332.5 304.5 c 128,-1,7
 318 260 318 260 318 210 c 2,8,-1
 318 1 l 1,9,-1
 250 1 l 1,10,-1
 250 210 l 2,11,12
 250 247 250 247 256 276 c 128,-1,13
 262 305 262 305 271.5 329 c 128,-1,14
 281 353 281 353 293.5 372.5 c 128,-1,15
 306 392 306 392 319 410 c 0,16,17
 347 447 347 447 369.5 475.5 c 128,-1,18
 392 504 392 504 415 533 c 128,-1,19
 438 562 438 562 464.5 595 c 128,-1,20
 491 628 491 628 527 673 c 1,21,-1
 167 673 l 1,22,23
 165 647 165 647 161 616.5 c 128,-1,24
 157 586 157 586 155 559 c 1,25,-1
 134 559 l 1,26,-1
 94 710 l 1,0,-1
EndSplineSet
EndChar

StartChar: colon
Encoding: 58 58 14
Width: 301
Flags: W
LayerCount: 2
Fore
SplineSet
117 83 m 1,0,-1
 201 83 l 1,1,-1
 201 -1 l 1,2,-1
 117 -1 l 1,3,-1
 117 83 l 1,0,-1
117 433 m 1,4,-1
 117 517 l 1,5,-1
 201 517 l 1,6,-1
 201 433 l 1,7,-1
 117 433 l 1,4,-1
EndSplineSet
EndChar

StartChar: semicolon
Encoding: 59 59 15
Width: 307
Flags: W
LayerCount: 2
Fore
SplineSet
117 0 m 1,0,-1
 117 84 l 1,1,-1
 203 84 l 1,2,3
 207 55 207 55 209 30 c 128,-1,4
 211 5 211 5 211 -15 c 0,5,6
 211 -60 211 -60 201.5 -91 c 128,-1,7
 192 -122 192 -122 177 -142 c 128,-1,8
 162 -162 162 -162 142.5 -172.5 c 128,-1,9
 123 -183 123 -183 103 -186 c 1,10,-1
 103 -152 l 1,11,12
 130 -149 130 -149 145 -135 c 128,-1,13
 160 -121 160 -121 167 -100 c 128,-1,14
 174 -79 174 -79 175 -53 c 128,-1,15
 176 -27 176 -27 176 0 c 1,16,-1
 117 0 l 1,0,-1
117 433 m 1,17,-1
 117 517 l 1,18,-1
 201 517 l 1,19,-1
 201 433 l 1,20,-1
 117 433 l 1,17,-1
EndSplineSet
EndChar

StartChar: question
Encoding: 63 63 16
Width: 601
Flags: W
LayerCount: 2
Fore
SplineSet
229 84 m 1,0,-1
 314 84 l 1,1,-1
 314 0 l 1,2,-1
 229 0 l 1,3,-1
 229 84 l 1,0,-1
86 717 m 1,4,5
 133 734 133 734 180 741.5 c 128,-1,6
 227 749 227 749 278 749 c 0,7,8
 330 749 330 749 375 739 c 128,-1,9
 420 729 420 729 453.5 708 c 128,-1,10
 487 687 487 687 506 653.5 c 128,-1,11
 525 620 525 620 525 573 c 0,12,13
 525 541 525 541 515 515.5 c 128,-1,14
 505 490 505 490 488.5 469 c 128,-1,15
 472 448 472 448 452 430.5 c 128,-1,16
 432 413 432 413 411 397 c 1,17,18
 390 379 390 379 369.5 361 c 128,-1,19
 349 343 349 343 331.5 322 c 128,-1,20
 314 301 314 301 301.5 276.5 c 128,-1,21
 289 252 289 252 286 221 c 1,22,-1
 246 221 l 1,23,24
 249 261 249 261 260.5 292.5 c 128,-1,25
 272 324 272 324 288.5 348 c 128,-1,26
 305 372 305 372 324 389.5 c 128,-1,27
 343 407 343 407 361 421 c 0,28,29
 378 435 378 435 395 450 c 128,-1,30
 412 465 412 465 425 482.5 c 128,-1,31
 438 500 438 500 446 522 c 128,-1,32
 454 544 454 544 454 573 c 0,33,34
 454 628 454 628 412.5 663 c 128,-1,35
 371 698 371 698 278 698 c 0,36,37
 264 698 264 698 245.5 696 c 128,-1,38
 227 694 227 694 207.5 690.5 c 128,-1,39
 188 687 188 687 169 682 c 128,-1,40
 150 677 150 677 135 672 c 1,41,42
 138 639 138 639 141.5 602.5 c 128,-1,43
 145 566 145 566 147 533 c 1,44,-1
 126 533 l 1,45,-1
 86 717 l 1,4,5
EndSplineSet
EndChar

StartChar: A
Encoding: 65 65 17
Width: 657
Flags: W
LayerCount: 2
Fore
SplineSet
203 314 m 1,0,-1
 474 314 l 1,1,-1
 345 677 l 1,2,-1
 203 314 l 1,0,-1
-39 0 m 1,3,4
 -39 7 -39 7 -38.5 11 c 128,-1,5
 -38 15 -38 15 -38 20 c 1,6,-1
 32 37 l 1,7,-1
 284 676 l 1,8,9
 267 680 267 680 245 685.5 c 128,-1,10
 223 691 223 691 204 696 c 1,11,-1
 204 716 l 1,12,-1
 390 716 l 1,13,-1
 627 37 l 1,14,15
 644 34 644 34 662.5 29 c 128,-1,16
 681 24 681 24 698 20 c 1,17,18
 698 12 698 12 698.5 8.5 c 128,-1,19
 699 5 699 5 699 0 c 1,20,-1
 474 0 l 1,21,22
 474 6 474 6 474.5 11 c 128,-1,23
 475 16 475 16 475 21 c 1,24,-1
 559 40 l 1,25,-1
 487 272 l 1,26,-1
 194 272 l 1,27,-1
 100 41 l 1,28,29
 119 36 119 36 141.5 30.5 c 128,-1,30
 164 25 164 25 184 20 c 1,31,32
 184 12 184 12 184.5 8.5 c 128,-1,33
 185 5 185 5 185 0 c 1,34,-1
 -39 0 l 1,3,4
EndSplineSet
EndChar

StartChar: B
Encoding: 66 66 18
Width: 705
Flags: W
LayerCount: 2
Fore
SplineSet
169 33 m 1,0,-1
 320 26 l 1,1,2
 400 24 400 24 451.5 36 c 128,-1,3
 503 48 503 48 532.5 71 c 128,-1,4
 562 94 562 94 573.5 127.5 c 128,-1,5
 585 161 585 161 585 203 c 0,6,7
 585 242 585 242 569.5 272.5 c 128,-1,8
 554 303 554 303 526.5 324 c 128,-1,9
 499 345 499 345 460 356 c 128,-1,10
 421 367 421 367 374 367 c 2,11,-1
 169 367 l 1,12,-1
 169 33 l 1,0,-1
327 411 m 2,13,14
 429 411 429 411 474.5 441 c 128,-1,15
 520 471 520 471 520 539 c 0,16,17
 520 570 520 570 510 594.5 c 128,-1,18
 500 619 500 619 478 636.5 c 128,-1,19
 456 654 456 654 421 663.5 c 128,-1,20
 386 673 386 673 336 673 c 2,21,-1
 169 673 l 1,22,-1
 169 411 l 1,23,-1
 327 411 l 2,13,14
335 716 m 2,24,25
 409 716 409 716 459 702 c 128,-1,26
 509 688 509 688 539.5 664 c 128,-1,27
 570 640 570 640 583 607.5 c 128,-1,28
 596 575 596 575 596 539 c 0,29,30
 596 483 596 483 559 443 c 128,-1,31
 522 403 522 403 433 390 c 1,32,33
 478 387 478 387 519.5 374.5 c 128,-1,34
 561 362 561 362 593 338.5 c 128,-1,35
 625 315 625 315 644.5 279.5 c 128,-1,36
 664 244 664 244 664 195 c 0,37,38
 664 157 664 157 648.5 120.5 c 128,-1,39
 633 84 633 84 598.5 54.5 c 128,-1,40
 564 25 564 25 509 6.5 c 128,-1,41
 454 -12 454 -12 374 -13 c 1,42,43
 279 -9 279 -9 194.5 -7 c 128,-1,44
 110 -5 110 -5 26 0 c 1,45,-1
 26 22 l 1,46,-1
 103 40 l 1,47,-1
 105 677 l 1,48,-1
 26 695 l 1,49,-1
 26 716 l 1,50,-1
 335 716 l 2,24,25
EndSplineSet
EndChar

StartChar: C
Encoding: 67 67 19
Width: 700
Flags: W
LayerCount: 2
Fore
SplineSet
581 658 m 1,0,1
 558 665 558 665 540 671 c 128,-1,2
 522 677 522 677 505.5 681 c 128,-1,3
 489 685 489 685 472.5 687 c 128,-1,4
 456 689 456 689 436 689 c 0,5,6
 414 689 414 689 384 682 c 128,-1,7
 354 675 354 675 322 659.5 c 128,-1,8
 290 644 290 644 259 619 c 128,-1,9
 228 594 228 594 203 557 c 128,-1,10
 178 520 178 520 162 470 c 128,-1,11
 146 420 146 420 145 356 c 1,12,13
 149 280 149 280 168.5 226 c 128,-1,14
 188 172 188 172 216.5 136 c 128,-1,15
 245 100 245 100 278 79 c 128,-1,16
 311 58 311 58 342 47 c 128,-1,17
 373 36 373 36 398.5 33 c 128,-1,18
 424 30 424 30 436 30 c 0,19,20
 496 30 496 30 546 54 c 128,-1,21
 596 78 596 78 635 108 c 1,22,-1
 635 39 l 1,23,24
 623 31 623 31 603 21.5 c 128,-1,25
 583 12 583 12 557 3 c 128,-1,26
 531 -6 531 -6 500 -13 c 128,-1,27
 469 -20 469 -20 436 -21 c 1,28,29
 344 -21 344 -21 275.5 8.5 c 128,-1,30
 207 38 207 38 161 89 c 128,-1,31
 115 140 115 140 92 208.5 c 128,-1,32
 69 277 69 277 69 354 c 0,33,34
 69 436 69 436 92.5 505.5 c 128,-1,35
 116 575 116 575 162.5 625 c 128,-1,36
 209 675 209 675 277.5 703 c 128,-1,37
 346 731 346 731 436 731 c 0,38,39
 499 731 499 731 550 719.5 c 128,-1,40
 601 708 601 708 628 699 c 1,41,42
 626 665 626 665 622.5 635 c 128,-1,43
 619 605 619 605 617 573 c 1,44,-1
 598 573 l 1,45,-1
 581 658 l 1,0,1
EndSplineSet
EndChar

StartChar: D
Encoding: 68 68 20
Width: 702
Flags: W
LayerCount: 2
Fore
SplineSet
168 74 m 2,0,1
 168 62 168 62 168.5 55.5 c 128,-1,2
 169 49 169 49 171.5 46 c 128,-1,3
 174 43 174 43 179 43 c 128,-1,4
 184 43 184 43 194 43 c 2,5,-1
 283 43 l 2,6,7
 327 43 327 43 377.5 58 c 128,-1,8
 428 73 428 73 471 109 c 128,-1,9
 514 145 514 145 542.5 204.5 c 128,-1,10
 571 264 571 264 571 354 c 0,11,12
 571 440 571 440 542.5 500.5 c 128,-1,13
 514 561 514 561 471 599 c 128,-1,14
 428 637 428 637 377.5 654.5 c 128,-1,15
 327 672 327 672 283 672 c 0,16,17
 249 672 249 672 228 672 c 128,-1,18
 207 672 207 672 194.5 671.5 c 128,-1,19
 182 671 182 671 176.5 669 c 128,-1,20
 171 667 171 667 168 664 c 1,21,-1
 168 74 l 2,0,1
24 694 m 1,22,-1
 24 715 l 1,23,-1
 281 715 l 2,24,25
 382 715 382 715 452 679 c 128,-1,26
 522 643 522 643 566 588.5 c 128,-1,27
 610 534 610 534 630 471 c 128,-1,28
 650 408 650 408 650 354 c 256,29,30
 650 300 650 300 633 237.5 c 128,-1,31
 616 175 616 175 574 122.5 c 128,-1,32
 532 70 532 70 461 35 c 128,-1,33
 390 0 390 0 282 0 c 2,34,-1
 24 0 l 1,35,-1
 24 21 l 1,36,-1
 102 39 l 1,37,-1
 102 677 l 1,38,-1
 24 694 l 1,22,-1
EndSplineSet
EndChar

StartChar: E
Encoding: 69 69 21
Width: 588
Flags: W
LayerCount: 2
Fore
SplineSet
474 673 m 1,0,-1
 169 673 l 1,1,-1
 169 385 l 1,2,-1
 429 385 l 1,3,-1
 429 342 l 1,4,-1
 169 342 l 1,5,-1
 169 43 l 1,6,-1
 507 43 l 1,7,-1
 524 120 l 1,8,-1
 543 120 l 1,9,-1
 543 0 l 1,10,-1
 27 0 l 1,11,-1
 27 21 l 1,12,-1
 105 39 l 1,13,-1
 106 676 l 1,14,-1
 27 694 l 1,15,-1
 27 715 l 1,16,-1
 521 715 l 1,17,-1
 510 575 l 1,18,-1
 491 575 l 1,19,-1
 474 673 l 1,0,-1
EndSplineSet
EndChar

StartChar: F
Encoding: 70 70 22
Width: 599
Flags: W
LayerCount: 2
Fore
SplineSet
249 20 m 1,0,-1
 249 0 l 1,1,-1
 29 0 l 1,2,-1
 29 22 l 1,3,-1
 106 40 l 1,4,-1
 106 675 l 1,5,-1
 29 693 l 1,6,-1
 29 715 l 1,7,-1
 567 715 l 1,8,9
 565 677 565 677 563.5 643.5 c 128,-1,10
 562 610 562 610 560 574 c 1,11,-1
 538 574 l 1,12,-1
 521 671 l 1,13,-1
 170 671 l 1,14,-1
 170 386 l 1,15,-1
 417 386 l 1,16,-1
 417 336 l 1,17,-1
 170 336 l 1,18,-1
 170 38 l 1,19,-1
 249 20 l 1,0,-1
EndSplineSet
EndChar

StartChar: H
Encoding: 72 72 23
Width: 770
Flags: W
LayerCount: 2
Fore
SplineSet
769 695 m 1,0,-1
 692 678 l 1,1,-1
 691 40 l 1,2,3
 708 36 708 36 729.5 31.5 c 128,-1,4
 751 27 751 27 769 22 c 1,5,-1
 769 0 l 1,6,-1
 546 0 l 1,7,-1
 546 21 l 1,8,-1
 624 39 l 1,9,-1
 626 337 l 1,10,-1
 174 337 l 1,11,-1
 174 38 l 1,12,-1
 252 21 l 1,13,-1
 252 0 l 1,14,-1
 27 0 l 1,15,-1
 27 21 l 1,16,-1
 102 39 l 1,17,-1
 102 677 l 1,18,19
 86 680 86 680 65.5 685 c 128,-1,20
 45 690 45 690 27 694 c 1,21,-1
 27 716 l 1,22,-1
 252 716 l 1,23,-1
 252 695 l 1,24,-1
 174 677 l 1,25,-1
 174 382 l 1,26,-1
 626 382 l 1,27,-1
 626 676 l 1,28,-1
 546 696 l 1,29,-1
 546 716 l 1,30,-1
 769 716 l 1,31,-1
 769 695 l 1,0,-1
EndSplineSet
EndChar

StartChar: I
Encoding: 73 73 24
Width: 279
Flags: W
LayerCount: 2
Fore
SplineSet
254 695 m 1,0,-1
 178 677 l 1,1,-1
 178 38 l 1,2,-1
 255 21 l 1,3,-1
 255 0 l 1,4,-1
 39 0 l 1,5,-1
 39 21 l 1,6,-1
 114 39 l 1,7,-1
 114 677 l 1,8,9
 98 680 98 680 78 685 c 128,-1,10
 58 690 58 690 40 694 c 1,11,-1
 40 716 l 1,12,-1
 254 716 l 1,13,-1
 254 695 l 1,0,-1
EndSplineSet
EndChar

StartChar: J
Encoding: 74 74 25
Width: 292
Flags: W
LayerCount: 2
Fore
SplineSet
50 695 m 1,0,-1
 50 716 l 1,1,-1
 273 716 l 1,2,-1
 273 695 l 1,3,-1
 194 677 l 1,4,-1
 191 -23 l 2,5,6
 191 -76 191 -76 177.5 -109.5 c 128,-1,7
 164 -143 164 -143 145.5 -163 c 128,-1,8
 127 -183 127 -183 106.5 -192 c 128,-1,9
 86 -201 86 -201 71 -205 c 1,10,-1
 71 -168 l 1,11,12
 77 -163 77 -163 86.5 -152.5 c 128,-1,13
 96 -142 96 -142 106 -125 c 128,-1,14
 116 -108 116 -108 123 -83 c 128,-1,15
 130 -58 130 -58 130 -23 c 2,16,-1
 130 677 l 1,17,-1
 50 695 l 1,0,-1
EndSplineSet
EndChar

StartChar: K
Encoding: 75 75 26
Width: 663
Flags: W
LayerCount: 2
Fore
SplineSet
623 37 m 1,0,1
 640 34 640 34 658 29 c 128,-1,2
 676 24 676 24 693 20 c 1,3,-1
 693 0 l 1,4,-1
 475 0 l 1,5,-1
 475 20 l 1,6,-1
 550 35 l 1,7,-1
 320 386 l 1,8,-1
 170 218 l 1,9,-1
 170 39 l 1,10,11
 187 35 187 35 208.5 30.5 c 128,-1,12
 230 26 230 26 248 21 c 1,13,-1
 248 0 l 1,14,-1
 26 0 l 1,15,-1
 26 21 l 1,16,-1
 104 39 l 1,17,-1
 105 676 l 1,18,19
 87 680 87 680 65.5 685 c 128,-1,20
 44 690 44 690 26 695 c 1,21,-1
 26 716 l 1,22,-1
 248 716 l 1,23,-1
 248 695 l 1,24,-1
 171 678 l 1,25,-1
 170 297 l 1,26,-1
 487 672 l 1,27,-1
 391 695 l 1,28,-1
 391 716 l 1,29,-1
 628 716 l 1,30,-1
 628 695 l 1,31,-1
 561 679 l 1,32,-1
 357 439 l 1,33,-1
 623 37 l 1,0,1
EndSplineSet
EndChar

StartChar: L
Encoding: 76 76 27
Width: 555
Flags: W
LayerCount: 2
Fore
SplineSet
539 0 m 1,0,-1
 28 0 l 1,1,2
 28 6 28 6 27.5 11 c 128,-1,3
 27 16 27 16 27 21 c 1,4,-1
 105 39 l 1,5,-1
 106 677 l 1,6,-1
 27 695 l 1,7,-1
 27 716 l 1,8,-1
 249 716 l 1,9,-1
 249 695 l 1,10,-1
 172 678 l 1,11,-1
 171 68 l 2,12,13
 171 51 171 51 174 48.5 c 128,-1,14
 177 46 177 46 196 46 c 2,15,-1
 494 46 l 1,16,17
 497 68 497 68 502 94.5 c 128,-1,18
 507 121 507 121 511 144 c 1,19,-1
 532 144 l 1,20,-1
 539 0 l 1,0,-1
EndSplineSet
EndChar

StartChar: M
Encoding: 77 77 28
Width: 896
Flags: W
LayerCount: 2
Fore
SplineSet
23 0 m 1,0,-1
 23 21 l 1,1,-1
 101 39 l 1,2,-1
 101 677 l 1,3,-1
 22 695 l 1,4,-1
 22 716 l 1,5,-1
 200 716 l 1,6,-1
 441 179 l 2,7,8
 452 156 452 156 467 156 c 128,-1,9
 482 156 482 156 492 179 c 2,10,-1
 728 716 l 1,11,-1
 897 716 l 1,12,-1
 897 695 l 1,13,-1
 819 677 l 1,14,-1
 819 40 l 1,15,-1
 900 21 l 1,16,-1
 899 0 l 1,17,-1
 674 0 l 1,18,-1
 674 21 l 1,19,-1
 753 39 l 1,20,-1
 755 643 l 1,21,-1
 504 84 l 1,22,-1
 430 84 l 1,23,-1
 166 645 l 1,24,-1
 166 38 l 1,25,-1
 248 21 l 1,26,-1
 248 0 l 1,27,-1
 23 0 l 1,0,-1
EndSplineSet
EndChar

StartChar: N
Encoding: 78 78 29
Width: 741
Flags: W
LayerCount: 2
Fore
SplineSet
660 677 m 1,0,-1
 660 38 l 1,1,-1
 739 21 l 1,2,-1
 739 0 l 1,3,-1
 584 0 l 1,4,-1
 167 653 l 1,5,-1
 166 40 l 1,6,7
 184 36 184 36 205.5 31 c 128,-1,8
 227 26 227 26 245 21 c 1,9,10
 245 13 245 13 245.5 9 c 128,-1,11
 246 5 246 5 246 0 c 1,12,-1
 22 0 l 1,13,14
 22 6 22 6 22.5 11 c 128,-1,15
 23 16 23 16 23 21 c 1,16,-1
 100 39 l 1,17,-1
 101 677 l 1,18,-1
 24 695 l 1,19,-1
 24 716 l 1,20,-1
 186 716 l 1,21,-1
 595 77 l 1,22,-1
 595 716 l 1,23,-1
 738 716 l 1,24,-1
 738 695 l 1,25,-1
 660 677 l 1,0,-1
EndSplineSet
EndChar

StartChar: O
Encoding: 79 79 30
Width: 844
Flags: W
LayerCount: 2
Fore
SplineSet
135 357 m 0,0,1
 135 271 135 271 154 213 c 128,-1,2
 173 155 173 155 202 118.5 c 128,-1,3
 231 82 231 82 266.5 62.5 c 128,-1,4
 302 43 302 43 335 35 c 128,-1,5
 368 27 368 27 395 26 c 128,-1,6
 422 25 422 25 434 25 c 0,7,8
 444 25 444 25 471 26.5 c 128,-1,9
 498 28 498 28 532.5 37.5 c 128,-1,10
 567 47 567 47 604 67 c 128,-1,11
 641 87 641 87 671.5 124 c 128,-1,12
 702 161 702 161 722 217.5 c 128,-1,13
 742 274 742 274 742 357 c 0,14,15
 742 441 742 441 722 498 c 128,-1,16
 702 555 702 555 671 592 c 128,-1,17
 640 629 640 629 603 648 c 128,-1,18
 566 667 566 667 531.5 676 c 128,-1,19
 497 685 497 685 470 686 c 128,-1,20
 443 687 443 687 433 687 c 0,21,22
 421 687 421 687 394.5 685.5 c 128,-1,23
 368 684 368 684 334.5 674.5 c 128,-1,24
 301 665 301 665 266 645 c 128,-1,25
 231 625 231 625 201.5 588.5 c 128,-1,26
 172 552 172 552 153.5 495.5 c 128,-1,27
 135 439 135 439 135 357 c 0,0,1
434 731 m 1,28,29
 630 728 630 728 720 634 c 128,-1,30
 810 540 810 540 810 356 c 0,31,32
 810 276 810 276 789.5 207.5 c 128,-1,33
 769 139 769 139 724 88.5 c 128,-1,34
 679 38 679 38 607.5 9 c 128,-1,35
 536 -20 536 -20 434 -20 c 0,36,37
 330 -20 330 -20 259 7 c 128,-1,38
 188 34 188 34 144 83.5 c 128,-1,39
 100 133 100 133 80 202.5 c 128,-1,40
 60 272 60 272 59 356 c 1,41,42
 59 540 59 540 157.5 634 c 128,-1,43
 256 728 256 728 434 731 c 1,28,29
EndSplineSet
EndChar

StartChar: P
Encoding: 80 80 31
Width: 636
Flags: W
LayerCount: 2
Fore
SplineSet
170 348 m 1,0,-1
 351 348 l 2,1,2
 405 348 405 348 439.5 366.5 c 128,-1,3
 474 385 474 385 494 410.5 c 128,-1,4
 514 436 514 436 521.5 462.5 c 128,-1,5
 529 489 529 489 529 506 c 0,6,7
 529 532 529 532 521.5 561.5 c 128,-1,8
 514 591 514 591 494 615.5 c 128,-1,9
 474 640 474 640 439.5 656 c 128,-1,10
 405 672 405 672 351 672 c 2,11,-1
 170 672 l 1,12,-1
 170 348 l 1,0,-1
28 695 m 1,13,-1
 28 716 l 1,14,-1
 351 716 l 2,15,16
 424 716 424 716 473 697 c 128,-1,17
 522 678 522 678 551.5 648 c 128,-1,18
 581 618 581 618 593.5 580.5 c 128,-1,19
 606 543 606 543 606 507 c 0,20,21
 606 473 606 473 593.5 437 c 128,-1,22
 581 401 581 401 551.5 371 c 128,-1,23
 522 341 522 341 473 322 c 128,-1,24
 424 303 424 303 351 303 c 2,25,-1
 170 303 l 1,26,-1
 170 40 l 1,27,28
 188 36 188 36 209.5 31 c 128,-1,29
 231 26 231 26 250 21 c 1,30,-1
 250 0 l 1,31,-1
 26 0 l 1,32,-1
 26 21 l 1,33,-1
 105 39 l 1,34,-1
 106 677 l 1,35,-1
 28 695 l 1,13,-1
EndSplineSet
EndChar

StartChar: Q
Encoding: 81 81 32
Width: 841
Flags: W
LayerCount: 2
Fore
SplineSet
135 354 m 0,0,1
 135 268 135 268 154 210 c 128,-1,2
 173 152 173 152 202 115.5 c 128,-1,3
 231 79 231 79 266.5 59.5 c 128,-1,4
 302 40 302 40 335 32 c 128,-1,5
 368 24 368 24 395 23 c 128,-1,6
 422 22 422 22 434 22 c 0,7,8
 444 22 444 22 471 23.5 c 128,-1,9
 498 25 498 25 532 34.5 c 128,-1,10
 566 44 566 44 603 64 c 128,-1,11
 640 84 640 84 670.5 121 c 128,-1,12
 701 158 701 158 721 214.5 c 128,-1,13
 741 271 741 271 741 354 c 0,14,15
 741 438 741 438 721 495 c 128,-1,16
 701 552 701 552 670.5 589 c 128,-1,17
 640 626 640 626 603 645 c 128,-1,18
 566 664 566 664 531.5 673 c 128,-1,19
 497 682 497 682 470 683 c 128,-1,20
 443 684 443 684 433 684 c 0,21,22
 421 684 421 684 394.5 682.5 c 128,-1,23
 368 681 368 681 334.5 671.5 c 128,-1,24
 301 662 301 662 266 642 c 128,-1,25
 231 622 231 622 201.5 585.5 c 128,-1,26
 172 549 172 549 153.5 492.5 c 128,-1,27
 135 436 135 436 135 354 c 0,0,1
434 728 m 1,28,29
 630 725 630 725 720 631 c 128,-1,30
 810 537 810 537 810 353 c 0,31,32
 810 277 810 277 791 211.5 c 128,-1,33
 772 146 772 146 730 96.5 c 128,-1,34
 688 47 688 47 620.5 15.5 c 128,-1,35
 553 -16 553 -16 456 -23 c 1,36,-1
 456 -56 l 2,37,38
 456 -93 456 -93 469 -118.5 c 128,-1,39
 482 -144 482 -144 501.5 -160.5 c 128,-1,40
 521 -177 521 -177 543 -185.5 c 128,-1,41
 565 -194 565 -194 583 -196 c 1,42,-1
 583 -207 l 1,43,44
 523 -204 523 -204 487.5 -185.5 c 128,-1,45
 452 -167 452 -167 434 -143 c 128,-1,46
 416 -119 416 -119 410.5 -94.5 c 128,-1,47
 405 -70 405 -70 405 -55 c 2,48,-1
 405 -23 l 1,49,50
 309 -15 309 -15 243.5 15.5 c 128,-1,51
 178 46 178 46 137.5 94.5 c 128,-1,52
 97 143 97 143 78.5 208.5 c 128,-1,53
 60 274 60 274 59 353 c 1,54,55
 59 537 59 537 157.5 631 c 128,-1,56
 256 725 256 725 434 728 c 1,28,29
EndSplineSet
EndChar

StartChar: R
Encoding: 82 82 33
Width: 682
Flags: W
LayerCount: 2
Fore
SplineSet
344 397 m 2,0,1
 393 397 393 397 425.5 410.5 c 128,-1,2
 458 424 458 424 477 444 c 128,-1,3
 496 464 496 464 503.5 488.5 c 128,-1,4
 511 513 511 513 511 535 c 0,5,6
 511 559 511 559 502.5 583 c 128,-1,7
 494 607 494 607 474 627 c 128,-1,8
 454 647 454 647 422 659.5 c 128,-1,9
 390 672 390 672 344 672 c 2,10,-1
 166 672 l 1,11,-1
 166 397 l 1,12,-1
 344 397 l 2,0,1
344 716 m 2,13,14
 404 716 404 716 448.5 701.5 c 128,-1,15
 493 687 493 687 522 662 c 128,-1,16
 551 637 551 637 565 604 c 128,-1,17
 579 571 579 571 579 534 c 0,18,19
 579 492 579 492 564.5 464 c 128,-1,20
 550 436 550 436 527 417 c 128,-1,21
 504 398 504 398 476 387.5 c 128,-1,22
 448 377 448 377 421 371 c 1,23,24
 445 368 445 368 463 356.5 c 128,-1,25
 481 345 481 345 494 329 c 128,-1,26
 507 313 507 313 516.5 294 c 128,-1,27
 526 275 526 275 534 257 c 2,28,-1
 622 37 l 1,29,30
 639 33 639 33 658 28.5 c 128,-1,31
 677 24 677 24 694 20 c 1,32,33
 694 12 694 12 694.5 8.5 c 128,-1,34
 695 5 695 5 695 0 c 1,35,-1
 472 0 l 1,36,-1
 472 21 l 1,37,-1
 558 40 l 1,38,-1
 458 283 l 1,39,40
 441 317 441 317 421 332.5 c 128,-1,41
 401 348 401 348 366 348 c 2,42,-1
 166 348 l 1,43,-1
 166 38 l 1,44,-1
 182 34 l 2,45,46
 198 30 198 30 246 21 c 1,47,48
 246 13 246 13 246.5 9 c 128,-1,49
 247 5 247 5 247 0 c 1,50,-1
 24 0 l 1,51,-1
 24 21 l 1,52,-1
 102 39 l 1,53,-1
 103 677 l 1,54,-1
 26 695 l 1,55,-1
 26 716 l 1,56,-1
 344 716 l 2,13,14
EndSplineSet
EndChar

StartChar: S
Encoding: 83 83 34
Width: 608
Flags: W
LayerCount: 2
Fore
SplineSet
103 82 m 1,0,1
 142 59 142 59 190 43.5 c 128,-1,2
 238 28 238 28 293 28 c 0,3,4
 334 28 334 28 369.5 39 c 128,-1,5
 405 50 405 50 431 69.5 c 128,-1,6
 457 89 457 89 472 114.5 c 128,-1,7
 487 140 487 140 487 170 c 0,8,9
 487 186 487 186 483 209 c 128,-1,10
 479 232 479 232 461 255.5 c 128,-1,11
 443 279 443 279 406.5 301.5 c 128,-1,12
 370 324 370 324 304 341 c 1,13,14
 248 357 248 357 204 376 c 128,-1,15
 160 395 160 395 129.5 419.5 c 128,-1,16
 99 444 99 444 83 476 c 128,-1,17
 67 508 67 508 67 551 c 0,18,19
 67 586 67 586 83 618.5 c 128,-1,20
 99 651 99 651 130.5 676 c 128,-1,21
 162 701 162 701 208 716 c 128,-1,22
 254 731 254 731 315 731 c 0,23,24
 365 731 365 731 401.5 728 c 128,-1,25
 438 725 438 725 464 719.5 c 128,-1,26
 490 714 490 714 508 706.5 c 128,-1,27
 526 699 526 699 540 690 c 1,28,-1
 533 584 l 1,29,-1
 511 584 l 1,30,-1
 494 656 l 1,31,32
 440 679 440 679 398 685.5 c 128,-1,33
 356 692 356 692 314 692 c 0,34,35
 280 692 280 692 249.5 682 c 128,-1,36
 219 672 219 672 195.5 654 c 128,-1,37
 172 636 172 636 158.5 609.5 c 128,-1,38
 145 583 145 583 145 550 c 256,39,40
 145 517 145 517 155.5 494 c 128,-1,41
 166 471 166 471 186 454 c 128,-1,42
 206 437 206 437 235 425 c 128,-1,43
 264 413 264 413 301 402 c 0,44,45
 343 390 343 390 389 373.5 c 128,-1,46
 435 357 435 357 473.5 330.5 c 128,-1,47
 512 304 512 304 537.5 265 c 128,-1,48
 563 226 563 226 563 170 c 0,49,50
 563 111 563 111 534.5 74 c 128,-1,51
 506 37 506 37 464.5 16 c 128,-1,52
 423 -5 423 -5 376 -12.5 c 128,-1,53
 329 -20 329 -20 293 -20 c 0,54,55
 248 -20 248 -20 212.5 -14.5 c 128,-1,56
 177 -9 177 -9 149 0 c 128,-1,57
 121 9 121 9 100.5 19 c 128,-1,58
 80 29 80 29 67 38 c 1,59,60
 67 68 67 68 66 96 c 128,-1,61
 65 124 65 124 65 154 c 1,62,-1
 85 154 l 1,63,-1
 103 82 l 1,0,1
EndSplineSet
EndChar

StartChar: T
Encoding: 84 84 35
Width: 636
Flags: W
LayerCount: 2
Fore
SplineSet
582 673 m 1,0,-1
 365 673 l 1,1,-1
 365 39 l 1,2,-1
 443 21 l 1,3,-1
 443 0 l 1,4,-1
 220 0 l 1,5,-1
 220 21 l 1,6,-1
 299 39 l 1,7,-1
 299 673 l 1,8,-1
 73 673 l 1,9,-1
 54 596 l 1,10,-1
 33 596 l 1,11,-1
 23 716 l 1,12,-1
 632 716 l 1,13,-1
 621 596 l 1,14,-1
 600 596 l 1,15,-1
 582 673 l 1,0,-1
EndSplineSet
EndChar

StartChar: U
Encoding: 85 85 36
Width: 737
Flags: W
LayerCount: 2
Fore
SplineSet
733 695 m 1,0,-1
 656 678 l 1,1,-1
 653 303 l 2,2,3
 653 276 653 276 652 242 c 128,-1,4
 651 208 651 208 643.5 173 c 128,-1,5
 636 138 636 138 620 104 c 128,-1,6
 604 70 604 70 573.5 43.5 c 128,-1,7
 543 17 543 17 495.5 1 c 128,-1,8
 448 -15 448 -15 379 -15 c 0,9,10
 309 -15 309 -15 260.5 1 c 128,-1,11
 212 17 212 17 181 43.5 c 128,-1,12
 150 70 150 70 133 104 c 128,-1,13
 116 138 116 138 108.5 174.5 c 128,-1,14
 101 211 101 211 99.5 246.5 c 128,-1,15
 98 282 98 282 98 312 c 2,16,-1
 98 677 l 1,17,-1
 18 694 l 1,18,-1
 18 716 l 1,19,-1
 243 716 l 1,20,-1
 243 695 l 1,21,-1
 164 678 l 1,22,-1
 162 303 l 2,23,24
 162 287 162 287 163 261 c 128,-1,25
 164 235 164 235 170 205 c 128,-1,26
 176 175 176 175 189.5 144 c 128,-1,27
 203 113 203 113 227 88.5 c 128,-1,28
 251 64 251 64 288 48 c 128,-1,29
 325 32 325 32 379 32 c 0,30,31
 432 32 432 32 468 47.5 c 128,-1,32
 504 63 504 63 527.5 88 c 128,-1,33
 551 113 551 113 563.5 143.5 c 128,-1,34
 576 174 576 174 582 204 c 128,-1,35
 588 234 588 234 589 260.5 c 128,-1,36
 590 287 590 287 590 303 c 2,37,-1
 590 677 l 1,38,-1
 511 694 l 1,39,-1
 511 716 l 1,40,-1
 734 716 l 1,41,-1
 733 695 l 1,0,-1
EndSplineSet
EndChar

StartChar: V
Encoding: 86 86 37
Width: 703
Flags: W
LayerCount: 2
Fore
SplineSet
342 36 m 1,0,-1
 570 682 l 1,1,-1
 504 696 l 1,2,-1
 504 716 l 1,3,-1
 716 716 l 1,4,-1
 716 696 l 1,5,-1
 644 679 l 1,6,-1
 390 0 l 1,7,-1
 295 0 l 1,8,-1
 47 679 l 1,9,-1
 -23 696 l 1,10,-1
 -23 716 l 1,11,-1
 191 716 l 1,12,-1
 191 695 l 1,13,-1
 115 679 l 1,14,-1
 342 36 l 1,0,-1
EndSplineSet
EndChar

StartChar: W
Encoding: 87 87 38
Width: 1069
Flags: W
LayerCount: 2
Fore
SplineSet
115 680 m 1,0,-1
 352 38 l 1,1,-1
 519 716 l 1,2,-1
 581 716 l 1,3,-1
 741 36 l 1,4,-1
 977 680 l 1,5,-1
 906 695 l 1,6,-1
 906 716 l 1,7,-1
 1116 716 l 1,8,-1
 1116 696 l 1,9,-1
 1047 679 l 1,10,-1
 801 0 l 1,11,-1
 700 0 l 1,12,-1
 549 645 l 1,13,-1
 395 0 l 1,14,-1
 294 0 l 1,15,-1
 45 679 l 1,16,-1
 -26 696 l 1,17,-1
 -26 716 l 1,18,-1
 185 716 l 1,19,-1
 185 695 l 1,20,-1
 115 680 l 1,0,-1
EndSplineSet
EndChar

StartChar: X
Encoding: 88 88 39
Width: 708
Flags: W
LayerCount: 2
Fore
SplineSet
227 20 m 1,0,-1
 227 0 l 1,1,-1
 4 0 l 1,2,-1
 4 21 l 1,3,-1
 72 37 l 1,4,-1
 328 369 l 1,5,-1
 87 679 l 1,6,-1
 19 696 l 1,7,-1
 19 716 l 1,8,-1
 242 716 l 1,9,-1
 242 695 l 1,10,-1
 166 677 l 1,11,-1
 361 418 l 1,12,-1
 560 680 l 1,13,-1
 485 696 l 1,14,-1
 485 716 l 1,15,-1
 708 716 l 1,16,-1
 708 696 l 1,17,-1
 640 679 l 1,18,-1
 403 369 l 1,19,-1
 652 37 l 1,20,21
 669 34 669 34 686.5 29 c 128,-1,22
 704 24 704 24 721 20 c 1,23,-1
 721 0 l 1,24,-1
 498 0 l 1,25,-1
 498 21 l 1,26,-1
 580 41 l 1,27,-1
 361 321 l 1,28,-1
 144 39 l 1,29,-1
 227 20 l 1,0,-1
EndSplineSet
EndChar

StartChar: Y
Encoding: 89 89 40
Width: 710
Flags: W
LayerCount: 2
Fore
SplineSet
474 21 m 1,0,-1
 474 0 l 1,1,-1
 252 0 l 1,2,-1
 252 21 l 1,3,-1
 329 39 l 1,4,-1
 329 266 l 1,5,-1
 62 679 l 1,6,-1
 -7 695 l 1,7,-1
 -7 716 l 1,8,-1
 205 716 l 1,9,-1
 205 696 l 1,10,-1
 128 681 l 1,11,-1
 362 309 l 1,12,-1
 600 681 l 1,13,-1
 529 696 l 1,14,-1
 529 716 l 1,15,-1
 738 716 l 1,16,-1
 738 696 l 1,17,-1
 670 679 l 1,18,-1
 397 266 l 1,19,-1
 397 39 l 1,20,-1
 474 21 l 1,0,-1
EndSplineSet
EndChar

StartChar: Z
Encoding: 90 90 41
Width: 675
Flags: W
LayerCount: 2
Fore
SplineSet
641 144 m 1,0,-1
 652 0 l 1,1,-1
 45 0 l 1,2,-1
 45 50 l 1,3,-1
 574 673 l 1,4,-1
 94 673 l 1,5,6
 77 601 77 601 76 597 c 1,7,-1
 57 597 l 1,8,-1
 45 716 l 1,9,-1
 652 716 l 1,10,-1
 653 670 l 1,11,-1
 128 50 l 1,12,-1
 605 50 l 1,13,-1
 641 144 l 1,0,-1
EndSplineSet
EndChar

StartChar: a
Encoding: 97 97 42
Width: 510
Flags: W
LayerCount: 2
Fore
SplineSet
364 275 m 1,0,1
 341 269 341 269 322 265.5 c 128,-1,2
 303 262 303 262 286 260.5 c 128,-1,3
 269 259 269 259 253 259 c 128,-1,4
 237 259 237 259 221 259 c 0,5,6
 204 259 204 259 185 257.5 c 128,-1,7
 166 256 166 256 150 245.5 c 128,-1,8
 134 235 134 235 123.5 212.5 c 128,-1,9
 113 190 113 190 113 148 c 0,10,11
 113 119 113 119 122 98 c 128,-1,12
 131 77 131 77 146.5 63.5 c 128,-1,13
 162 50 162 50 182 43.5 c 128,-1,14
 202 37 202 37 225 37 c 0,15,16
 258 37 258 37 294 52.5 c 128,-1,17
 330 68 330 68 362 99 c 1,18,-1
 364 275 l 1,0,1
358 64 m 1,19,20
 345 53 345 53 328.5 41 c 128,-1,21
 312 29 312 29 291.5 18.5 c 128,-1,22
 271 8 271 8 246.5 1 c 128,-1,23
 222 -6 222 -6 194 -6 c 0,24,25
 122 -6 122 -6 84 33.5 c 128,-1,26
 46 73 46 73 46 149 c 0,27,28
 46 179 46 179 53.5 206.5 c 128,-1,29
 61 234 61 234 80 255.5 c 128,-1,30
 99 277 99 277 130 289.5 c 128,-1,31
 161 302 161 302 208 302 c 0,32,33
 247 302 247 302 271.5 302.5 c 128,-1,34
 296 303 296 303 312.5 305.5 c 128,-1,35
 329 308 329 308 339.5 313.5 c 128,-1,36
 350 319 350 319 361 329 c 1,37,38
 361 382 361 382 355 413.5 c 128,-1,39
 349 445 349 445 335.5 461 c 128,-1,40
 322 477 322 477 299.5 481.5 c 128,-1,41
 277 486 277 486 244 486 c 0,42,43
 213 486 213 486 182.5 481.5 c 128,-1,44
 152 477 152 477 126 469 c 1,45,46
 123 455 123 455 119 435 c 128,-1,47
 115 415 115 415 110 392 c 1,48,-1
 87 392 l 1,49,50
 85 421 85 421 83.5 446.5 c 128,-1,51
 82 472 82 472 80 500 c 1,52,53
 150 534 150 534 250 534 c 0,54,55
 286 534 286 534 318 525.5 c 128,-1,56
 350 517 350 517 374.5 494.5 c 128,-1,57
 399 472 399 472 413 433 c 128,-1,58
 427 394 427 394 427 332 c 2,59,-1
 427 41 l 1,60,-1
 507 22 l 1,61,-1
 507 0 l 1,62,-1
 389 0 l 1,63,-1
 358 64 l 1,19,20
EndSplineSet
EndChar

StartChar: b
Encoding: 98 98 43
Width: 557
Flags: W
LayerCount: 2
Fore
SplineSet
153 63 m 1,0,1
 185 49 185 49 222.5 39 c 128,-1,2
 260 29 260 29 292 29 c 0,3,4
 344 29 344 29 375.5 52 c 128,-1,5
 407 75 407 75 424 111 c 128,-1,6
 441 147 441 147 446 190.5 c 128,-1,7
 451 234 451 234 451 275 c 0,8,9
 451 313 451 313 447 351 c 128,-1,10
 443 389 443 389 431 419.5 c 128,-1,11
 419 450 419 450 397.5 469 c 128,-1,12
 376 488 376 488 342 488 c 0,13,14
 310 488 310 488 283.5 474.5 c 128,-1,15
 257 461 257 461 236 439.5 c 128,-1,16
 215 418 215 418 199.5 391 c 128,-1,17
 184 364 184 364 173.5 336.5 c 128,-1,18
 163 309 163 309 158 283.5 c 128,-1,19
 153 258 153 258 153 241 c 2,20,-1
 153 63 l 1,0,1
155 795 m 1,21,-1
 155 385 l 1,22,23
 159 405 159 405 175 431 c 128,-1,24
 191 457 191 457 216 479.5 c 128,-1,25
 241 502 241 502 274 517.5 c 128,-1,26
 307 533 307 533 346 533 c 0,27,28
 383 533 383 533 415.5 520 c 128,-1,29
 448 507 448 507 471.5 477 c 128,-1,30
 495 447 495 447 508.5 397.5 c 128,-1,31
 522 348 522 348 522 275 c 0,32,33
 522 125 522 125 463.5 56.5 c 128,-1,34
 405 -12 405 -12 278 -12 c 0,35,36
 227 -12 227 -12 179 0.5 c 128,-1,37
 131 13 131 13 87 27 c 1,38,-1
 87 755 l 1,39,40
 70 758 70 758 48.5 763.5 c 128,-1,41
 27 769 27 769 8 773 c 1,42,-1
 8 795 l 1,43,-1
 155 795 l 1,21,-1
EndSplineSet
EndChar

StartChar: c
Encoding: 99 99 44
Width: 529
Flags: W
LayerCount: 2
Fore
SplineSet
332 31 m 0,0,1
 357 31 357 31 382.5 35 c 128,-1,2
 408 39 408 39 431 45.5 c 128,-1,3
 454 52 454 52 473.5 59.5 c 128,-1,4
 493 67 493 67 507 74 c 1,5,-1
 508 16 l 1,6,7
 463 2 463 2 422.5 -6.5 c 128,-1,8
 382 -15 382 -15 332 -15 c 0,9,10
 198 -15 198 -15 130 52.5 c 128,-1,11
 62 120 62 120 62 264 c 0,12,13
 62 340 62 340 80.5 391.5 c 128,-1,14
 99 443 99 443 134 474.5 c 128,-1,15
 169 506 169 506 219 519.5 c 128,-1,16
 269 533 269 533 332 533 c 0,17,18
 380 533 380 533 422.5 520.5 c 128,-1,19
 465 508 465 508 496 491 c 1,20,21
 494 465 494 465 492.5 438 c 128,-1,22
 491 411 491 411 489 386 c 1,23,-1
 468 386 l 1,24,-1
 450 458 l 1,25,26
 421 471 421 471 389.5 479 c 128,-1,27
 358 487 358 487 332 487 c 0,28,29
 293 487 293 487 256.5 479 c 128,-1,30
 220 471 220 471 192 447 c 128,-1,31
 164 423 164 423 147 379.5 c 128,-1,32
 130 336 130 336 130 266 c 0,33,34
 130 193 130 193 146 147.5 c 128,-1,35
 162 102 162 102 190 76 c 128,-1,36
 218 50 218 50 254.5 40.5 c 128,-1,37
 291 31 291 31 332 31 c 0,0,1
EndSplineSet
EndChar

StartChar: d
Encoding: 100 100 45
Width: 589
Flags: W
LayerCount: 2
Fore
SplineSet
423 456 m 2,0,1
 409 462 409 462 390.5 468.5 c 128,-1,2
 372 475 372 475 351.5 481 c 128,-1,3
 331 487 331 487 309.5 490.5 c 128,-1,4
 288 494 288 494 270 494 c 0,5,6
 235 494 235 494 211.5 480.5 c 128,-1,7
 188 467 188 467 173 445.5 c 128,-1,8
 158 424 158 424 150 397.5 c 128,-1,9
 142 371 142 371 138.5 345.5 c 128,-1,10
 135 320 135 320 134.5 298.5 c 128,-1,11
 134 277 134 277 134 265 c 0,12,13
 134 233 134 233 138 193 c 128,-1,14
 142 153 142 153 155.5 118 c 128,-1,15
 169 83 169 83 194.5 59 c 128,-1,16
 220 35 220 35 264 35 c 0,17,18
 354 35 354 35 395.5 85.5 c 128,-1,19
 437 136 437 136 437 225 c 2,20,-1
 437 449 l 1,21,-1
 423 456 l 2,0,1
359 774 m 1,22,23
 359 782 359 782 358.5 786.5 c 128,-1,24
 358 791 358 791 358 796 c 1,25,-1
 507 796 l 1,26,-1
 506 38 l 1,27,-1
 588 21 l 1,28,-1
 588 0 l 1,29,-1
 443 0 l 1,30,-1
 433 91 l 1,31,32
 418 46 418 46 373 18.5 c 128,-1,33
 328 -9 328 -9 264 -9 c 0,34,35
 223 -9 223 -9 186.5 5 c 128,-1,36
 150 19 150 19 122 51 c 128,-1,37
 94 83 94 83 77.5 135 c 128,-1,38
 61 187 61 187 61 264 c 0,39,40
 61 339 61 339 78.5 391.5 c 128,-1,41
 96 444 96 444 125.5 477 c 128,-1,42
 155 510 155 510 192.5 525 c 128,-1,43
 230 540 230 540 270 540 c 0,44,45
 298 540 298 540 341 533 c 128,-1,46
 384 526 384 526 438 506 c 1,47,-1
 438 756 l 1,48,-1
 359 774 l 1,22,23
EndSplineSet
EndChar

StartChar: e
Encoding: 101 101 46
Width: 541
Flags: W
LayerCount: 2
Fore
SplineSet
434 306 m 1,0,1
 433 343 433 343 424.5 375.5 c 128,-1,2
 416 408 416 408 399 432.5 c 128,-1,3
 382 457 382 457 354.5 471.5 c 128,-1,4
 327 486 327 486 288 486 c 0,5,6
 244 486 244 486 213.5 471 c 128,-1,7
 183 456 183 456 164 430.5 c 128,-1,8
 145 405 145 405 136 372.5 c 128,-1,9
 127 340 127 340 127 305 c 1,10,-1
 434 306 l 1,0,1
288 25 m 0,11,12
 318 25 318 25 343 33.5 c 128,-1,13
 368 42 368 42 387 54 c 128,-1,14
 406 66 406 66 419.5 80 c 128,-1,15
 433 94 433 94 441 106 c 1,16,-1
 485 71 l 1,17,18
 462 44 462 44 437.5 27 c 128,-1,19
 413 10 413 10 387.5 0.5 c 128,-1,20
 362 -9 362 -9 337 -12.5 c 128,-1,21
 312 -16 312 -16 288 -16 c 0,22,23
 221 -16 221 -16 176.5 2.5 c 128,-1,24
 132 21 132 21 105 55 c 128,-1,25
 78 89 78 89 66 138 c 128,-1,26
 54 187 54 187 53 247 c 1,27,28
 53 381 53 381 109.5 456.5 c 128,-1,29
 166 532 166 532 288 532 c 0,30,31
 390 532 390 532 442 466 c 128,-1,32
 494 400 494 400 493 263 c 1,33,-1
 119 264 l 1,34,35
 119 211 119 211 123 167.5 c 128,-1,36
 127 124 127 124 144 92 c 128,-1,37
 161 60 161 60 194.5 42.5 c 128,-1,38
 228 25 228 25 288 25 c 0,11,12
EndSplineSet
EndChar

StartChar: f
Encoding: 102 102 47
Width: 314
Flags: W
LayerCount: 2
Fore
SplineSet
241 21 m 1,0,-1
 241 0 l 1,1,-1
 13 0 l 1,2,-1
 13 21 l 1,3,-1
 93 40 l 1,4,-1
 95 475 l 1,5,-1
 9 475 l 1,6,-1
 9 518 l 1,7,-1
 95 518 l 1,8,-1
 95 564 l 2,9,10
 95 627 95 627 108 669 c 128,-1,11
 121 711 121 711 146.5 735.5 c 128,-1,12
 172 760 172 760 209 770 c 128,-1,13
 246 780 246 780 294 780 c 0,14,15
 320 780 320 780 350.5 770 c 128,-1,16
 381 760 381 760 404 749 c 1,17,-1
 397 641 l 1,18,-1
 377 641 l 1,19,-1
 360 718 l 1,20,21
 339 723 339 723 323 725.5 c 128,-1,22
 307 728 307 728 294 728 c 0,23,24
 243 728 243 728 215.5 716 c 128,-1,25
 188 704 188 704 175.5 682.5 c 128,-1,26
 163 661 163 661 161 630.5 c 128,-1,27
 159 600 159 600 159 564 c 2,28,-1
 159 518 l 1,29,-1
 288 518 l 1,30,-1
 288 475 l 1,31,-1
 159 475 l 1,32,-1
 159 38 l 1,33,-1
 241 21 l 1,0,-1
EndSplineSet
EndChar

StartChar: h
Encoding: 104 104 48
Width: 600
Flags: W
LayerCount: 2
Fore
SplineSet
597 22 m 1,0,-1
 597 0 l 1,1,-1
 372 0 l 1,2,-1
 372 21 l 1,3,-1
 451 40 l 1,4,-1
 453 319 l 2,5,6
 453 396 453 396 420.5 439 c 128,-1,7
 388 482 388 482 327 482 c 0,8,9
 293 482 293 482 262 469.5 c 128,-1,10
 231 457 231 457 207.5 436 c 128,-1,11
 184 415 184 415 170 387.5 c 128,-1,12
 156 360 156 360 156 330 c 2,13,-1
 156 40 l 1,14,15
 174 35 174 35 196.5 30.5 c 128,-1,16
 219 26 219 26 238 21 c 1,17,-1
 238 0 l 1,18,-1
 11 0 l 1,19,-1
 11 22 l 1,20,-1
 91 38 l 1,21,-1
 91 756 l 1,22,23
 73 759 73 759 51 764.5 c 128,-1,24
 29 770 29 770 9 774 c 1,25,-1
 9 796 l 1,26,-1
 155 796 l 1,27,-1
 156 411 l 1,28,29
 167 433 167 433 188 454.5 c 128,-1,30
 209 476 209 476 236 493.5 c 128,-1,31
 263 511 263 511 294 521.5 c 128,-1,32
 325 532 325 532 357 532 c 0,33,34
 429 532 429 532 473 478.5 c 128,-1,35
 517 425 517 425 517 312 c 2,36,-1
 515 40 l 1,37,-1
 597 22 l 1,0,-1
EndSplineSet
EndChar

StartChar: i
Encoding: 105 105 49
Width: 239
Flags: W
LayerCount: 2
Fore
SplineSet
73 710 m 1,0,-1
 73 795 l 1,1,-1
 158 795 l 1,2,-1
 158 710 l 1,3,-1
 73 710 l 1,0,-1
10 496 m 1,4,-1
 10 517 l 1,5,-1
 158 517 l 1,6,-1
 158 40 l 1,7,-1
 238 21 l 1,8,-1
 238 0 l 1,9,-1
 10 0 l 1,10,-1
 10 21 l 1,11,-1
 90 40 l 1,12,-1
 90 477 l 1,13,-1
 10 496 l 1,4,-1
EndSplineSet
EndChar

StartChar: j
Encoding: 106 106 50
Width: 241
Flags: W
LayerCount: 2
Fore
SplineSet
158 710 m 1,0,-1
 74 710 l 1,1,-1
 74 795 l 1,2,-1
 158 795 l 1,3,-1
 158 710 l 1,0,-1
158 -17 m 2,4,5
 158 -75 158 -75 143 -112 c 128,-1,6
 128 -149 128 -149 107 -171 c 128,-1,7
 86 -193 86 -193 63.5 -202.5 c 128,-1,8
 41 -212 41 -212 26 -215 c 1,9,-1
 26 -170 l 1,10,11
 58 -139 58 -139 74 -105 c 128,-1,12
 90 -71 90 -71 90 -27 c 2,13,-1
 90 477 l 1,14,-1
 10 496 l 1,15,-1
 10 517 l 1,16,-1
 158 517 l 1,17,-1
 158 -17 l 2,4,5
EndSplineSet
EndChar

StartChar: k
Encoding: 107 107 51
Width: 557
Flags: W
LayerCount: 2
Fore
SplineSet
557 21 m 1,0,-1
 557 0 l 1,1,-1
 330 0 l 1,2,-1
 330 21 l 1,3,-1
 408 37 l 1,4,-1
 305 171 l 1,5,-1
 244 145 l 1,6,-1
 244 197 l 1,7,8
 276 211 276 211 313.5 231 c 128,-1,9
 351 251 351 251 383 276.5 c 128,-1,10
 415 302 415 302 436 333 c 128,-1,11
 457 364 457 364 457 400 c 0,12,13
 457 446 457 446 429.5 473 c 128,-1,14
 402 500 402 500 360 500 c 0,15,16
 328 500 328 500 293 483 c 128,-1,17
 258 466 258 466 228.5 438 c 128,-1,18
 199 410 199 410 179.5 374 c 128,-1,19
 160 338 160 338 159 300 c 1,20,-1
 159 40 l 1,21,22
 176 35 176 35 198 30.5 c 128,-1,23
 220 26 220 26 238 21 c 1,24,-1
 238 0 l 1,25,-1
 10 0 l 1,26,-1
 10 21 l 1,27,-1
 89 40 l 1,28,-1
 89 755 l 1,29,30
 72 759 72 759 50 764 c 128,-1,31
 28 769 28 769 10 774 c 1,32,-1
 10 795 l 1,33,-1
 159 795 l 1,34,-1
 159 400 l 1,35,36
 194 466 194 466 247.5 508.5 c 128,-1,37
 301 551 301 551 379 551 c 0,38,39
 411 551 411 551 437 540 c 128,-1,40
 463 529 463 529 481 510 c 128,-1,41
 499 491 499 491 508.5 465.5 c 128,-1,42
 518 440 518 440 518 411 c 0,43,44
 518 355 518 355 475.5 302 c 128,-1,45
 433 249 433 249 363 201 c 1,46,-1
 488 37 l 1,47,-1
 557 21 l 1,0,-1
EndSplineSet
EndChar

StartChar: l
Encoding: 108 108 52
Width: 239
Flags: W
LayerCount: 2
Fore
SplineSet
238 21 m 1,0,-1
 238 0 l 1,1,-1
 11 0 l 1,2,-1
 11 21 l 1,3,-1
 90 40 l 1,4,-1
 90 755 l 1,5,6
 73 759 73 759 51 764 c 128,-1,7
 29 769 29 769 11 774 c 1,8,-1
 11 795 l 1,9,-1
 159 795 l 1,10,-1
 159 40 l 1,11,-1
 238 21 l 1,0,-1
EndSplineSet
EndChar

StartChar: m
Encoding: 109 109 53
Width: 843
Flags: W
LayerCount: 2
Fore
SplineSet
8 496 m 1,0,-1
 8 517 l 1,1,-1
 148 517 l 1,2,-1
 160 417 l 1,3,4
 172 441 172 441 190.5 462 c 128,-1,5
 209 483 209 483 232.5 498.5 c 128,-1,6
 256 514 256 514 281.5 523.5 c 128,-1,7
 307 533 307 533 332 533 c 0,8,9
 350 533 350 533 368.5 527.5 c 128,-1,10
 387 522 387 522 402.5 508.5 c 128,-1,11
 418 495 418 495 430.5 472 c 128,-1,12
 443 449 443 449 449 415 c 1,13,14
 461 439 461 439 481 460 c 128,-1,15
 501 481 501 481 525.5 497.5 c 128,-1,16
 550 514 550 514 578.5 523.5 c 128,-1,17
 607 533 607 533 636 533 c 0,18,19
 700 533 700 533 729.5 482.5 c 128,-1,20
 759 432 759 432 759 324 c 2,21,-1
 761 41 l 1,22,-1
 843 20 l 1,23,-1
 843 0 l 1,24,-1
 698 0 l 1,25,-1
 698 330 l 2,26,27
 698 365 698 365 695 393.5 c 128,-1,28
 692 422 692 422 682 442 c 128,-1,29
 672 462 672 462 653.5 473 c 128,-1,30
 635 484 635 484 605 484 c 0,31,32
 567 484 567 484 539.5 469.5 c 128,-1,33
 512 455 512 455 494.5 432 c 128,-1,34
 477 409 477 409 468.5 379.5 c 128,-1,35
 460 350 460 350 460 320 c 2,36,-1
 460 40 l 1,37,-1
 538 21 l 1,38,-1
 538 0 l 1,39,-1
 392 0 l 1,40,-1
 392 320 l 2,41,42
 392 401 392 401 373.5 442.5 c 128,-1,43
 355 484 355 484 302 484 c 0,44,45
 264 484 264 484 236 469 c 128,-1,46
 208 454 208 454 190 430.5 c 128,-1,47
 172 407 172 407 163 377.5 c 128,-1,48
 154 348 154 348 154 320 c 2,49,-1
 154 41 l 1,50,-1
 237 20 l 1,51,-1
 237 0 l 1,52,-1
 8 0 l 1,53,-1
 8 21 l 1,54,-1
 88 40 l 1,55,-1
 88 477 l 1,56,-1
 8 496 l 1,0,-1
EndSplineSet
EndChar

StartChar: n
Encoding: 110 110 54
Width: 595
Flags: W
LayerCount: 2
Fore
SplineSet
595 22 m 1,0,-1
 595 0 l 1,1,-1
 451 0 l 1,2,-1
 451 319 l 2,3,4
 451 396 451 396 418.5 439 c 128,-1,5
 386 482 386 482 325 482 c 0,6,7
 291 482 291 482 260 469.5 c 128,-1,8
 229 457 229 457 205.5 436 c 128,-1,9
 182 415 182 415 168 387.5 c 128,-1,10
 154 360 154 360 154 330 c 2,11,-1
 154 40 l 1,12,-1
 237 21 l 1,13,-1
 237 0 l 1,14,-1
 9 0 l 1,15,-1
 9 22 l 1,16,-1
 89 38 l 1,17,-1
 89 477 l 1,18,19
 71 481 71 481 49 486 c 128,-1,20
 27 491 27 491 7 495 c 1,21,-1
 7 517 l 1,22,-1
 147 517 l 1,23,-1
 160 415 l 1,24,25
 189 464 189 464 240.5 498 c 128,-1,26
 292 532 292 532 355 532 c 0,27,28
 427 532 427 532 471 478.5 c 128,-1,29
 515 425 515 425 515 312 c 2,30,-1
 515 40 l 1,31,-1
 595 22 l 1,0,-1
EndSplineSet
EndChar

StartChar: o
Encoding: 111 111 55
Width: 585
Flags: W
LayerCount: 2
Fore
SplineSet
131 261 m 0,0,1
 131 179 131 179 148 132.5 c 128,-1,2
 165 86 165 86 191 63 c 128,-1,3
 217 40 217 40 248 34.5 c 128,-1,4
 279 29 279 29 307 29 c 0,5,6
 329 29 329 29 356.5 33 c 128,-1,7
 384 37 384 37 409 58.5 c 128,-1,8
 434 80 434 80 451 127 c 128,-1,9
 468 174 468 174 468 261 c 0,10,11
 468 345 468 345 451 391 c 128,-1,12
 434 437 434 437 408.5 458 c 128,-1,13
 383 479 383 479 353 483 c 128,-1,14
 323 487 323 487 298 487 c 0,15,16
 271 487 271 487 242 484 c 128,-1,17
 213 481 213 481 188 460 c 128,-1,18
 163 439 163 439 147 393 c 128,-1,19
 131 347 131 347 131 261 c 0,0,1
298 533 m 0,20,21
 369 533 369 533 416.5 511.5 c 128,-1,22
 464 490 464 490 492.5 453 c 128,-1,23
 521 416 521 416 533 366.5 c 128,-1,24
 545 317 545 317 545 261 c 0,25,26
 545 193 545 193 533.5 141 c 128,-1,27
 522 89 522 89 494.5 54 c 128,-1,28
 467 19 467 19 421 1 c 128,-1,29
 375 -17 375 -17 307 -17 c 0,30,31
 238 -17 238 -17 191 5.5 c 128,-1,32
 144 28 144 28 115 66.5 c 128,-1,33
 86 105 86 105 73 155 c 128,-1,34
 60 205 60 205 60 261 c 0,35,36
 60 326 60 326 72.5 376.5 c 128,-1,37
 85 427 85 427 113 462 c 128,-1,38
 141 497 141 497 186.5 515 c 128,-1,39
 232 533 232 533 298 533 c 0,20,21
EndSplineSet
EndChar

StartChar: p
Encoding: 112 112 56
Width: 571
Flags: W
LayerCount: 2
Fore
SplineSet
154 74 m 1,0,1
 185 60 185 60 216.5 49 c 128,-1,2
 248 38 248 38 295 38 c 0,3,4
 347 38 347 38 379.5 57.5 c 128,-1,5
 412 77 412 77 430 107 c 128,-1,6
 448 137 448 137 454 173 c 128,-1,7
 460 209 460 209 459 242 c 1,8,9
 459 297 459 297 453.5 342.5 c 128,-1,10
 448 388 448 388 434.5 420 c 128,-1,11
 421 452 421 452 399 470 c 128,-1,12
 377 488 377 488 344 488 c 0,13,14
 296 488 296 488 260.5 460 c 128,-1,15
 225 432 225 432 201.5 392.5 c 128,-1,16
 178 353 178 353 166 311 c 128,-1,17
 154 269 154 269 154 242 c 2,18,-1
 154 74 l 1,0,1
232 -191 m 1,19,-1
 232 -213 l 1,20,-1
 11 -213 l 1,21,-1
 11 -190 l 1,22,-1
 88 -175 l 1,23,-1
 88 477 l 1,24,25
 71 481 71 481 49.5 486 c 128,-1,26
 28 491 28 491 9 495 c 1,27,-1
 9 517 l 1,28,-1
 154 517 l 1,29,-1
 154 399 l 1,30,31
 167 426 167 426 186 450 c 128,-1,32
 205 474 205 474 230.5 492 c 128,-1,33
 256 510 256 510 288.5 521 c 128,-1,34
 321 532 321 532 361 532 c 0,35,36
 400 532 400 532 430.5 518.5 c 128,-1,37
 461 505 461 505 482 472 c 128,-1,38
 503 439 503 439 514 383 c 128,-1,39
 525 327 525 327 525 242 c 0,40,41
 525 167 525 167 507 118.5 c 128,-1,42
 489 70 489 70 459 41 c 128,-1,43
 429 12 429 12 391 0.5 c 128,-1,44
 353 -11 353 -11 313 -11 c 0,45,46
 286 -11 286 -11 243 -4 c 128,-1,47
 200 3 200 3 154 20 c 1,48,-1
 154 -176 l 1,49,-1
 232 -191 l 1,19,-1
EndSplineSet
EndChar

StartChar: q
Encoding: 113 113 57
Width: 566
Flags: W
LayerCount: 2
Fore
SplineSet
235 29 m 0,0,1
 281 29 281 29 316 49.5 c 128,-1,2
 351 70 351 70 374.5 100 c 128,-1,3
 398 130 398 130 409.5 164 c 128,-1,4
 421 198 421 198 421 225 c 2,5,-1
 421 448 l 1,6,7
 389 465 389 465 353.5 476 c 128,-1,8
 318 487 318 487 282 487 c 0,9,10
 231 487 231 487 200 466 c 128,-1,11
 169 445 169 445 152.5 412 c 128,-1,12
 136 379 136 379 130.5 338.5 c 128,-1,13
 125 298 125 298 125 259 c 256,14,15
 125 220 125 220 128.5 179 c 128,-1,16
 132 138 132 138 143.5 104.5 c 128,-1,17
 155 71 155 71 176.5 50 c 128,-1,18
 198 29 198 29 235 29 c 0,0,1
566 -190 m 1,19,-1
 566 -212 l 1,20,-1
 342 -212 l 1,21,-1
 342 -190 l 1,22,-1
 421 -174 l 1,23,-1
 421 104 l 1,24,25
 413 89 413 89 396 68 c 128,-1,26
 379 47 379 47 355 28.5 c 128,-1,27
 331 10 331 10 300 -3 c 128,-1,28
 269 -16 269 -16 235 -16 c 0,29,30
 187 -16 187 -16 154 3.5 c 128,-1,31
 121 23 121 23 100.5 58.5 c 128,-1,32
 80 94 80 94 70.5 145 c 128,-1,33
 61 196 61 196 61 259 c 0,34,35
 61 400 61 400 118.5 463.5 c 128,-1,36
 176 527 176 527 306 527 c 0,37,38
 337 527 337 527 365 522 c 128,-1,39
 393 517 393 517 416.5 510.5 c 128,-1,40
 440 504 440 504 457.5 496.5 c 128,-1,41
 475 489 475 489 487 484 c 1,42,-1
 487 -173 l 1,43,-1
 566 -190 l 1,19,-1
EndSplineSet
EndChar

StartChar: r
Encoding: 114 114 58
Width: 388
Flags: W
LayerCount: 2
Fore
SplineSet
5 496 m 1,0,-1
 5 517 l 1,1,-1
 137 517 l 1,2,-1
 162 408 l 1,3,4
 168 441 168 441 182.5 464.5 c 128,-1,5
 197 488 197 488 215.5 503 c 128,-1,6
 234 518 234 518 255 525 c 128,-1,7
 276 532 276 532 296 532 c 0,8,9
 326 532 326 532 346 527.5 c 128,-1,10
 366 523 366 523 377 518 c 1,11,12
 375 486 375 486 373.5 458 c 128,-1,13
 372 430 372 430 370 398 c 1,14,-1
 348 398 l 1,15,-1
 330 477 l 1,16,17
 319 479 319 479 308.5 479.5 c 128,-1,18
 298 480 298 480 296 480 c 0,19,20
 272 480 272 480 246.5 474.5 c 128,-1,21
 221 469 221 469 200 446 c 128,-1,22
 179 423 179 423 165 376.5 c 128,-1,23
 151 330 151 330 151 249 c 2,24,-1
 151 38 l 1,25,26
 171 34 171 34 183.5 31 c 128,-1,27
 196 28 196 28 204.5 26 c 128,-1,28
 213 24 213 24 218 23 c 128,-1,29
 223 22 223 22 227 21 c 1,30,-1
 227 0 l 1,31,-1
 9 0 l 1,32,-1
 9 21 l 1,33,-1
 83 38 l 1,34,-1
 83 477 l 1,35,-1
 5 496 l 1,0,-1
EndSplineSet
EndChar

StartChar: s
Encoding: 115 115 59
Width: 492
Flags: W
LayerCount: 2
Fore
SplineSet
388 454 m 1,0,1
 349 468 349 468 310 477 c 128,-1,2
 271 486 271 486 242 486 c 0,3,4
 221 486 221 486 202 482.5 c 128,-1,5
 183 479 183 479 168 469.5 c 128,-1,6
 153 460 153 460 144 442 c 128,-1,7
 135 424 135 424 135 395 c 0,8,9
 135 371 135 371 142.5 355.5 c 128,-1,10
 150 340 150 340 165 330 c 128,-1,11
 180 320 180 320 202.5 313 c 128,-1,12
 225 306 225 306 254 299 c 0,13,14
 362 275 362 275 414 239.5 c 128,-1,15
 466 204 466 204 466 143 c 0,16,17
 466 68 466 68 411 26.5 c 128,-1,18
 356 -15 356 -15 264 -15 c 0,19,20
 226 -15 226 -15 193 -9 c 128,-1,21
 160 -3 160 -3 133.5 5.5 c 128,-1,22
 107 14 107 14 87.5 22.5 c 128,-1,23
 68 31 68 31 58 37 c 1,24,25
 58 39 58 39 58 42 c 128,-1,26
 58 45 58 45 59 56 c 128,-1,27
 60 67 60 67 61.5 89.5 c 128,-1,28
 63 112 63 112 65 152 c 1,29,-1
 86 152 l 1,30,-1
 104 80 l 1,31,32
 140 63 140 63 182.5 49 c 128,-1,33
 225 35 225 35 263 35 c 0,34,35
 290 35 290 35 314.5 39.5 c 128,-1,36
 339 44 339 44 357.5 56 c 128,-1,37
 376 68 376 68 386.5 88.5 c 128,-1,38
 397 109 397 109 397 140 c 0,39,40
 397 163 397 163 381 180.5 c 128,-1,41
 365 198 365 198 339 211.5 c 128,-1,42
 313 225 313 225 278.5 234.5 c 128,-1,43
 244 244 244 244 207 252 c 0,44,45
 137 266 137 266 101 304.5 c 128,-1,46
 65 343 65 343 65 395 c 0,47,48
 65 411 65 411 71.5 433.5 c 128,-1,49
 78 456 78 456 97 477 c 128,-1,50
 116 498 116 498 150.5 513 c 128,-1,51
 185 528 185 528 241 528 c 0,52,53
 276 528 276 528 306.5 523 c 128,-1,54
 337 518 337 518 362 511 c 128,-1,55
 387 504 387 504 404.5 496.5 c 128,-1,56
 422 489 422 489 432 485 c 1,57,58
 430 457 430 457 430 432 c 128,-1,59
 430 407 430 407 428 381 c 1,60,-1
 406 381 l 1,61,-1
 388 454 l 1,0,1
EndSplineSet
EndChar

StartChar: u
Encoding: 117 117 60
Width: 594
Flags: W
LayerCount: 2
Fore
SplineSet
340 497 m 1,0,-1
 340 517 l 1,1,-1
 515 517 l 1,2,-1
 515 40 l 1,3,-1
 595 21 l 1,4,-1
 595 0 l 1,5,-1
 455 0 l 1,6,-1
 443 97 l 1,7,8
 429 70 429 70 406.5 48.5 c 128,-1,9
 384 27 384 27 357 12 c 128,-1,10
 330 -3 330 -3 301.5 -10.5 c 128,-1,11
 273 -18 273 -18 247 -18 c 0,12,13
 214 -18 214 -18 184.5 -7 c 128,-1,14
 155 4 155 4 132.5 29 c 128,-1,15
 110 54 110 54 97 95 c 128,-1,16
 84 136 84 136 84 196 c 2,17,-1
 84 477 l 1,18,-1
 8 496 l 1,19,-1
 8 517 l 1,20,-1
 151 517 l 1,21,-1
 151 187 l 2,22,23
 151 149 151 149 156.5 119 c 128,-1,24
 162 89 162 89 175 68.5 c 128,-1,25
 188 48 188 48 210 37.5 c 128,-1,26
 232 27 232 27 265 27 c 256,27,28
 298 27 298 27 331 39 c 128,-1,29
 364 51 364 51 390.5 74 c 128,-1,30
 417 97 417 97 433.5 129.5 c 128,-1,31
 450 162 450 162 450 203 c 2,32,-1
 450 480 l 1,33,-1
 340 497 l 1,0,-1
EndSplineSet
EndChar

StartChar: v
Encoding: 118 118 61
Width: 553
Flags: W
LayerCount: 2
Fore
SplineSet
-14 494 m 1,0,-1
 -14 517 l 1,1,-1
 210 517 l 1,2,-1
 210 496 l 1,3,-1
 127 476 l 1,4,-1
 282 36 l 1,5,-1
 436 477 l 1,6,-1
 367 495 l 1,7,-1
 367 517 l 1,8,-1
 578 517 l 1,9,-1
 578 497 l 1,10,-1
 504 480 l 1,11,-1
 320 0 l 1,12,-1
 241 0 l 1,13,-1
 60 480 l 1,14,-1
 -14 494 l 1,0,-1
EndSplineSet
EndChar

StartChar: w
Encoding: 119 119 62
Width: 794
Flags: W
LayerCount: 2
Fore
SplineSet
356 517 m 1,0,-1
 433 517 l 1,1,-1
 576 49 l 1,2,-1
 681 479 l 1,3,-1
 594 494 l 1,4,-1
 594 517 l 1,5,-1
 820 517 l 1,6,-1
 820 494 l 1,7,-1
 743 480 l 1,8,9
 741 473 741 473 620 0 c 1,10,-1
 543 0 l 1,11,-1
 395 482 l 1,12,-1
 248 0 l 1,13,-1
 171 0 l 1,14,15
 50 473 50 473 48 480 c 1,16,-1
 -29 494 l 1,17,-1
 -29 517 l 1,18,-1
 197 517 l 1,19,-1
 197 494 l 1,20,-1
 110 479 l 1,21,-1
 215 49 l 1,22,-1
 356 517 l 1,0,-1
EndSplineSet
EndChar

StartChar: x
Encoding: 120 120 63
Width: 546
Flags: W
LayerCount: 2
Fore
SplineSet
219 496 m 1,0,-1
 162 476 l 1,1,-1
 273 302 l 1,2,-1
 389 477 l 1,3,-1
 334 496 l 1,4,-1
 334 517 l 1,5,-1
 531 517 l 1,6,-1
 531 497 l 1,7,-1
 461 480 l 1,8,-1
 314 261 l 1,9,-1
 474 37 l 1,10,-1
 547 20 l 1,11,-1
 547 0 l 1,12,-1
 350 0 l 1,13,-1
 350 21 l 1,14,-1
 401 41 l 1,15,-1
 275 226 l 1,16,-1
 151 41 l 1,17,-1
 200 21 l 1,18,-1
 200 0 l 1,19,-1
 6 0 l 1,20,-1
 6 20 l 1,21,-1
 77 37 l 1,22,-1
 238 260 l 1,23,-1
 93 480 l 1,24,-1
 25 497 l 1,25,-1
 25 517 l 1,26,-1
 219 517 l 1,27,-1
 219 496 l 1,0,-1
EndSplineSet
EndChar

StartChar: y
Encoding: 121 121 64
Width: 570
Flags: W
LayerCount: 2
Fore
SplineSet
525 480 m 1,0,-1
 292 -174 l 1,1,-1
 381 -192 l 1,2,-1
 381 -214 l 1,3,-1
 153 -214 l 1,4,-1
 153 -193 l 1,5,-1
 230 -177 l 1,6,-1
 271 -58 l 1,7,-1
 55 480 l 1,8,-1
 -18 494 l 1,9,-1
 -18 517 l 1,10,-1
 206 517 l 1,11,-1
 206 497 l 1,12,-1
 123 479 l 1,13,-1
 301 -3 l 1,14,-1
 457 476 l 1,15,-1
 374 495 l 1,16,-1
 374 517 l 1,17,-1
 598 517 l 1,18,-1
 598 497 l 1,19,-1
 525 480 l 1,0,-1
EndSplineSet
EndChar

StartChar: z
Encoding: 122 122 65
Width: 478
Flags: W
LayerCount: 2
Fore
SplineSet
417 132 m 1,0,-1
 438 132 l 1,1,-1
 450 0 l 1,2,-1
 46 0 l 1,3,-1
 46 53 l 1,4,-1
 373 473 l 1,5,-1
 96 473 l 1,6,-1
 77 394 l 1,7,-1
 55 394 l 1,8,-1
 48 517 l 1,9,-1
 457 517 l 1,10,-1
 458 475 l 1,11,-1
 130 53 l 1,12,-1
 399 53 l 1,13,-1
 417 132 l 1,0,-1
EndSplineSet
EndChar

StartChar: section
Encoding: 167 167 66
Width: 576
Flags: W
LayerCount: 2
Fore
SplineSet
245 419 m 0,0,1
 224 419 224 419 204 408 c 128,-1,2
 184 397 184 397 169 379 c 128,-1,3
 154 361 154 361 144.5 337 c 128,-1,4
 135 313 135 313 135 288 c 0,5,6
 135 239 135 239 140 206 c 128,-1,7
 145 173 145 173 164.5 152.5 c 128,-1,8
 184 132 184 132 221.5 123.5 c 128,-1,9
 259 115 259 115 325 115 c 0,10,11
 352 115 352 115 376 125.5 c 128,-1,12
 400 136 400 136 419 156 c 128,-1,13
 438 176 438 176 449 204 c 128,-1,14
 460 232 460 232 460 267 c 0,15,16
 460 318 460 318 446.5 347.5 c 128,-1,17
 433 377 433 377 406.5 392.5 c 128,-1,18
 380 408 380 408 339.5 412.5 c 128,-1,19
 299 417 299 417 245 419 c 0,0,1
456 668 m 1,20,21
 418 680 418 680 378.5 691 c 128,-1,22
 339 702 339 702 310 702 c 0,23,24
 289 702 289 702 269.5 699 c 128,-1,25
 250 696 250 696 235 687 c 128,-1,26
 220 678 220 678 210.5 660.5 c 128,-1,27
 201 643 201 643 201 614 c 0,28,29
 201 563 201 563 241 521 c 128,-1,30
 281 479 281 479 373 459 c 0,31,32
 405 452 405 452 433.5 439 c 128,-1,33
 462 426 462 426 483.5 403.5 c 128,-1,34
 505 381 505 381 517.5 347.5 c 128,-1,35
 530 314 530 314 530 267 c 0,36,37
 530 190 530 190 490.5 144 c 128,-1,38
 451 98 451 98 364 77 c 1,39,40
 391 68 391 68 415.5 54 c 128,-1,41
 440 40 440 40 458.5 22 c 128,-1,42
 477 4 477 4 487.5 -17.5 c 128,-1,43
 498 -39 498 -39 498 -62 c 0,44,45
 498 -99 498 -99 482.5 -127 c 128,-1,46
 467 -155 467 -155 439.5 -174 c 128,-1,47
 412 -193 412 -193 374.5 -203 c 128,-1,48
 337 -213 337 -213 293 -213 c 0,49,50
 254 -213 254 -213 221 -207 c 128,-1,51
 188 -201 188 -201 162 -192 c 128,-1,52
 136 -183 136 -183 117.5 -173.5 c 128,-1,53
 99 -164 99 -164 89 -158 c 1,54,55
 91 -131 91 -131 92.5 -101 c 128,-1,56
 94 -71 94 -71 96 -45 c 1,57,-1
 117 -45 l 1,58,-1
 134 -117 l 1,59,60
 170 -137 170 -137 213 -150 c 128,-1,61
 256 -163 256 -163 293 -163 c 0,62,63
 320 -163 320 -163 344.5 -159 c 128,-1,64
 369 -155 369 -155 387.5 -144 c 128,-1,65
 406 -133 406 -133 417.5 -113.5 c 128,-1,66
 429 -94 429 -94 429 -62 c 0,67,68
 429 -38 429 -38 414 -14 c 128,-1,69
 399 10 399 10 373 28.5 c 128,-1,70
 347 47 347 47 313 59 c 128,-1,71
 279 71 279 71 242 71 c 0,72,73
 196 71 196 71 163 86 c 128,-1,74
 130 101 130 101 108.5 127.5 c 128,-1,75
 87 154 87 154 76.5 190 c 128,-1,76
 66 226 66 226 66 267 c 0,77,78
 66 289 66 289 73 321.5 c 128,-1,79
 80 354 80 354 98.5 385 c 128,-1,80
 117 416 117 416 148.5 439.5 c 128,-1,81
 180 463 180 463 230 468 c 1,82,83
 208 479 208 479 189.5 494 c 128,-1,84
 171 509 171 509 158 525.5 c 128,-1,85
 145 542 145 542 138 559.5 c 128,-1,86
 131 577 131 577 131 593 c 0,87,88
 131 621 131 621 138 648.5 c 128,-1,89
 145 676 145 676 164.5 697.5 c 128,-1,90
 184 719 184 719 219 732 c 128,-1,91
 254 745 254 745 310 745 c 0,92,93
 346 745 346 745 377 740 c 128,-1,94
 408 735 408 735 432.5 727.5 c 128,-1,95
 457 720 457 720 475 712 c 128,-1,96
 493 704 493 704 503 699 c 1,97,-1
 493 594 l 1,98,99
 486 594 486 594 482.5 594.5 c 128,-1,100
 479 595 479 595 474 595 c 1,101,-1
 456 668 l 1,20,21
EndSplineSet
EndChar

StartChar: germandbls
Encoding: 223 223 67
Width: 592
Flags: W
LayerCount: 2
Fore
SplineSet
159 0 m 1,0,-1
 11 0 l 1,1,-1
 11 21 l 1,2,-1
 89 40 l 1,3,-1
 89 450 l 2,4,5
 89 513 89 513 93 568 c 128,-1,6
 97 623 97 623 116.5 664 c 128,-1,7
 136 705 136 705 176.5 728.5 c 128,-1,8
 217 752 217 752 291 752 c 0,9,10
 321 752 321 752 357 745 c 128,-1,11
 393 738 393 738 424.5 717.5 c 128,-1,12
 456 697 456 697 477 660 c 128,-1,13
 498 623 498 623 498 564 c 0,14,15
 498 538 498 538 489.5 510.5 c 128,-1,16
 481 483 481 483 463.5 458.5 c 128,-1,17
 446 434 446 434 419.5 416.5 c 128,-1,18
 393 399 393 399 357 395 c 1,19,20
 391 391 391 391 422.5 374.5 c 128,-1,21
 454 358 454 358 478 332.5 c 128,-1,22
 502 307 502 307 516.5 273.5 c 128,-1,23
 531 240 531 240 531 203 c 0,24,25
 531 134 531 134 508 93 c 128,-1,26
 485 52 485 52 448.5 29.5 c 128,-1,27
 412 7 412 7 367.5 -0.5 c 128,-1,28
 323 -8 323 -8 280 -8 c 1,29,30
 284 29 284 29 286.5 63.5 c 128,-1,31
 289 98 289 98 292 133 c 1,32,-1
 313 133 l 1,33,-1
 332 47 l 1,34,35
 453 89 453 89 453 205 c 0,36,37
 453 231 453 231 450 254 c 128,-1,38
 447 277 447 277 430.5 298 c 128,-1,39
 414 319 414 319 380 337.5 c 128,-1,40
 346 356 346 356 283 372 c 1,41,-1
 283 425 l 1,42,43
 359 428 359 428 399.5 460.5 c 128,-1,44
 440 493 440 493 440 565 c 0,45,46
 440 604 440 604 427.5 630 c 128,-1,47
 415 656 415 656 394.5 671.5 c 128,-1,48
 374 687 374 687 347 693.5 c 128,-1,49
 320 700 320 700 291 700 c 0,50,51
 248 700 248 700 222 689 c 128,-1,52
 196 678 196 678 182 653.5 c 128,-1,53
 168 629 168 629 163.5 590.5 c 128,-1,54
 159 552 159 552 159 498 c 2,55,-1
 159 0 l 1,0,-1
EndSplineSet
EndChar

StartChar: AE
Encoding: 198 198 68
Width: 1051
Flags: W
LayerCount: 2
Fore
SplineSet
958 674 m 1,0,-1
 655 674 l 1,1,2
 655 600 655 600 656 529.5 c 128,-1,3
 657 459 657 459 657 385 c 1,4,-1
 912 385 l 1,5,-1
 912 342 l 1,6,-1
 657 342 l 1,7,-1
 658 43 l 1,8,-1
 991 43 l 1,9,-1
 1008 120 l 1,10,-1
 1027 120 l 1,11,-1
 1027 0 l 1,12,-1
 588 0 l 1,13,-1
 588 273 l 1,14,-1
 293 273 l 1,15,-1
 119 42 l 1,16,17
 139 38 139 38 164.5 31.5 c 128,-1,18
 190 25 190 25 211 20 c 1,19,-1
 211 0 l 1,20,-1
 -11 0 l 1,21,-1
 -11 20 l 1,22,-1
 59 37 l 1,23,-1
 556 716 l 1,24,-1
 1003 716 l 1,25,26
 1000 678 1000 678 998.5 645 c 128,-1,27
 997 612 997 612 995 576 c 1,28,-1
 975 576 l 1,29,-1
 958 674 l 1,0,-1
317 315 m 1,30,-1
 588 315 l 1,31,-1
 588 687 l 1,32,-1
 317 315 l 1,30,-1
EndSplineSet
EndChar

StartChar: ae
Encoding: 230 230 69
Width: 846
Flags: W
LayerCount: 2
Fore
SplineSet
245 491 m 0,0,1
 215 491 215 491 190 482.5 c 128,-1,2
 165 474 165 474 145.5 461 c 128,-1,3
 126 448 126 448 112 434 c 128,-1,4
 98 420 98 420 90 409 c 1,5,6
 68 426 68 426 59.5 432.5 c 128,-1,7
 51 439 51 439 46 443 c 1,8,9
 68 469 68 469 93.5 486 c 128,-1,10
 119 503 119 503 145 513.5 c 128,-1,11
 171 524 171 524 196.5 528 c 128,-1,12
 222 532 222 532 245 532 c 0,13,14
 310 532 310 532 358.5 508 c 128,-1,15
 407 484 407 484 445 440 c 1,16,17
 526 532 526 532 639 532 c 0,18,19
 687 532 687 532 726.5 517.5 c 128,-1,20
 766 503 766 503 793 471.5 c 128,-1,21
 820 440 820 440 833.5 390 c 128,-1,22
 847 340 847 340 845 270 c 1,23,24
 839 270 839 270 804 269.5 c 128,-1,25
 769 269 769 269 717.5 267.5 c 128,-1,26
 666 266 666 266 603 263 c 128,-1,27
 540 260 540 260 477 254 c 1,28,29
 477 201 477 201 480 158.5 c 128,-1,30
 483 116 483 116 498.5 86.5 c 128,-1,31
 514 57 514 57 547 41 c 128,-1,32
 580 25 580 25 640 25 c 0,33,34
 670 25 670 25 694.5 33.5 c 128,-1,35
 719 42 719 42 738.5 55 c 128,-1,36
 758 68 758 68 772 82 c 128,-1,37
 786 96 786 96 794 107 c 1,38,39
 806 98 806 98 815.5 88.5 c 128,-1,40
 825 79 825 79 836 71 c 1,41,42
 813 44 813 44 788.5 27 c 128,-1,43
 764 10 764 10 739 0.5 c 128,-1,44
 714 -9 714 -9 689 -12.5 c 128,-1,45
 664 -16 664 -16 640 -16 c 0,46,47
 574 -16 574 -16 525.5 8 c 128,-1,48
 477 32 477 32 436 74 c 1,49,50
 357 -16 357 -16 246 -16 c 0,51,52
 198 -16 198 -16 159.5 -3 c 128,-1,53
 121 10 121 10 94 39 c 128,-1,54
 67 68 67 68 53 113.5 c 128,-1,55
 39 159 39 159 40 225 c 1,56,-1
 408 260 l 1,57,58
 408 313 408 313 405 356 c 128,-1,59
 402 399 402 399 386.5 429 c 128,-1,60
 371 459 371 459 338 475 c 128,-1,61
 305 491 305 491 245 491 c 0,0,1
787 320 m 1,62,63
 784 351 784 351 775 381 c 128,-1,64
 766 411 766 411 748.5 434.5 c 128,-1,65
 731 458 731 458 704 472 c 128,-1,66
 677 486 677 486 639 486 c 0,67,68
 595 486 595 486 566 467 c 128,-1,69
 537 448 537 448 520 420 c 128,-1,70
 503 392 503 392 495 360.5 c 128,-1,71
 487 329 487 329 486 304 c 1,72,-1
 787 320 l 1,62,63
99 181 m 1,73,74
 100 160 100 160 109 133.5 c 128,-1,75
 118 107 118 107 135 84 c 128,-1,76
 152 61 152 61 179.5 45.5 c 128,-1,77
 207 30 207 30 246 30 c 0,78,79
 291 30 291 30 319.5 48.5 c 128,-1,80
 348 67 348 67 365.5 94.5 c 128,-1,81
 383 122 383 122 390.5 153.5 c 128,-1,82
 398 185 398 185 400 210 c 1,83,-1
 99 181 l 1,73,74
EndSplineSet
EndChar

StartChar: questiondown
Encoding: 191 191 70
Width: 582
Flags: W
LayerCount: 2
Fore
SplineSet
386 433 m 1,0,-1
 301 433 l 1,1,-1
 301 517 l 1,2,-1
 386 517 l 1,3,-1
 386 433 l 1,0,-1
529 -201 m 1,4,5
 483 -218 483 -218 434 -225 c 128,-1,6
 385 -232 385 -232 337 -232 c 0,7,8
 284 -232 284 -232 239 -222 c 128,-1,9
 194 -212 194 -212 161 -191 c 128,-1,10
 128 -170 128 -170 109 -136.5 c 128,-1,11
 90 -103 90 -103 90 -56 c 0,12,13
 90 -24 90 -24 100 1.5 c 128,-1,14
 110 27 110 27 126.5 48 c 128,-1,15
 143 69 143 69 163 86 c 128,-1,16
 183 103 183 103 204 120 c 0,17,18
 226 137 226 137 247 155 c 128,-1,19
 268 173 268 173 285 194 c 128,-1,20
 302 215 302 215 314 240 c 128,-1,21
 326 265 326 265 329 296 c 1,22,-1
 369 296 l 1,23,24
 366 255 366 255 354.5 224 c 128,-1,25
 343 193 343 193 326.5 169 c 128,-1,26
 310 145 310 145 291 127 c 128,-1,27
 272 109 272 109 254 96 c 0,28,29
 236 82 236 82 219.5 67.5 c 128,-1,30
 203 53 203 53 190 35 c 128,-1,31
 177 17 177 17 169 -5 c 128,-1,32
 161 -27 161 -27 161 -56 c 0,33,34
 161 -111 161 -111 202.5 -146 c 128,-1,35
 244 -181 244 -181 337 -181 c 0,36,37
 351 -181 351 -181 369.5 -179 c 128,-1,38
 388 -177 388 -177 408 -173.5 c 128,-1,39
 428 -170 428 -170 447 -165 c 128,-1,40
 466 -160 466 -160 481 -155 c 1,41,-1
 468 -16 l 1,42,-1
 489 -16 l 1,43,-1
 529 -201 l 1,4,5
EndSplineSet
EndChar

StartChar: exclamdown
Encoding: 161 161 71
Width: 284
Flags: W
LayerCount: 2
Fore
SplineSet
181 -2 m 1,0,-1
 181 -215 l 1,1,-1
 110 -215 l 1,2,-1
 110 -2 l 1,3,-1
 135 292 l 1,4,-1
 156 292 l 1,5,-1
 181 -2 l 1,0,-1
106 516 m 1,6,-1
 191 516 l 1,7,-1
 191 432 l 1,8,-1
 106 432 l 1,9,-1
 106 516 l 1,6,-1
EndSplineSet
EndChar

StartChar: fi
Encoding: 64257 64257 72
Width: 626
Flags: W
LayerCount: 2
Fore
SplineSet
640 20 m 1,0,-1
 640 0 l 1,1,-1
 414 0 l 1,2,-1
 414 20 l 1,3,-1
 493 36 l 1,4,-1
 493 474 l 1,5,-1
 175 474 l 1,6,-1
 175 37 l 1,7,-1
 258 20 l 1,8,-1
 258 0 l 1,9,-1
 31 0 l 1,10,-1
 31 20 l 1,11,-1
 111 36 l 1,12,-1
 111 474 l 1,13,-1
 32 474 l 1,14,-1
 32 517 l 1,15,-1
 111 517 l 1,16,-1
 111 610 l 2,17,18
 111 664 111 664 126 703.5 c 128,-1,19
 141 743 141 743 166.5 769 c 128,-1,20
 192 795 192 795 227 807.5 c 128,-1,21
 262 820 262 820 301 820 c 0,22,23
 331 820 331 820 355 815.5 c 128,-1,24
 379 811 379 811 399.5 804 c 128,-1,25
 420 797 420 797 438 788 c 128,-1,26
 456 779 456 779 474 770 c 1,27,-1
 474 805 l 1,28,-1
 562 805 l 1,29,-1
 562 716 l 1,30,-1
 461 716 l 1,31,32
 447 728 447 728 429 739 c 128,-1,33
 411 750 411 750 391 758.5 c 128,-1,34
 371 767 371 767 350 772.5 c 128,-1,35
 329 778 329 778 310 778 c 0,36,37
 271 778 271 778 244.5 761 c 128,-1,38
 218 744 218 744 202.5 718.5 c 128,-1,39
 187 693 187 693 180.5 663 c 128,-1,40
 174 633 174 633 174 606 c 2,41,-1
 174 517 l 1,42,-1
 562 517 l 1,43,-1
 562 37 l 1,44,-1
 640 20 l 1,0,-1
EndSplineSet
Ligature2: "'liga' Standard Ligatures in Latin lookup 0 subtable" f i
EndChar

StartChar: fl
Encoding: 64258 64258 73
Width: 622
Flags: W
LayerCount: 2
Fore
SplineSet
266 21 m 1,0,-1
 266 0 l 1,1,-1
 39 0 l 1,2,-1
 39 21 l 1,3,-1
 118 40 l 1,4,-1
 118 475 l 1,5,-1
 30 475 l 1,6,-1
 30 519 l 1,7,-1
 118 519 l 1,8,-1
 118 608 l 2,9,10
 118 672 118 672 132 713.5 c 128,-1,11
 146 755 146 755 171 779.5 c 128,-1,12
 196 804 196 804 231.5 813.5 c 128,-1,13
 267 823 267 823 310 823 c 256,14,15
 353 823 353 823 397 815.5 c 128,-1,16
 441 808 441 808 477 787.5 c 128,-1,17
 513 767 513 767 535.5 730.5 c 128,-1,18
 558 694 558 694 558 635 c 2,19,-1
 558 40 l 1,20,21
 575 35 575 35 597 30.5 c 128,-1,22
 619 26 619 26 637 21 c 1,23,-1
 637 0 l 1,24,-1
 411 0 l 1,25,-1
 411 21 l 1,26,-1
 489 40 l 1,27,-1
 489 635 l 2,28,29
 489 671 489 671 475 696.5 c 128,-1,30
 461 722 461 722 438 738.5 c 128,-1,31
 415 755 415 755 383.5 763 c 128,-1,32
 352 771 352 771 318 771 c 0,33,34
 278 770 278 770 252 757 c 128,-1,35
 226 744 226 744 211 722 c 128,-1,36
 196 700 196 700 190.5 671 c 128,-1,37
 185 642 185 642 185 608 c 2,38,-1
 185 519 l 1,39,-1
 312 519 l 1,40,-1
 312 475 l 1,41,-1
 185 475 l 1,42,-1
 185 40 l 1,43,-1
 266 21 l 1,0,-1
EndSplineSet
Ligature2: "'liga' Standard Ligatures in Latin lookup 0 subtable" f l
EndChar

StartChar: dotlessi
Encoding: 305 305 74
Width: 261
Flags: W
LayerCount: 2
Fore
SplineSet
22 496 m 1,0,-1
 22 517 l 1,1,-1
 170 517 l 1,2,-1
 170 40 l 1,3,-1
 250 21 l 1,4,-1
 250 0 l 1,5,-1
 22 0 l 1,6,-1
 22 21 l 1,7,-1
 102 40 l 1,8,-1
 102 477 l 1,9,-1
 22 496 l 1,0,-1
EndSplineSet
EndChar

StartChar: twosuperior
Encoding: 178 178 75
Width: 368
Flags: W
LayerCount: 2
Fore
SplineSet
317 375 m 1,0,-1
 330 375 l 1,1,-1
 336 299 l 1,2,-1
 46 299 l 1,3,4
 47 343 47 343 60 375.5 c 128,-1,5
 73 408 73 408 94 432.5 c 128,-1,6
 115 457 115 457 144 476 c 128,-1,7
 173 495 173 495 206 512 c 0,8,9
 247 532 247 532 265.5 559.5 c 128,-1,10
 284 587 284 587 284 616 c 0,11,12
 284 648 284 648 261.5 673 c 128,-1,13
 239 698 239 698 188 700 c 0,14,15
 166 700 166 700 149 694 c 128,-1,16
 132 688 132 688 119.5 679.5 c 128,-1,17
 107 671 107 671 99 662.5 c 128,-1,18
 91 654 91 654 87 649 c 1,19,20
 85 639 85 639 83 629 c 128,-1,21
 81 619 81 619 78 609 c 1,22,-1
 66 609 l 1,23,24
 64 626 64 626 63 641 c 128,-1,25
 62 656 62 656 61 672 c 1,26,27
 63 675 63 675 73.5 684 c 128,-1,28
 84 693 84 693 100.5 702.5 c 128,-1,29
 117 712 117 712 139 720 c 128,-1,30
 161 728 161 728 187 728 c 0,31,32
 257 728 257 728 289.5 695 c 128,-1,33
 322 662 322 662 322 616 c 0,34,35
 322 574 322 574 296.5 538.5 c 128,-1,36
 271 503 271 503 216 477 c 0,37,38
 192 465 192 465 171 450.5 c 128,-1,39
 150 436 150 436 133.5 418 c 128,-1,40
 117 400 117 400 106.5 377.5 c 128,-1,41
 96 355 96 355 95 327 c 1,42,-1
 305 327 l 1,43,-1
 317 375 l 1,0,-1
EndSplineSet
EndChar

StartChar: threesuperior
Encoding: 179 179 76
Width: 361
Flags: W
LayerCount: 2
Fore
SplineSet
41 690 m 1,0,1
 70 704 70 704 105 716 c 128,-1,2
 140 728 140 728 185 728 c 0,3,4
 211 728 211 728 235.5 722.5 c 128,-1,5
 260 717 260 717 278.5 705.5 c 128,-1,6
 297 694 297 694 308.5 675.5 c 128,-1,7
 320 657 320 657 320 631 c 0,8,9
 320 591 320 591 295.5 563.5 c 128,-1,10
 271 536 271 536 234 533 c 1,11,12
 284 527 284 527 316 497 c 128,-1,13
 348 467 348 467 348 422 c 0,14,15
 348 396 348 396 336 373 c 128,-1,16
 324 350 324 350 301.5 332.5 c 128,-1,17
 279 315 279 315 246.5 304.5 c 128,-1,18
 214 294 214 294 172 294 c 0,19,20
 107 294 107 294 74 302 c 128,-1,21
 41 310 41 310 29 316 c 1,22,23
 30 332 30 332 31 349 c 128,-1,24
 32 366 32 366 34 382 c 1,25,-1
 46 382 l 1,26,-1
 56 338 l 1,27,28
 79 331 79 331 108.5 324.5 c 128,-1,29
 138 318 138 318 168 318 c 0,30,31
 206 318 206 318 231.5 329.5 c 128,-1,32
 257 341 257 341 272 357.5 c 128,-1,33
 287 374 287 374 293 391.5 c 128,-1,34
 299 409 299 409 299 422 c 0,35,36
 299 437 299 437 291.5 452.5 c 128,-1,37
 284 468 284 468 269.5 481.5 c 128,-1,38
 255 495 255 495 233 503.5 c 128,-1,39
 211 512 211 512 182 512 c 2,40,-1
 132 512 l 1,41,-1
 132 540 l 1,42,-1
 182 540 l 2,43,44
 210 540 210 540 228 547 c 128,-1,45
 246 554 246 554 257 565.5 c 128,-1,46
 268 577 268 577 272.5 592 c 128,-1,47
 277 607 277 607 277 623 c 0,48,49
 277 637 277 637 272 650.5 c 128,-1,50
 267 664 267 664 255.5 675 c 128,-1,51
 244 686 244 686 226.5 693 c 128,-1,52
 209 700 209 700 185 700 c 0,53,54
 157 700 157 700 126 690.5 c 128,-1,55
 95 681 95 681 67 670 c 1,56,57
 65 660 65 660 62.5 649.5 c 128,-1,58
 60 639 60 639 58 629 c 1,59,60
 53 629 53 629 50.5 628.5 c 128,-1,61
 48 628 48 628 45 628 c 1,62,-1
 41 690 l 1,0,1
EndSplineSet
EndChar

StartChar: G
Encoding: 71 71 77
Width: 814
Flags: W
LayerCount: 2
Fore
SplineSet
752 37 m 1,0,1
 728 29 728 29 693.5 19.5 c 128,-1,2
 659 10 659 10 618.5 1 c 128,-1,3
 578 -8 578 -8 533.5 -14 c 128,-1,4
 489 -20 489 -20 446 -20 c 0,5,6
 340 -21 340 -21 267 6.5 c 128,-1,7
 194 34 194 34 148.5 84.5 c 128,-1,8
 103 135 103 135 83 205 c 128,-1,9
 63 275 63 275 63 359 c 256,10,11
 63 443 63 443 88 512 c 128,-1,12
 113 581 113 581 160.5 629.5 c 128,-1,13
 208 678 208 678 277.5 705 c 128,-1,14
 347 732 347 732 436 732 c 0,15,16
 534 732 534 732 601 718.5 c 128,-1,17
 668 705 668 705 697 695 c 1,18,-1
 687 574 l 1,19,-1
 666 574 l 1,20,-1
 649 655 l 1,21,22
 608 673 608 673 557 680 c 128,-1,23
 506 687 506 687 434 687 c 1,24,25
 393 685 393 685 356 675 c 128,-1,26
 319 665 319 665 286 646 c 0,27,28
 259 630 259 630 232.5 606 c 128,-1,29
 206 582 206 582 185 547 c 128,-1,30
 164 512 164 512 151 464 c 128,-1,31
 138 416 138 416 138 353 c 0,32,33
 138 270 138 270 157 214 c 128,-1,34
 176 158 176 158 206 122 c 128,-1,35
 236 86 236 86 272 67 c 128,-1,36
 308 48 308 48 342.5 40 c 128,-1,37
 377 32 377 32 405 31 c 128,-1,38
 433 30 433 30 446 30 c 0,39,40
 517 30 517 30 576 43.5 c 128,-1,41
 635 57 635 57 687 91 c 1,42,-1
 687 265 l 1,43,44
 666 269 666 269 652.5 272 c 128,-1,45
 639 275 639 275 630.5 277 c 128,-1,46
 622 279 622 279 617.5 280 c 128,-1,47
 613 281 613 281 609 282 c 1,48,-1
 609 301 l 1,49,-1
 752 301 l 1,50,-1
 752 37 l 1,0,1
EndSplineSet
EndChar

StartChar: nine
Encoding: 57 57 78
Width: 622
Flags: W
LayerCount: 2
Fore
SplineSet
506 497 m 0,0,1
 506 528 506 528 494 561.5 c 128,-1,2
 482 595 482 595 459 623 c 128,-1,3
 436 651 436 651 402.5 668.5 c 128,-1,4
 369 686 369 686 326 686 c 0,5,6
 262 686 262 686 220 659 c 128,-1,7
 178 632 178 632 156.5 591 c 128,-1,8
 135 550 135 550 133.5 502.5 c 128,-1,9
 132 455 132 455 150 414 c 128,-1,10
 168 373 168 373 205 346 c 128,-1,11
 242 319 242 319 298 319 c 0,12,13
 353 319 353 319 392 346 c 128,-1,14
 431 373 431 373 456.5 406 c 128,-1,15
 482 439 482 439 494 467 c 128,-1,16
 506 495 506 495 506 497 c 0,0,1
117 90 m 1,17,18
 156 70 156 70 203.5 54.5 c 128,-1,19
 251 39 251 39 303 39 c 0,20,21
 359 39 359 39 400 65 c 128,-1,22
 441 91 441 91 468 131.5 c 128,-1,23
 495 172 495 172 508 222 c 128,-1,24
 521 272 521 272 521 321 c 0,25,26
 521 332 521 332 521 343 c 128,-1,27
 521 354 521 354 520.5 367.5 c 128,-1,28
 520 381 520 381 519.5 398 c 128,-1,29
 519 415 519 415 518 439 c 1,30,31
 510 403 510 403 487.5 372 c 128,-1,32
 465 341 465 341 434 318.5 c 128,-1,33
 403 296 403 296 367.5 283.5 c 128,-1,34
 332 271 332 271 298 271 c 0,35,36
 217 271 217 271 163.5 304.5 c 128,-1,37
 110 338 110 338 83.5 389 c 128,-1,38
 57 440 57 440 58.5 498.5 c 128,-1,39
 60 557 60 557 90 608 c 128,-1,40
 120 659 120 659 178.5 692.5 c 128,-1,41
 237 726 237 726 325 726 c 0,42,43
 385 726 385 726 433.5 708.5 c 128,-1,44
 482 691 482 691 516 649 c 128,-1,45
 550 607 550 607 568.5 536.5 c 128,-1,46
 587 466 587 466 587 360 c 0,47,48
 587 256 587 256 564.5 185.5 c 128,-1,49
 542 115 542 115 503.5 71 c 128,-1,50
 465 27 465 27 413.5 8 c 128,-1,51
 362 -11 362 -11 303 -11 c 0,52,53
 267 -11 267 -11 236.5 -5 c 128,-1,54
 206 1 206 1 178.5 10.5 c 128,-1,55
 151 20 151 20 125 32 c 128,-1,56
 99 44 99 44 72 56 c 1,57,-1
 79 162 l 1,58,-1
 100 162 l 1,59,-1
 117 90 l 1,17,18
EndSplineSet
EndChar

StartChar: ti
Encoding: 65537 -1 79
Width: 570
Flags: W
LayerCount: 2
Fore
SplineSet
341 496 m 1,0,-1
 341 517 l 1,1,-1
 489 517 l 1,2,-1
 491 40 l 1,3,-1
 569 21 l 1,4,-1
 569 0 l 1,5,6
 498 -2 498 -2 431.5 -8.5 c 128,-1,7
 365 -15 365 -15 299 -15 c 0,8,9
 273 -15 273 -15 239.5 -10 c 128,-1,10
 206 -5 206 -5 176.5 8 c 128,-1,11
 147 21 147 21 126.5 44 c 128,-1,12
 106 67 106 67 106 103 c 2,13,-1
 106 474 l 1,14,-1
 5 474 l 1,15,-1
 5 517 l 1,16,-1
 105 517 l 1,17,18
 107 533 107 533 109.5 553 c 128,-1,19
 112 573 112 573 114.5 593.5 c 128,-1,20
 117 614 117 614 119.5 634 c 128,-1,21
 122 654 122 654 125 671 c 1,22,-1
 172 671 l 1,23,-1
 172 138 l 2,24,25
 172 100 172 100 191 79 c 128,-1,26
 210 58 210 58 235 48.5 c 128,-1,27
 260 39 260 39 285.5 37.5 c 128,-1,28
 311 36 311 36 324 36 c 0,29,30
 339 36 339 36 364 37.5 c 128,-1,31
 389 39 389 39 421 44 c 1,32,-1
 421 477 l 1,33,-1
 341 496 l 1,0,-1
405 710 m 1,34,-1
 405 795 l 1,35,-1
 489 795 l 1,36,-1
 489 710 l 1,37,-1
 405 710 l 1,34,-1
EndSplineSet
Ligature2: "'liga' Standard Ligatures in Latin lookup 0 subtable" t i
EndChar

StartChar: th
Encoding: 65538 -1 80
Width: 933
Flags: W
LayerCount: 2
Fore
SplineSet
934 21 m 1,0,-1
 934 0 l 1,1,-1
 706 0 l 1,2,-1
 706 21 l 1,3,-1
 785 40 l 1,4,-1
 786 319 l 2,5,6
 786 352 786 352 780 382 c 128,-1,7
 774 412 774 412 761 434 c 128,-1,8
 748 456 748 456 727 469 c 128,-1,9
 706 482 706 482 677 482 c 0,10,11
 634 482 634 482 599 468 c 128,-1,12
 564 454 564 454 539 433 c 128,-1,13
 514 412 514 412 500 386.5 c 128,-1,14
 486 361 486 361 486 338 c 0,15,16
 486 254 486 254 487 172.5 c 128,-1,17
 488 91 488 91 488 6 c 1,18,19
 482 4 482 4 464 0.5 c 128,-1,20
 446 -3 446 -3 420.5 -6.5 c 128,-1,21
 395 -10 395 -10 364.5 -12.5 c 128,-1,22
 334 -15 334 -15 303 -15 c 0,23,24
 276 -15 276 -15 242.5 -10 c 128,-1,25
 209 -5 209 -5 179.5 8 c 128,-1,26
 150 21 150 21 130 44 c 128,-1,27
 110 67 110 67 110 103 c 2,28,-1
 110 474 l 1,29,-1
 8 474 l 1,30,-1
 8 517 l 1,31,-1
 109 517 l 1,32,-1
 128 671 l 1,33,-1
 174 671 l 1,34,-1
 174 517 l 1,35,-1
 308 517 l 1,36,-1
 308 474 l 1,37,-1
 174 474 l 1,38,-1
 174 138 l 2,39,40
 174 100 174 100 193 79 c 128,-1,41
 212 58 212 58 237.5 48.5 c 128,-1,42
 263 39 263 39 288.5 37.5 c 128,-1,43
 314 36 314 36 328 36 c 0,44,45
 346 36 346 36 363 39.5 c 128,-1,46
 380 43 380 43 393.5 49 c 128,-1,47
 407 55 407 55 415.5 62.5 c 128,-1,48
 424 70 424 70 424 78 c 2,49,-1
 424 756 l 1,50,51
 407 760 407 760 385 765 c 128,-1,52
 363 770 363 770 345 775 c 1,53,-1
 345 796 l 1,54,-1
 490 796 l 1,55,-1
 490 423 l 1,56,57
 517 448 517 448 542 468 c 128,-1,58
 567 488 567 488 593 501.5 c 128,-1,59
 619 515 619 515 647 522 c 128,-1,60
 675 529 675 529 707 529 c 0,61,62
 740 529 740 529 767.5 516.5 c 128,-1,63
 795 504 795 504 814.5 478 c 128,-1,64
 834 452 834 452 843.5 411 c 128,-1,65
 853 370 853 370 850 312 c 1,66,-1
 850 40 l 1,67,-1
 934 21 l 1,0,-1
EndSplineSet
Ligature2: "'liga' Standard Ligatures in Latin lookup 0 subtable" t h
EndChar

StartChar: ck
Encoding: 65539 -1 81
Width: 1099
Flags: W
LayerCount: 2
Fore
SplineSet
478 385 m 1,0,-1
 457 385 l 1,1,-1
 440 457 l 1,2,3
 370 486 370 486 323 486 c 0,4,5
 284 486 284 486 247 477.5 c 128,-1,6
 210 469 210 469 182 445 c 128,-1,7
 154 421 154 421 137 378 c 128,-1,8
 120 335 120 335 120 265 c 0,9,10
 120 192 120 192 136 146.5 c 128,-1,11
 152 101 152 101 180 75 c 128,-1,12
 208 49 208 49 245 39.5 c 128,-1,13
 282 30 282 30 323 30 c 0,14,15
 366 30 366 30 408 44.5 c 128,-1,16
 450 59 450 59 489.5 81 c 128,-1,17
 529 103 529 103 564.5 129 c 128,-1,18
 600 155 600 155 631 178 c 1,19,-1
 631 755 l 1,20,21
 614 759 614 759 591.5 764 c 128,-1,22
 569 769 569 769 551 774 c 1,23,-1
 551 795 l 1,24,-1
 700 795 l 1,25,-1
 699 400 l 1,26,27
 717 437 717 437 742.5 465 c 128,-1,28
 768 493 768 493 797.5 512 c 128,-1,29
 827 531 827 531 858.5 540.5 c 128,-1,30
 890 550 890 550 920 550 c 0,31,32
 951 550 951 550 976.5 539 c 128,-1,33
 1002 528 1002 528 1020 509 c 128,-1,34
 1038 490 1038 490 1048 464.5 c 128,-1,35
 1058 439 1058 439 1058 410 c 0,36,37
 1058 356 1058 356 1016 302 c 128,-1,38
 974 248 974 248 905 200 c 1,39,-1
 1030 37 l 1,40,-1
 1099 20 l 1,41,-1
 1099 0 l 1,42,-1
 871 0 l 1,43,-1
 871 21 l 1,44,-1
 948 37 l 1,45,-1
 845 169 l 1,46,47
 828 161 828 161 816 155.5 c 128,-1,48
 804 150 804 150 787 143 c 1,49,-1
 785 196 l 1,50,51
 817 210 817 210 854 231 c 128,-1,52
 891 252 891 252 923 278.5 c 128,-1,53
 955 305 955 305 976 335.5 c 128,-1,54
 997 366 997 366 997 399 c 0,55,56
 997 444 997 444 969.5 471.5 c 128,-1,57
 942 499 942 499 900 499 c 0,58,59
 869 499 869 499 834 482 c 128,-1,60
 799 465 799 465 769.5 437 c 128,-1,61
 740 409 740 409 720 372.5 c 128,-1,62
 700 336 700 336 699 298 c 1,63,-1
 699 164 l 1,64,65
 676 142 676 142 641 111 c 128,-1,66
 606 80 606 80 559 52 c 128,-1,67
 512 24 512 24 453 4 c 128,-1,68
 394 -16 394 -16 323 -16 c 0,69,70
 190 -16 190 -16 120 52.5 c 128,-1,71
 50 121 50 121 50 263 c 0,72,73
 50 339 50 339 68.5 390.5 c 128,-1,74
 87 442 87 442 122.5 473.5 c 128,-1,75
 158 505 158 505 208.5 518.5 c 128,-1,76
 259 532 259 532 323 532 c 0,77,78
 417 532 417 532 486 490 c 1,79,-1
 478 385 l 1,0,-1
EndSplineSet
Ligature2: "'liga' Standard Ligatures in Latin lookup 0 subtable" c k
EndChar

StartChar: mm
Encoding: 65540 -1 82
Width: 1447
Flags: W
LayerCount: 2
Fore
SplineSet
7 496 m 1,0,-1
 7 517 l 1,1,-1
 147 517 l 1,2,-1
 158 412 l 1,3,4
 170 439 170 439 189.5 461.5 c 128,-1,5
 209 484 209 484 232.5 499.5 c 128,-1,6
 256 515 256 515 281 524 c 128,-1,7
 306 533 306 533 330 533 c 0,8,9
 348 533 348 533 366.5 526 c 128,-1,10
 385 519 385 519 400.5 504 c 128,-1,11
 416 489 416 489 428 466.5 c 128,-1,12
 440 444 440 444 446 413 c 1,13,14
 477 470 477 470 526 501.5 c 128,-1,15
 575 533 575 533 635 533 c 0,16,17
 680 533 680 533 709.5 500.5 c 128,-1,18
 739 468 739 468 756 408 c 1,19,20
 769 439 769 439 789.5 462 c 128,-1,21
 810 485 810 485 834 501 c 128,-1,22
 858 517 858 517 884 525 c 128,-1,23
 910 533 910 533 935 533 c 0,24,25
 972 533 972 533 1003.5 507.5 c 128,-1,26
 1035 482 1035 482 1052 415 c 1,27,28
 1080 472 1080 472 1130 502.5 c 128,-1,29
 1180 533 1180 533 1240 533 c 0,30,31
 1303 533 1303 533 1333 480.5 c 128,-1,32
 1363 428 1363 428 1363 324 c 2,33,-1
 1364 41 l 1,34,-1
 1447 22 l 1,35,-1
 1447 0 l 1,36,-1
 1301 0 l 1,37,-1
 1301 330 l 2,38,39
 1301 365 1301 365 1298 393.5 c 128,-1,40
 1295 422 1295 422 1285.5 442 c 128,-1,41
 1276 462 1276 462 1257.5 473 c 128,-1,42
 1239 484 1239 484 1209 484 c 0,43,44
 1171 484 1171 484 1143.5 469.5 c 128,-1,45
 1116 455 1116 455 1098 432 c 128,-1,46
 1080 409 1080 409 1071.5 379.5 c 128,-1,47
 1063 350 1063 350 1063 320 c 2,48,-1
 1063 40 l 1,49,-1
 1141 21 l 1,50,-1
 1141 0 l 1,51,-1
 994 0 l 1,52,-1
 994 320 l 2,53,54
 994 399 994 399 976 441.5 c 128,-1,55
 958 484 958 484 904 484 c 0,56,57
 866 484 866 484 838.5 469.5 c 128,-1,58
 811 455 811 455 793 431.5 c 128,-1,59
 775 408 775 408 766 379 c 128,-1,60
 757 350 757 350 757 322 c 2,61,-1
 759 41 l 1,62,-1
 842 22 l 1,63,-1
 842 0 l 1,64,-1
 696 0 l 1,65,-1
 696 330 l 2,66,67
 696 365 696 365 693 393.5 c 128,-1,68
 690 422 690 422 680 442 c 128,-1,69
 670 462 670 462 651.5 473 c 128,-1,70
 633 484 633 484 603 484 c 0,71,72
 565 484 565 484 537.5 469.5 c 128,-1,73
 510 455 510 455 492.5 432 c 128,-1,74
 475 409 475 409 466.5 379.5 c 128,-1,75
 458 350 458 350 458 320 c 2,76,-1
 458 40 l 1,77,-1
 536 21 l 1,78,-1
 536 0 l 1,79,-1
 390 0 l 1,80,-1
 390 320 l 2,81,82
 390 401 390 401 371.5 442.5 c 128,-1,83
 353 484 353 484 300 484 c 0,84,85
 262 484 262 484 234.5 469 c 128,-1,86
 207 454 207 454 189 430.5 c 128,-1,87
 171 407 171 407 162 377.5 c 128,-1,88
 153 348 153 348 153 320 c 2,89,-1
 153 41 l 1,90,-1
 235 22 l 1,91,-1
 235 0 l 1,92,-1
 7 0 l 1,93,-1
 7 21 l 1,94,-1
 87 38 l 1,95,-1
 87 477 l 1,96,-1
 7 496 l 1,0,-1
EndSplineSet
Ligature2: "'liga' Standard Ligatures in Latin lookup 0 subtable" m m
EndChar

StartChar: t
Encoding: 116 116 83
Width: 352
Flags: W
LayerCount: 2
Fore
SplineSet
110 517 m 1,0,1
 115 553 115 553 120 593.5 c 128,-1,2
 125 634 125 634 131 671 c 1,3,-1
 176 671 l 1,4,-1
 176 517 l 1,5,-1
 310 517 l 1,6,-1
 310 474 l 1,7,-1
 176 474 l 1,8,-1
 176 139 l 2,9,10
 176 106 176 106 178 85.5 c 128,-1,11
 180 65 180 65 186.5 54.5 c 128,-1,12
 193 44 193 44 204.5 40.5 c 128,-1,13
 216 37 216 37 235 37 c 0,14,15
 256 37 256 37 275 42.5 c 128,-1,16
 294 48 294 48 307 54 c 1,17,-1
 307 1 l 1,18,19
 293 -3 293 -3 266 -7.5 c 128,-1,20
 239 -12 239 -12 210 -12 c 0,21,22
 186 -12 186 -12 167.5 -7.5 c 128,-1,23
 149 -3 149 -3 136.5 10 c 128,-1,24
 124 23 124 23 117.5 45.5 c 128,-1,25
 111 68 111 68 111 104 c 2,26,-1
 111 474 l 1,27,-1
 10 474 l 1,28,-1
 10 517 l 1,29,-1
 110 517 l 1,0,1
EndSplineSet
EndChar

StartChar: oo
Encoding: 65541 -1 84
Width: 984
Flags: W
LayerCount: 2
Fore
SplineSet
703 533 m 0,0,1
 775 533 775 533 822.5 511.5 c 128,-1,2
 870 490 870 490 898.5 453 c 128,-1,3
 927 416 927 416 939 366.5 c 128,-1,4
 951 317 951 317 951 261 c 0,5,6
 951 193 951 193 939 141 c 128,-1,7
 927 89 927 89 899.5 54 c 128,-1,8
 872 19 872 19 826 1 c 128,-1,9
 780 -17 780 -17 712 -17 c 0,10,11
 649 -17 649 -17 598.5 8 c 128,-1,12
 548 33 548 33 508 80 c 1,13,14
 469 33 469 33 418 8 c 128,-1,15
 367 -17 367 -17 298 -17 c 256,16,17
 229 -17 229 -17 182.5 5.5 c 128,-1,18
 136 28 136 28 107 66.5 c 128,-1,19
 78 105 78 105 65.5 155 c 128,-1,20
 53 205 53 205 53 261 c 0,21,22
 53 326 53 326 65 376.5 c 128,-1,23
 77 427 77 427 105 462 c 128,-1,24
 133 497 133 497 178.5 515 c 128,-1,25
 224 533 224 533 291 533 c 0,26,27
 357 533 357 533 407.5 508.5 c 128,-1,28
 458 484 458 484 498 437 c 1,29,30
 538 484 538 484 587.5 508.5 c 128,-1,31
 637 533 637 533 703 533 c 0,0,1
123 261 m 0,32,33
 123 179 123 179 140 132.5 c 128,-1,34
 157 86 157 86 183.5 63 c 128,-1,35
 210 40 210 40 240.5 34.5 c 128,-1,36
 271 29 271 29 298 29 c 0,37,38
 319 29 319 29 349 33 c 128,-1,39
 379 37 379 37 406 58.5 c 128,-1,40
 433 80 433 80 452 127 c 128,-1,41
 471 174 471 174 471 261 c 0,42,43
 471 345 471 345 452 391 c 128,-1,44
 433 437 433 437 405.5 458 c 128,-1,45
 378 479 378 479 347 483 c 128,-1,46
 316 487 316 487 291 487 c 0,47,48
 264 487 264 487 234.5 484 c 128,-1,49
 205 481 205 481 180 460 c 128,-1,50
 155 439 155 439 139 393 c 128,-1,51
 123 347 123 347 123 261 c 0,32,33
529 261 m 0,52,53
 529 213 529 213 537 170.5 c 128,-1,54
 545 128 545 128 565.5 96.5 c 128,-1,55
 586 65 586 65 621.5 47 c 128,-1,56
 657 29 657 29 712 29 c 0,57,58
 734 29 734 29 761.5 33 c 128,-1,59
 789 37 789 37 814 58.5 c 128,-1,60
 839 80 839 80 856 127 c 128,-1,61
 873 174 873 174 873 261 c 0,62,63
 873 345 873 345 856 391 c 128,-1,64
 839 437 839 437 813.5 458 c 128,-1,65
 788 479 788 479 758 483 c 128,-1,66
 728 487 728 487 703 487 c 0,67,68
 647 487 647 487 612.5 468.5 c 128,-1,69
 578 450 578 450 559.5 418.5 c 128,-1,70
 541 387 541 387 535 346 c 128,-1,71
 529 305 529 305 529 261 c 0,52,53
EndSplineSet
Ligature2: "'liga' Standard Ligatures in Latin lookup 0 subtable" o o
EndChar

StartChar: ff
Encoding: 64256 64256 85
Width: 646
Flags: W
LayerCount: 2
Fore
SplineSet
287 726 m 0,0,1
 226 726 226 726 192.5 681 c 128,-1,2
 159 636 159 636 159 562 c 2,3,-1
 159 516 l 1,4,-1
 257 516 l 1,5,-1
 257 473 l 1,6,-1
 159 473 l 1,7,-1
 159 -173 l 1,8,-1
 242 -189 l 1,9,-1
 242 -211 l 1,10,-1
 14 -211 l 1,11,-1
 14 -190 l 1,12,-1
 94 -173 l 1,13,-1
 96 473 l 1,14,-1
 10 473 l 1,15,-1
 10 516 l 1,16,-1
 96 516 l 1,17,-1
 96 562 l 2,18,19
 96 673 96 673 147.5 725.5 c 128,-1,20
 199 778 199 778 288 778 c 0,21,22
 313 778 313 778 337.5 774 c 128,-1,23
 362 770 362 770 383 760.5 c 128,-1,24
 404 751 404 751 420 735 c 128,-1,25
 436 719 436 719 446 695 c 1,26,27
 464 722 464 722 485.5 738.5 c 128,-1,28
 507 755 507 755 530.5 763.5 c 128,-1,29
 554 772 554 772 579 775 c 128,-1,30
 604 778 604 778 628 778 c 0,31,32
 655 778 655 778 685.5 768 c 128,-1,33
 716 758 716 758 739 747 c 1,34,35
 737 719 737 719 735 692 c 128,-1,36
 733 665 733 665 731 639 c 1,37,-1
 711 639 l 1,38,-1
 693 716 l 1,39,40
 673 721 673 721 657.5 723.5 c 128,-1,41
 642 726 642 726 628 726 c 0,42,43
 577 726 577 726 549 714 c 128,-1,44
 521 702 521 702 508.5 680 c 128,-1,45
 496 658 496 658 494 628 c 128,-1,46
 492 598 492 598 492 562 c 2,47,-1
 492 516 l 1,48,-1
 621 516 l 1,49,-1
 621 473 l 1,50,-1
 492 473 l 1,51,-1
 492 38 l 1,52,53
 511 34 511 34 533 29 c 128,-1,54
 555 24 555 24 575 20 c 1,55,-1
 575 0 l 1,56,-1
 347 0 l 1,57,-1
 347 21 l 1,58,-1
 427 40 l 1,59,-1
 429 473 l 1,60,-1
 343 473 l 1,61,-1
 343 516 l 1,62,-1
 429 516 l 1,63,64
 429 580 429 580 419.5 620.5 c 128,-1,65
 410 661 410 661 392 684.5 c 128,-1,66
 374 708 374 708 347.5 717 c 128,-1,67
 321 726 321 726 287 726 c 0,0,1
EndSplineSet
Ligature2: "'liga' Standard Ligatures in Latin lookup 0 subtable" f f
EndChar

StartChar: rt
Encoding: 65542 -1 86
Width: 717
Flags: W
LayerCount: 2
Fore
SplineSet
491 536 m 1,0,-1
 510 671 l 1,1,-1
 556 671 l 1,2,-1
 556 517 l 1,3,-1
 690 517 l 1,4,-1
 690 474 l 1,5,-1
 556 474 l 1,6,-1
 556 139 l 2,7,8
 556 106 556 106 558 85.5 c 128,-1,9
 560 65 560 65 566 54.5 c 128,-1,10
 572 44 572 44 583.5 40.5 c 128,-1,11
 595 37 595 37 615 37 c 0,12,13
 637 37 637 37 655.5 42 c 128,-1,14
 674 47 674 47 688 55 c 1,15,-1
 688 3 l 1,16,17
 672 -2 672 -2 645 -7 c 128,-1,18
 618 -12 618 -12 590 -12 c 0,19,20
 566 -12 566 -12 547.5 -7.5 c 128,-1,21
 529 -3 529 -3 516.5 10 c 128,-1,22
 504 23 504 23 497.5 45.5 c 128,-1,23
 491 68 491 68 491 104 c 2,24,-1
 491 536 l 1,0,-1
8 496 m 1,25,-1
 8 517 l 1,26,-1
 140 517 l 1,27,-1
 155 404 l 1,28,29
 166 439 166 439 182.5 463.5 c 128,-1,30
 199 488 199 488 218 503 c 128,-1,31
 237 518 237 518 258 525 c 128,-1,32
 279 532 279 532 299 532 c 0,33,34
 331 532 331 532 351 527 c 128,-1,35
 371 522 371 522 381 517 c 1,36,-1
 373 398 l 1,37,-1
 351 398 l 1,38,-1
 333 477 l 1,39,40
 319 479 319 479 310 479.5 c 128,-1,41
 301 480 301 480 299 480 c 0,42,43
 275 480 275 480 249.5 474.5 c 128,-1,44
 224 469 224 469 203 446 c 128,-1,45
 182 423 182 423 168 376.5 c 128,-1,46
 154 330 154 330 154 249 c 2,47,-1
 154 38 l 1,48,-1
 230 21 l 1,49,-1
 230 0 l 1,50,-1
 12 0 l 1,51,-1
 12 21 l 1,52,-1
 87 38 l 1,53,-1
 87 477 l 1,54,-1
 8 496 l 1,25,-1
EndSplineSet
Ligature2: "'liga' Standard Ligatures in Latin lookup 0 subtable" r t
EndChar

StartChar: onesuperior
Encoding: 185 185 87
Width: 317
Flags: W
LayerCount: 2
Fore
SplineSet
156 376 m 1,0,-1
 156 699 l 1,1,2
 133 697 133 697 113 688 c 1,3,-1
 113 704 l 1,4,5
 122 711 122 711 131.5 715.5 c 128,-1,6
 141 720 141 720 149 727 c 1,7,-1
 190 727 l 1,8,-1
 190 376 l 1,9,-1
 230 367 l 1,10,-1
 230 356 l 1,11,-1
 116 356 l 1,12,-1
 116 367 l 1,13,-1
 156 376 l 1,0,-1
EndSplineSet
EndChar

StartChar: ampersand
Encoding: 38 38 89
Width: 759
Flags: W
LayerCount: 2
Fore
SplineSet
408 728 m 0,0,1
 481 727 481 727 523.5 702 c 128,-1,2
 566 677 566 677 566 614 c 0,3,4
 566 606 566 606 564 589 c 128,-1,5
 562 572 562 572 558 548 c 1,6,7
 610 539 610 539 647.5 521 c 128,-1,8
 685 503 685 503 709 474 c 128,-1,9
 733 445 733 445 744.5 403.5 c 128,-1,10
 756 362 756 362 756 306 c 0,11,12
 756 230 756 230 727.5 168 c 128,-1,13
 699 106 699 106 631 56 c 1,14,15
 677 36 677 36 700.5 31 c 128,-1,16
 724 26 724 26 741 26 c 0,17,18
 793 26 793 26 829.5 38 c 128,-1,19
 866 50 866 50 897 67 c 1,20,-1
 897 14 l 1,21,22
 870 -1 870 -1 833 -8.5 c 128,-1,23
 796 -16 796 -16 738 -16 c 0,24,25
 698 -16 698 -16 661 -7.5 c 128,-1,26
 624 1 624 1 579 29 c 1,27,28
 468 -21 468 -21 327 -18 c 1,29,30
 249 -18 249 -18 195 0.5 c 128,-1,31
 141 19 141 19 108 53.5 c 128,-1,32
 75 88 75 88 60.5 138.5 c 128,-1,33
 46 189 46 189 46 254 c 0,34,35
 46 312 46 312 59 354.5 c 128,-1,36
 72 397 72 397 99.5 426 c 128,-1,37
 127 455 127 455 169 472.5 c 128,-1,38
 211 490 211 490 269 499 c 1,39,40
 259 541 259 541 253 569 c 128,-1,41
 247 597 247 597 247 614 c 0,42,43
 247 650 247 650 261 672 c 128,-1,44
 275 694 275 694 297.5 706.5 c 128,-1,45
 320 719 320 719 349 723.5 c 128,-1,46
 378 728 378 728 408 728 c 0,0,1
275 471 m 1,47,48
 234 461 234 461 203 448.5 c 128,-1,49
 172 436 172 436 152 413.5 c 128,-1,50
 132 391 132 391 122 354.5 c 128,-1,51
 112 318 112 318 112 258 c 0,52,53
 112 190 112 190 125 145 c 128,-1,54
 138 100 138 100 165 73 c 128,-1,55
 192 46 192 46 232.5 35 c 128,-1,56
 273 24 273 24 329 24 c 0,57,58
 420 24 420 24 537 57 c 1,59,60
 444 146 444 146 381.5 252.5 c 128,-1,61
 319 359 319 359 275 471 c 1,47,48
548 515 m 1,62,63
 528 456 528 456 495 391 c 128,-1,64
 462 326 462 326 424 263 c 1,65,66
 449 225 449 225 467 199.5 c 128,-1,67
 485 174 485 174 501 154.5 c 128,-1,68
 517 135 517 135 533.5 119.5 c 128,-1,69
 550 104 550 104 572 86 c 1,70,71
 630 114 630 114 659.5 167 c 128,-1,72
 689 220 689 220 689 310 c 0,73,74
 689 362 689 362 680.5 396.5 c 128,-1,75
 672 431 672 431 654.5 453 c 128,-1,76
 637 475 637 475 610.5 489 c 128,-1,77
 584 503 584 503 548 515 c 1,62,63
518 598 m 0,78,79
 518 626 518 626 509 643 c 128,-1,80
 500 660 500 660 485 669 c 128,-1,81
 470 678 470 678 450 681 c 128,-1,82
 430 684 430 684 408 684 c 0,83,84
 382 684 382 684 361 681 c 128,-1,85
 340 678 340 678 324.5 669 c 128,-1,86
 309 660 309 660 300.5 643 c 128,-1,87
 292 626 292 626 292 598 c 0,88,89
 292 571 292 571 303.5 533 c 128,-1,90
 315 495 315 495 332.5 454.5 c 128,-1,91
 350 414 350 414 370.5 374.5 c 128,-1,92
 391 335 391 335 408 306 c 1,93,94
 430 349 430 349 450 389 c 128,-1,95
 470 429 470 429 485 465.5 c 128,-1,96
 500 502 500 502 509 535.5 c 128,-1,97
 518 569 518 569 518 598 c 0,78,79
EndSplineSet
EndChar

StartChar: quotesingle
Encoding: 39 39 90
Width: 286
Flags: W
LayerCount: 2
Fore
SplineSet
130 493 m 1,0,-1
 130 730 l 1,1,-1
 175 730 l 1,2,-1
 175 493 l 1,3,-1
 130 493 l 1,0,-1
EndSplineSet
EndChar

StartChar: parenleft
Encoding: 40 40 91
Width: 315
Flags: W
LayerCount: 2
Fore
SplineSet
302 753 m 1,0,1
 282 722 282 722 254 670 c 128,-1,2
 226 618 226 618 200.5 553.5 c 128,-1,3
 175 489 175 489 156.5 416 c 128,-1,4
 138 343 138 343 138 269 c 0,5,6
 138 207 138 207 152 143.5 c 128,-1,7
 166 80 166 80 188.5 17.5 c 128,-1,8
 211 -45 211 -45 239 -103.5 c 128,-1,9
 267 -162 267 -162 295 -213 c 1,10,-1
 266 -213 l 1,11,12
 253 -198 253 -198 220 -154 c 128,-1,13
 187 -110 187 -110 152.5 -45.5 c 128,-1,14
 118 19 118 19 91.5 99.5 c 128,-1,15
 65 180 65 180 65 269 c 0,16,17
 65 336 65 336 81 402.5 c 128,-1,18
 97 469 97 469 124.5 531 c 128,-1,19
 152 593 152 593 188.5 649.5 c 128,-1,20
 225 706 225 706 266 753 c 1,21,-1
 302 753 l 1,0,1
EndSplineSet
EndChar

StartChar: parenright
Encoding: 41 41 92
Width: 308
Flags: W
LayerCount: 2
Fore
SplineSet
58 753 m 1,0,1
 100 701 100 701 137 643.5 c 128,-1,2
 174 586 174 586 201.5 524.5 c 128,-1,3
 229 463 229 463 244.5 399 c 128,-1,4
 260 335 260 335 260 269 c 0,5,6
 260 210 260 210 247.5 154 c 128,-1,7
 235 98 235 98 215.5 47.5 c 128,-1,8
 196 -3 196 -3 172.5 -46 c 128,-1,9
 149 -89 149 -89 126.5 -123 c 128,-1,10
 104 -157 104 -157 85.5 -180 c 128,-1,11
 67 -203 67 -203 59 -213 c 1,12,-1
 28 -213 l 1,13,14
 57 -157 57 -157 85.5 -98.5 c 128,-1,15
 114 -40 114 -40 136.5 20.5 c 128,-1,16
 159 81 159 81 173 143.5 c 128,-1,17
 187 206 187 206 187 269 c 0,18,19
 187 344 187 344 168 417.5 c 128,-1,20
 149 491 149 491 123 555.5 c 128,-1,21
 97 620 97 620 69 671.5 c 128,-1,22
 41 723 41 723 22 753 c 1,23,-1
 58 753 l 1,0,1
EndSplineSet
EndChar

StartChar: asterisk
Encoding: 42 42 93
Width: 329
Flags: W
LayerCount: 2
Fore
SplineSet
63 523 m 1,0,-1
 52 544 l 1,1,-1
 158 597 l 1,2,-1
 52 650 l 1,3,-1
 63 671 l 1,4,-1
 165 617 l 1,5,-1
 165 731 l 1,6,-1
 190 731 l 1,7,-1
 190 617 l 1,8,-1
 290 671 l 1,9,-1
 301 650 l 1,10,-1
 196 597 l 1,11,-1
 301 544 l 1,12,-1
 290 523 l 1,13,-1
 190 577 l 1,14,-1
 190 462 l 1,15,-1
 165 462 l 1,16,-1
 165 577 l 1,17,-1
 63 523 l 1,0,-1
EndSplineSet
EndChar

StartChar: plus
Encoding: 43 43 94
Width: 600
Flags: W
LayerCount: 2
Fore
SplineSet
331 509 m 1,0,-1
 331 274 l 1,1,-1
 567 274 l 1,2,-1
 567 232 l 1,3,-1
 331 232 l 1,4,-1
 331 1 l 1,5,-1
 286 1 l 1,6,-1
 286 232 l 1,7,-1
 59 232 l 1,8,-1
 59 274 l 1,9,-1
 286 274 l 1,10,-1
 286 509 l 1,11,-1
 331 509 l 1,0,-1
EndSplineSet
EndChar

StartChar: comma
Encoding: 44 44 95
Width: 278
Flags: W
LayerCount: 2
Fore
SplineSet
106 84 m 1,0,-1
 193 84 l 1,1,2
 197 55 197 55 199 30 c 128,-1,3
 201 5 201 5 201 -15 c 0,4,5
 201 -60 201 -60 192 -91.5 c 128,-1,6
 183 -123 183 -123 167.5 -143.5 c 128,-1,7
 152 -164 152 -164 132.5 -174 c 128,-1,8
 113 -184 113 -184 92 -187 c 1,9,-1
 92 -152 l 1,10,11
 120 -149 120 -149 135 -134.5 c 128,-1,12
 150 -120 150 -120 157 -99 c 128,-1,13
 164 -78 164 -78 165 -52 c 128,-1,14
 166 -26 166 -26 166 0 c 1,15,-1
 106 0 l 1,16,-1
 106 84 l 1,0,-1
EndSplineSet
EndChar

StartChar: hyphen
Encoding: 45 45 96
Width: 398
Flags: W
LayerCount: 2
Fore
SplineSet
348 304 m 1,0,-1
 348 253 l 1,1,-1
 67 253 l 1,2,-1
 67 304 l 1,3,-1
 348 304 l 1,0,-1
EndSplineSet
EndChar

StartChar: period
Encoding: 46 46 97
Width: 271
Flags: W
LayerCount: 2
Fore
SplineSet
106 83 m 1,0,-1
 191 83 l 1,1,-1
 191 -1 l 1,2,-1
 106 -1 l 1,3,-1
 106 83 l 1,0,-1
EndSplineSet
EndChar

StartChar: slash
Encoding: 47 47 98
Width: 347
Flags: W
LayerCount: 2
Fore
SplineSet
310 753 m 1,0,-1
 357 753 l 1,1,-1
 53 -19 l 1,2,3
 42 -19 42 -19 28.5 -19.5 c 128,-1,4
 15 -20 15 -20 6 -20 c 1,5,-1
 310 753 l 1,0,-1
EndSplineSet
EndChar

StartChar: eight
Encoding: 56 56 99
Width: 613
Flags: W
LayerCount: 2
Fore
SplineSet
349 445 m 1,0,1
 354 446 354 446 375 455 c 128,-1,2
 396 464 396 464 419.5 480 c 128,-1,3
 443 496 443 496 461.5 518 c 128,-1,4
 480 540 480 540 480 567 c 0,5,6
 480 601 480 601 464.5 623 c 128,-1,7
 449 645 449 645 424.5 657.5 c 128,-1,8
 400 670 400 670 371 675 c 128,-1,9
 342 680 342 680 315 680 c 0,10,11
 290 680 290 680 261 674.5 c 128,-1,12
 232 669 232 669 207.5 656.5 c 128,-1,13
 183 644 183 644 167 624 c 128,-1,14
 151 604 151 604 151 576 c 0,15,16
 151 549 151 549 174.5 527.5 c 128,-1,17
 198 506 198 506 230 489.5 c 128,-1,18
 262 473 262 473 295.5 462 c 128,-1,19
 329 451 329 451 349 445 c 1,0,1
280 402 m 1,20,21
 205 379 205 379 160.5 326 c 128,-1,22
 116 273 116 273 116 195 c 0,23,24
 116 150 116 150 134 118.5 c 128,-1,25
 152 87 152 87 181 67.5 c 128,-1,26
 210 48 210 48 245.5 39 c 128,-1,27
 281 30 281 30 316 30 c 0,28,29
 356 30 356 30 393 41.5 c 128,-1,30
 430 53 430 53 457.5 74 c 128,-1,31
 485 95 485 95 501.5 125.5 c 128,-1,32
 518 156 518 156 518 195 c 0,33,34
 518 243 518 243 496.5 280.5 c 128,-1,35
 475 318 475 318 441 343.5 c 128,-1,36
 407 369 407 369 364.5 384 c 128,-1,37
 322 399 322 399 280 402 c 1,20,21
224 416 m 1,38,39
 207 423 207 423 182.5 436 c 128,-1,40
 158 449 158 449 135 468 c 128,-1,41
 112 487 112 487 95.5 512 c 128,-1,42
 79 537 79 537 79 567 c 0,43,44
 79 643 79 643 140 684.5 c 128,-1,45
 201 726 201 726 316 726 c 0,46,47
 376 726 376 726 419.5 712.5 c 128,-1,48
 463 699 463 699 492 676 c 128,-1,49
 521 653 521 653 535 623 c 128,-1,50
 549 593 549 593 549 560 c 0,51,52
 549 531 549 531 539.5 510 c 128,-1,53
 530 489 530 489 511.5 472.5 c 128,-1,54
 493 456 493 456 467 443 c 128,-1,55
 441 430 441 430 408 418 c 1,56,57
 444 401 444 401 477 380 c 128,-1,58
 510 359 510 359 534.5 332 c 128,-1,59
 559 305 559 305 574 271 c 128,-1,60
 589 237 589 237 589 195 c 0,61,62
 589 142 589 142 568 102.5 c 128,-1,63
 547 63 547 63 510.5 36.5 c 128,-1,64
 474 10 474 10 423.5 -3.5 c 128,-1,65
 373 -17 373 -17 315 -17 c 0,66,67
 260 -17 260 -17 211.5 -6.5 c 128,-1,68
 163 4 163 4 127 28.5 c 128,-1,69
 91 53 91 53 70 93.5 c 128,-1,70
 49 134 49 134 49 195 c 0,71,72
 49 242 49 242 69 279 c 128,-1,73
 89 316 89 316 116.5 344 c 128,-1,74
 144 372 144 372 174 390 c 128,-1,75
 204 408 204 408 224 416 c 1,38,39
EndSplineSet
EndChar

StartChar: less
Encoding: 60 60 100
Width: 621
Flags: W
LayerCount: 2
Fore
SplineSet
590 458 m 1,0,-1
 84 250 l 1,1,-1
 599 49 l 1,2,-1
 599 -2 l 1,3,-1
 59 224 l 1,4,-1
 59 278 l 1,5,-1
 590 511 l 1,6,-1
 590 458 l 1,0,-1
EndSplineSet
EndChar

StartChar: equal
Encoding: 61 61 101
Width: 598
Flags: W
LayerCount: 2
Fore
SplineSet
560 169 m 1,0,-1
 560 128 l 1,1,-1
 59 128 l 1,2,-1
 59 169 l 1,3,-1
 560 169 l 1,0,-1
560 378 m 1,4,-1
 560 335 l 1,5,-1
 59 335 l 1,6,-1
 59 378 l 1,7,-1
 560 378 l 1,4,-1
EndSplineSet
EndChar

StartChar: greater
Encoding: 62 62 102
Width: 618
Flags: W
LayerCount: 2
Fore
SplineSet
54 511 m 1,0,-1
 585 278 l 1,1,-1
 585 224 l 1,2,-1
 45 -2 l 1,3,-1
 45 49 l 1,4,-1
 560 250 l 1,5,-1
 54 458 l 1,6,-1
 54 511 l 1,0,-1
EndSplineSet
EndChar

StartChar: at
Encoding: 64 64 103
Width: 817
Flags: W
LayerCount: 2
Fore
SplineSet
503 395 m 1,0,1
 497 409 497 409 486.5 427 c 128,-1,2
 476 445 476 445 451 463 c 1,3,4
 429 475 429 475 409.5 470.5 c 128,-1,5
 390 466 390 466 375.5 450.5 c 128,-1,6
 361 435 361 435 352.5 410.5 c 128,-1,7
 344 386 344 386 344 358 c 0,8,9
 344 315 344 315 362.5 294.5 c 128,-1,10
 381 274 381 274 413 274 c 0,11,12
 433 274 433 274 456 289 c 128,-1,13
 479 304 479 304 497 324 c 1,14,-1
 503 395 l 1,0,1
806 441 m 0,15,16
 806 401 806 401 796.5 360 c 128,-1,17
 787 319 787 319 765 285.5 c 128,-1,18
 743 252 743 252 705.5 231 c 128,-1,19
 668 210 668 210 613 210 c 0,20,21
 559 210 559 210 529 230.5 c 128,-1,22
 499 251 499 251 494 279 c 1,23,24
 482 258 482 258 455.5 240.5 c 128,-1,25
 429 223 429 223 394 223 c 0,26,27
 371 223 371 223 350 229.5 c 128,-1,28
 329 236 329 236 313 252 c 128,-1,29
 297 268 297 268 287.5 295.5 c 128,-1,30
 278 323 278 323 278 365 c 0,31,32
 278 396 278 396 287.5 425.5 c 128,-1,33
 297 455 297 455 313.5 477 c 128,-1,34
 330 499 330 499 352 512.5 c 128,-1,35
 374 526 374 526 398 526 c 0,36,37
 408 526 408 526 422.5 523.5 c 128,-1,38
 437 521 437 521 452.5 513 c 128,-1,39
 468 505 468 505 484 490.5 c 128,-1,40
 500 476 500 476 513 453 c 1,41,-1
 529 518 l 1,42,-1
 579 500 l 1,43,44
 567 421 567 421 563 379.5 c 128,-1,45
 559 338 559 338 559 313 c 0,46,47
 559 252 559 252 619 252 c 0,48,49
 647 252 647 252 668 267.5 c 128,-1,50
 689 283 689 283 703 310 c 128,-1,51
 717 337 717 337 723.5 373 c 128,-1,52
 730 409 730 409 730 449 c 0,53,54
 730 513 730 513 704 561 c 128,-1,55
 678 609 678 609 636 640.5 c 128,-1,56
 594 672 594 672 540.5 688 c 128,-1,57
 487 704 487 704 432 704 c 0,58,59
 420 704 420 704 393 702.5 c 128,-1,60
 366 701 366 701 332 691.5 c 128,-1,61
 298 682 298 682 262 661.5 c 128,-1,62
 226 641 226 641 196 603.5 c 128,-1,63
 166 566 166 566 147 508.5 c 128,-1,64
 128 451 128 451 128 367 c 0,65,66
 128 279 128 279 148 220 c 128,-1,67
 168 161 168 161 200 123.5 c 128,-1,68
 232 86 232 86 271 66.5 c 128,-1,69
 310 47 310 47 348.5 38.5 c 128,-1,70
 387 30 387 30 420 29 c 128,-1,71
 453 28 453 28 473 28 c 0,72,73
 512 28 512 28 553.5 35.5 c 128,-1,74
 595 43 595 43 636 56 c 128,-1,75
 677 69 677 69 715.5 86 c 128,-1,76
 754 103 754 103 789 123 c 1,77,-1
 789 38 l 1,78,79
 701 6 701 6 612.5 -6 c 128,-1,80
 524 -18 524 -18 436 -18 c 0,81,82
 337 -18 337 -18 263 10 c 128,-1,83
 189 38 189 38 141 89 c 128,-1,84
 93 140 93 140 70 210.5 c 128,-1,85
 47 281 47 281 49 366 c 1,86,87
 49 455 49 455 78 526.5 c 128,-1,88
 107 598 107 598 158.5 648 c 128,-1,89
 210 698 210 698 280.5 725 c 128,-1,90
 351 752 351 752 435 752 c 0,91,92
 512 752 512 752 579.5 733 c 128,-1,93
 647 714 647 714 697.5 675 c 128,-1,94
 748 636 748 636 777 577.5 c 128,-1,95
 806 519 806 519 806 441 c 0,15,16
EndSplineSet
EndChar

StartChar: guillemotleft
Encoding: 171 171 104
Width: 562
Flags: W
LayerCount: 2
Fore
SplineSet
65 282 m 256,0,1
 65 294 65 294 77 302 c 2,2,-1
 247 423 l 1,3,4
 247 409 247 409 246 396 c 128,-1,5
 245 383 245 383 235 378 c 1,6,-1
 100 282 l 1,7,8
 109 275 109 275 129 260.5 c 128,-1,9
 149 246 149 246 170 231.5 c 128,-1,10
 191 217 191 217 208.5 205 c 128,-1,11
 226 193 226 193 231 190 c 0,12,13
 243 181 243 181 245 167 c 128,-1,14
 247 153 247 153 247 140 c 1,15,-1
 78 262 l 1,16,17
 65 270 65 270 65 282 c 256,0,1
313 282 m 256,18,19
 313 294 313 294 325 302 c 2,20,-1
 495 423 l 1,21,22
 495 409 495 409 494 396 c 128,-1,23
 493 383 493 383 483 378 c 1,24,-1
 348 282 l 1,25,26
 357 275 357 275 377 260.5 c 128,-1,27
 397 246 397 246 418 231.5 c 128,-1,28
 439 217 439 217 456.5 205 c 128,-1,29
 474 193 474 193 479 190 c 0,30,31
 491 181 491 181 493 167 c 128,-1,32
 495 153 495 153 495 140 c 1,33,-1
 326 262 l 1,34,35
 313 270 313 270 313 282 c 256,18,19
EndSplineSet
EndChar

StartChar: guillemotright
Encoding: 187 187 105
Width: 555
Flags: W
LayerCount: 2
Fore
SplineSet
509 282 m 256,0,1
 509 270 509 270 496 262 c 1,2,-1
 327 140 l 1,3,4
 327 153 327 153 329 167 c 128,-1,5
 331 181 331 181 343 190 c 0,6,7
 348 193 348 193 365.5 205 c 128,-1,8
 383 217 383 217 404 231.5 c 128,-1,9
 425 246 425 246 445 260.5 c 128,-1,10
 465 275 465 275 474 282 c 1,11,-1
 339 378 l 1,12,13
 329 383 329 383 328 396 c 128,-1,14
 327 409 327 409 327 423 c 1,15,-1
 497 302 l 2,16,17
 509 294 509 294 509 282 c 256,0,1
261 282 m 256,18,19
 261 270 261 270 248 262 c 1,20,-1
 79 140 l 1,21,22
 79 153 79 153 81 167 c 128,-1,23
 83 181 83 181 95 190 c 0,24,25
 100 193 100 193 117.5 205 c 128,-1,26
 135 217 135 217 156 231.5 c 128,-1,27
 177 246 177 246 197 260.5 c 128,-1,28
 217 275 217 275 226 282 c 1,29,-1
 91 378 l 1,30,31
 81 383 81 383 80 396 c 128,-1,32
 79 409 79 409 79 423 c 1,33,-1
 249 302 l 2,34,35
 261 294 261 294 261 282 c 256,18,19
EndSplineSet
EndChar

StartChar: ellipsis
Encoding: 8230 8230 106
Width: 813
Flags: W
LayerCount: 2
Fore
SplineSet
93 83 m 1,0,-1
 178 83 l 1,1,-1
 178 -1 l 1,2,-1
 93 -1 l 1,3,-1
 93 83 l 1,0,-1
387 83 m 1,4,-1
 472 83 l 1,5,-1
 472 -1 l 1,6,-1
 387 -1 l 1,7,-1
 387 83 l 1,4,-1
681 83 m 1,8,-1
 765 83 l 1,9,-1
 765 -1 l 1,10,-1
 681 -1 l 1,11,-1
 681 83 l 1,8,-1
EndSplineSet
EndChar

StartChar: endash
Encoding: 8211 8211 107
Width: 500
Flags: W
LayerCount: 2
Fore
SplineSet
511 304 m 1,0,-1
 511 253 l 1,1,-1
 11 253 l 1,2,-1
 11 304 l 1,3,-1
 511 304 l 1,0,-1
EndSplineSet
EndChar

StartChar: emdash
Encoding: 8212 8212 108
Width: 1000
Flags: W
LayerCount: 2
Fore
SplineSet
143 304 m 1,0,-1
 902 304 l 1,1,-1
 902 253 l 1,2,-1
 143 253 l 1,3,-1
 143 304 l 1,0,-1
EndSplineSet
EndChar

StartChar: quotedblleft
Encoding: 8220 8220 109
Width: 440
Flags: W
LayerCount: 2
Fore
SplineSet
183 683 m 1,0,1
 156 679 156 679 140.5 665.5 c 128,-1,2
 125 652 125 652 118 631.5 c 128,-1,3
 111 611 111 611 109.5 585.5 c 128,-1,4
 108 560 108 560 108 533 c 1,5,-1
 170 533 l 1,6,-1
 170 448 l 1,7,-1
 83 448 l 1,8,9
 73 504 73 504 73 548 c 0,10,11
 73 593 73 593 82.5 624.5 c 128,-1,12
 92 656 92 656 107.5 676.5 c 128,-1,13
 123 697 123 697 143 707.5 c 128,-1,14
 163 718 163 718 183 721 c 1,15,-1
 183 683 l 1,0,1
377 533 m 1,16,-1
 377 448 l 1,17,-1
 290 448 l 1,18,19
 287 477 287 477 285 501.5 c 128,-1,20
 283 526 283 526 283 548 c 0,21,22
 283 594 283 594 292 625.5 c 128,-1,23
 301 657 301 657 316 677 c 128,-1,24
 331 697 331 697 350.5 707.5 c 128,-1,25
 370 718 370 718 391 721 c 1,26,-1
 391 683 l 1,27,28
 364 679 364 679 349.5 665.5 c 128,-1,29
 335 652 335 652 327.5 631.5 c 128,-1,30
 320 611 320 611 318.5 585.5 c 128,-1,31
 317 560 317 560 317 533 c 1,32,-1
 377 533 l 1,16,-1
EndSplineSet
EndChar

StartChar: quotedblright
Encoding: 8221 8221 110
Width: 444
Flags: W
LayerCount: 2
Fore
SplineSet
290 722 m 1,0,-1
 378 722 l 1,1,2
 384 692 384 692 385.5 667.5 c 128,-1,3
 387 643 387 643 387 620 c 0,4,5
 387 575 387 575 377.5 544 c 128,-1,6
 368 513 368 513 353 493 c 128,-1,7
 338 473 338 473 318.5 463 c 128,-1,8
 299 453 299 453 278 449 c 1,9,-1
 278 485 l 1,10,11
 306 488 306 488 321 502 c 128,-1,12
 336 516 336 516 343 537 c 128,-1,13
 350 558 350 558 351 584 c 128,-1,14
 352 610 352 610 352 637 c 1,15,-1
 290 637 l 1,16,-1
 290 722 l 1,0,-1
84 722 m 1,17,-1
 171 722 l 1,18,19
 174 693 174 693 176.5 667.5 c 128,-1,20
 179 642 179 642 179 620 c 0,21,22
 179 575 179 575 169.5 544 c 128,-1,23
 160 513 160 513 144.5 493 c 128,-1,24
 129 473 129 473 109 463 c 128,-1,25
 89 453 89 453 69 449 c 1,26,-1
 69 485 l 1,27,28
 97 488 97 488 112 502 c 128,-1,29
 127 516 127 516 134 537 c 128,-1,30
 141 558 141 558 142.5 584 c 128,-1,31
 144 610 144 610 144 637 c 1,32,-1
 84 637 l 1,33,-1
 84 722 l 1,17,-1
EndSplineSet
EndChar

StartChar: quoteleft
Encoding: 8216 8216 111
Width: 278
Flags: W
LayerCount: 2
Fore
SplineSet
188 533 m 1,0,-1
 188 448 l 1,1,-1
 100 448 l 1,2,3
 95 478 95 478 93 501.5 c 128,-1,4
 91 525 91 525 91 548 c 0,5,6
 91 593 91 593 100 625 c 128,-1,7
 109 657 109 657 124.5 677 c 128,-1,8
 140 697 140 697 159.5 707.5 c 128,-1,9
 179 718 179 718 200 721 c 1,10,-1
 200 682 l 1,11,12
 173 679 173 679 158 665.5 c 128,-1,13
 143 652 143 652 135.5 631.5 c 128,-1,14
 128 611 128 611 126.5 585.5 c 128,-1,15
 125 560 125 560 125 533 c 1,16,-1
 188 533 l 1,0,-1
EndSplineSet
EndChar

StartChar: quoteright
Encoding: 8217 8217 112
Width: 278
Flags: W
LayerCount: 2
Fore
SplineSet
103 722 m 1,0,-1
 190 722 l 1,1,2
 194 693 194 693 196 667.5 c 128,-1,3
 198 642 198 642 198 620 c 0,4,5
 198 575 198 575 188.5 544 c 128,-1,6
 179 513 179 513 163.5 493 c 128,-1,7
 148 473 148 473 128.5 463 c 128,-1,8
 109 453 109 453 89 449 c 1,9,-1
 89 485 l 1,10,11
 117 488 117 488 132 502 c 128,-1,12
 147 516 147 516 154 537 c 128,-1,13
 161 558 161 558 162 584 c 128,-1,14
 163 610 163 610 163 637 c 1,15,-1
 103 637 l 1,16,-1
 103 722 l 1,0,-1
EndSplineSet
EndChar

StartChar: ordfeminine
Encoding: 170 170 113
Width: 277
Flags: W
LayerCount: 2
Fore
SplineSet
194 587 m 1,0,1
 171 582 171 582 156 581 c 128,-1,2
 141 580 141 580 125 580 c 0,3,4
 116 580 116 580 107 579 c 128,-1,5
 98 578 98 578 90 573 c 128,-1,6
 82 568 82 568 77 557 c 128,-1,7
 72 546 72 546 72 525 c 0,8,9
 72 497 72 497 88 484 c 128,-1,10
 104 471 104 471 127 471 c 0,11,12
 143 471 143 471 160.5 478.5 c 128,-1,13
 178 486 178 486 193 501 c 1,14,-1
 194 587 l 1,0,1
192 484 m 1,15,16
 179 473 179 473 159 461.5 c 128,-1,17
 139 450 139 450 111 450 c 0,18,19
 39 450 39 450 39 526 c 0,20,21
 39 541 39 541 43 554.5 c 128,-1,22
 47 568 47 568 56 578.5 c 128,-1,23
 65 589 65 589 80 595 c 128,-1,24
 95 601 95 601 118 601 c 0,25,26
 137 601 137 601 149 601 c 128,-1,27
 161 601 161 601 169 602.5 c 128,-1,28
 177 604 177 604 182.5 606.5 c 128,-1,29
 188 609 188 609 193 614 c 1,30,31
 193 640 193 640 190 655 c 128,-1,32
 187 670 187 670 180.5 678 c 128,-1,33
 174 686 174 686 163 688.5 c 128,-1,34
 152 691 152 691 136 691 c 0,35,36
 121 691 121 691 106 688.5 c 128,-1,37
 91 686 91 686 78 682 c 1,38,39
 76 675 76 675 74 665.5 c 128,-1,40
 72 656 72 656 70 645 c 1,41,-1
 59 645 l 1,42,43
 58 659 58 659 57.5 671 c 128,-1,44
 57 683 57 683 56 697 c 1,45,46
 90 714 90 714 139 714 c 0,47,48
 157 714 157 714 172.5 710 c 128,-1,49
 188 706 188 706 199.5 695 c 128,-1,50
 211 684 211 684 218 664.5 c 128,-1,51
 225 645 225 645 225 615 c 2,52,-1
 225 473 l 1,53,54
 234 471 234 471 244.5 468.5 c 128,-1,55
 255 466 255 466 264 464 c 1,56,-1
 264 453 l 1,57,-1
 207 453 l 1,58,-1
 192 484 l 1,15,16
EndSplineSet
EndChar

StartChar: ordmasculine
Encoding: 186 186 114
Width: 400
Flags: W
LayerCount: 2
Fore
SplineSet
96 592 m 0,0,1
 96 544 96 544 111 518.5 c 128,-1,2
 126 493 126 493 145 482 c 128,-1,3
 164 471 164 471 182.5 469.5 c 128,-1,4
 201 468 201 468 207 468 c 256,5,6
 213 468 213 468 231.5 470 c 128,-1,7
 250 472 250 472 270.5 484 c 128,-1,8
 291 496 291 496 306.5 521 c 128,-1,9
 322 546 322 546 322 592 c 0,10,11
 322 639 322 639 306.5 664 c 128,-1,12
 291 689 291 689 270.5 700.5 c 128,-1,13
 250 712 250 712 231.5 713.5 c 128,-1,14
 213 715 213 715 207 715 c 0,15,16
 200 715 200 715 182 713 c 128,-1,17
 164 711 164 711 145 699.5 c 128,-1,18
 126 688 126 688 111 663 c 128,-1,19
 96 638 96 638 96 592 c 0,0,1
207 731 m 1,20,21
 281 730 281 730 314 695 c 128,-1,22
 347 660 347 660 347 591 c 0,23,24
 347 561 347 561 339.5 536 c 128,-1,25
 332 511 332 511 315 492 c 128,-1,26
 298 473 298 473 271.5 462.5 c 128,-1,27
 245 452 245 452 207 452 c 256,28,29
 169 452 169 452 142.5 462 c 128,-1,30
 116 472 116 472 99.5 490.5 c 128,-1,31
 83 509 83 509 75.5 534.5 c 128,-1,32
 68 560 68 560 68 591 c 0,33,34
 68 660 68 660 104.5 695 c 128,-1,35
 141 730 141 730 207 731 c 1,20,21
EndSplineSet
EndChar

StartChar: cent
Encoding: 162 162 115
Width: 509
Flags: W
LayerCount: 2
Fore
SplineSet
288 604 m 1,0,-1
 321 604 l 1,1,-1
 321 530 l 1,2,3
 380 525 380 525 418.5 514.5 c 128,-1,4
 457 504 457 504 488 492 c 1,5,6
 486 478 486 478 484 467.5 c 128,-1,7
 482 457 482 457 480 445 c 1,8,9
 447 459 447 459 410.5 471.5 c 128,-1,10
 374 484 374 484 321 489 c 1,11,-1
 321 28 l 1,12,13
 384 34 384 34 428 47.5 c 128,-1,14
 472 61 472 61 497 73 c 1,15,16
 497 50 497 50 497 35.5 c 128,-1,17
 497 21 497 21 498 14 c 1,18,19
 477 8 477 8 458.5 3 c 128,-1,20
 440 -2 440 -2 420 -6 c 128,-1,21
 400 -10 400 -10 376.5 -12.5 c 128,-1,22
 353 -15 353 -15 321 -16 c 1,23,-1
 321 -124 l 1,24,-1
 288 -124 l 1,25,-1
 288 -14 l 1,26,27
 171 1 171 1 112 68.5 c 128,-1,28
 53 136 53 136 53 263 c 0,29,30
 53 329 53 329 71 378.5 c 128,-1,31
 89 428 89 428 121 461.5 c 128,-1,32
 153 495 153 495 195.5 512 c 128,-1,33
 238 529 238 529 288 529 c 1,34,-1
 288 604 l 1,0,-1
120 264 m 2,35,36
 120 155 120 155 166 98 c 128,-1,37
 212 41 212 41 288 30 c 1,38,-1
 288 490 l 1,39,40
 259 490 259 490 229 474 c 128,-1,41
 199 458 199 458 175 429 c 128,-1,42
 151 400 151 400 135.5 358 c 128,-1,43
 120 316 120 316 120 265 c 2,44,-1
 120 264 l 2,35,36
EndSplineSet
EndChar

StartChar: sterling
Encoding: 163 163 116
Width: 585
Flags: W
LayerCount: 2
Fore
SplineSet
539 197 m 2,0,1
 539 226 539 226 534 248 c 128,-1,2
 529 270 529 270 521 286.5 c 128,-1,3
 513 303 513 303 504 314 c 128,-1,4
 495 325 495 325 487 333 c 1,5,6
 494 341 494 341 500.5 347.5 c 128,-1,7
 507 354 507 354 513 361 c 1,8,9
 553 322 553 322 564.5 279 c 128,-1,10
 576 236 576 236 576 197 c 0,11,12
 576 143 576 143 556.5 105 c 128,-1,13
 537 67 537 67 504.5 42.5 c 128,-1,14
 472 18 472 18 429 7.5 c 128,-1,15
 386 -3 386 -3 340 -1 c 1,16,-1
 49 -1 l 1,17,-1
 49 42 l 1,18,19
 110 51 110 51 135 95 c 128,-1,20
 160 139 160 139 160 204 c 2,21,-1
 160 359 l 1,22,-1
 111 359 l 1,23,-1
 111 404 l 1,24,-1
 160 404 l 1,25,-1
 160 578 l 2,26,27
 160 623 160 623 176.5 655 c 128,-1,28
 193 687 193 687 220 708 c 128,-1,29
 247 729 247 729 281.5 738.5 c 128,-1,30
 316 748 316 748 351 748 c 0,31,32
 394 748 394 748 419 741 c 128,-1,33
 444 734 444 734 463 722 c 1,34,-1
 463 679 l 1,35,36
 431 694 431 694 406.5 699 c 128,-1,37
 382 704 382 704 359 704 c 0,38,39
 320 704 320 704 296 691.5 c 128,-1,40
 272 679 272 679 259 658 c 128,-1,41
 246 637 246 637 242 610 c 128,-1,42
 238 583 238 583 238 555 c 2,43,-1
 238 404 l 1,44,-1
 351 404 l 1,45,-1
 351 359 l 1,46,-1
 238 359 l 1,47,-1
 238 204 l 2,48,49
 238 162 238 162 213.5 121.5 c 128,-1,50
 189 81 189 81 157 43 c 1,51,-1
 334 33 l 1,52,53
 435 33 435 33 484 77.5 c 128,-1,54
 533 122 533 122 539 195 c 1,55,-1
 539 197 l 2,0,1
EndSplineSet
EndChar

StartChar: Oslash
Encoding: 216 216 117
Width: 824
Flags: W
LayerCount: 2
Fore
SplineSet
587 736 m 1,0,-1
 577 712 l 1,1,2
 693 668 693 668 745.5 580.5 c 128,-1,3
 798 493 798 493 798 356 c 0,4,5
 798 276 798 276 777.5 207.5 c 128,-1,6
 757 139 757 139 712 88.5 c 128,-1,7
 667 38 667 38 596 9 c 128,-1,8
 525 -20 525 -20 424 -20 c 0,9,10
 394 -20 394 -20 361.5 -16 c 128,-1,11
 329 -12 329 -12 293 -6 c 1,12,-1
 289 -20 l 1,13,-1
 272 -20 l 1,14,-1
 279 -5 l 1,15,16
 216 16 216 16 172.5 51 c 128,-1,17
 129 86 129 86 101.5 132.5 c 128,-1,18
 74 179 74 179 61.5 235 c 128,-1,19
 49 291 49 291 48 356 c 1,20,21
 48 444 48 444 76 514 c 128,-1,22
 104 584 104 584 154 632 c 128,-1,23
 204 680 204 680 273 705.5 c 128,-1,24
 342 731 342 731 424 731 c 0,25,26
 462 731 462 731 493.5 727.5 c 128,-1,27
 525 724 525 724 560 717 c 1,28,-1
 568 736 l 1,29,-1
 587 736 l 1,0,-1
125 357 m 0,30,31
 125 290 125 290 139 239 c 128,-1,32
 153 188 153 188 177 150 c 128,-1,33
 201 112 201 112 231.5 86 c 128,-1,34
 262 60 262 60 295 43 c 1,35,-1
 424 367 l 1,36,-1
 542 669 l 1,37,38
 515 676 515 676 496.5 679.5 c 128,-1,39
 478 683 478 683 464.5 684.5 c 128,-1,40
 451 686 451 686 441.5 686.5 c 128,-1,41
 432 687 432 687 423 687 c 0,42,43
 410 687 410 687 383.5 685.5 c 128,-1,44
 357 684 357 684 323.5 674.5 c 128,-1,45
 290 665 290 665 255 645 c 128,-1,46
 220 625 220 625 191 588 c 128,-1,47
 162 551 162 551 143.5 495 c 128,-1,48
 125 439 125 439 125 357 c 0,30,31
424 25 m 0,49,50
 434 25 434 25 461 26.5 c 128,-1,51
 488 28 488 28 522 37.5 c 128,-1,52
 556 47 556 47 593 67 c 128,-1,53
 630 87 630 87 661 124 c 128,-1,54
 692 161 692 161 712 217.5 c 128,-1,55
 732 274 732 274 732 357 c 0,56,57
 732 421 732 421 717.5 470.5 c 128,-1,58
 703 520 703 520 678.5 557 c 128,-1,59
 654 594 654 594 622.5 620 c 128,-1,60
 591 646 591 646 558 664 c 1,61,-1
 312 38 l 1,62,63
 352 27 352 27 377.5 26 c 128,-1,64
 403 25 403 25 424 25 c 0,49,50
EndSplineSet
EndChar

StartChar: florin
Encoding: 402 402 118
Width: 322
Flags: W
LayerCount: 2
Fore
SplineSet
423 697 m 1,0,1
 396 711 396 711 370 719 c 128,-1,2
 344 727 344 727 312 727 c 0,3,4
 260 727 260 727 232.5 714.5 c 128,-1,5
 205 702 205 702 192.5 680.5 c 128,-1,6
 180 659 180 659 178.5 629 c 128,-1,7
 177 599 177 599 177 563 c 2,8,-1
 177 517 l 1,9,-1
 306 517 l 1,10,-1
 306 474 l 1,11,-1
 177 474 l 1,12,-1
 177 -21 l 1,13,14
 175 -79 175 -79 160.5 -115.5 c 128,-1,15
 146 -152 146 -152 125.5 -173.5 c 128,-1,16
 105 -195 105 -195 84 -203.5 c 128,-1,17
 63 -212 63 -212 48 -215 c 1,18,-1
 48 -170 l 1,19,20
 63 -156 63 -156 73.5 -143.5 c 128,-1,21
 84 -131 84 -131 91 -115 c 128,-1,22
 98 -99 98 -99 103 -78.5 c 128,-1,23
 108 -58 108 -58 113 -28 c 1,24,-1
 113 474 l 1,25,-1
 27 474 l 1,26,-1
 27 517 l 1,27,-1
 113 517 l 1,28,-1
 113 563 l 2,29,30
 113 626 113 626 126 668 c 128,-1,31
 139 710 139 710 164.5 734.5 c 128,-1,32
 190 759 190 759 227 769 c 128,-1,33
 264 779 264 779 312 779 c 0,34,35
 338 779 338 779 368.5 769 c 128,-1,36
 399 759 399 759 422 748 c 1,37,-1
 423 697 l 1,0,1
EndSplineSet
EndChar

StartChar: Euro
Encoding: 8364 8364 119
Width: 615
Flags: W
LayerCount: 2
Fore
SplineSet
114 481 m 1,0,1
 142 626 142 626 214.5 697.5 c 128,-1,2
 287 769 287 769 402 769 c 0,3,4
 457 769 457 769 506.5 757.5 c 128,-1,5
 556 746 556 746 597 734 c 1,6,-1
 597 672 l 1,7,8
 552 692 552 692 502.5 708.5 c 128,-1,9
 453 725 453 725 402 725 c 0,10,11
 377 725 377 725 347.5 718 c 128,-1,12
 318 711 318 711 289 686.5 c 128,-1,13
 260 662 260 662 235 613.5 c 128,-1,14
 210 565 210 565 195 481 c 1,15,-1
 446 481 l 1,16,-1
 439 460 l 1,17,-1
 195 460 l 1,18,19
 194 434 194 434 192.5 415.5 c 128,-1,20
 191 397 191 397 191 379 c 128,-1,21
 191 361 191 361 192 341 c 128,-1,22
 193 321 193 321 196 293 c 1,23,-1
 391 293 l 1,24,25
 390 288 390 288 389 282.5 c 128,-1,26
 388 277 388 277 386 272 c 1,27,-1
 199 272 l 1,28,29
 220 188 220 188 252.5 143.5 c 128,-1,30
 285 99 285 99 316.5 79 c 128,-1,31
 348 59 348 59 372.5 56 c 128,-1,32
 397 53 397 53 402 53 c 0,33,34
 467 53 467 53 516 75.5 c 128,-1,35
 565 98 565 98 605 130 c 1,36,-1
 605 60 l 1,37,38
 592 51 592 51 572.5 40.5 c 128,-1,39
 553 30 553 30 527.5 21 c 128,-1,40
 502 12 502 12 470.5 6 c 128,-1,41
 439 0 439 0 402 0 c 0,42,43
 351 0 351 0 305.5 18.5 c 128,-1,44
 260 37 260 37 222.5 72 c 128,-1,45
 185 107 185 107 157 157.5 c 128,-1,46
 129 208 129 208 113 272 c 1,47,-1
 40 272 l 1,48,-1
 54 293 l 1,49,-1
 112 293 l 1,50,51
 110 338 110 338 109 378.5 c 128,-1,52
 108 419 108 419 113 460 c 1,53,-1
 40 460 l 1,54,-1
 53 481 l 1,55,-1
 114 481 l 1,0,1
EndSplineSet
EndChar

StartChar: guilsinglleft
Encoding: 8249 8249 120
Width: 306
Flags: W
LayerCount: 2
Fore
SplineSet
69 282 m 256,0,1
 69 294 69 294 81 302 c 2,2,-1
 251 423 l 1,3,4
 251 409 251 409 250 396 c 128,-1,5
 249 383 249 383 239 378 c 1,6,-1
 104 282 l 1,7,8
 113 275 113 275 133 260.5 c 128,-1,9
 153 246 153 246 174 231.5 c 128,-1,10
 195 217 195 217 212.5 205 c 128,-1,11
 230 193 230 193 235 190 c 0,12,13
 247 181 247 181 249 167 c 128,-1,14
 251 153 251 153 251 140 c 1,15,-1
 82 262 l 1,16,17
 69 270 69 270 69 282 c 256,0,1
EndSplineSet
EndChar

StartChar: guilsinglright
Encoding: 8250 8250 121
Width: 311
Flags: W
LayerCount: 2
Fore
SplineSet
257 282 m 256,0,1
 257 270 257 270 244 262 c 1,2,-1
 75 140 l 1,3,4
 75 153 75 153 77 167 c 128,-1,5
 79 181 79 181 91 190 c 0,6,7
 96 193 96 193 113.5 205 c 128,-1,8
 131 217 131 217 152 231.5 c 128,-1,9
 173 246 173 246 193 260.5 c 128,-1,10
 213 275 213 275 222 282 c 1,11,-1
 87 378 l 1,12,13
 77 383 77 383 76 396 c 128,-1,14
 75 409 75 409 75 423 c 1,15,-1
 245 302 l 2,16,17
 257 294 257 294 257 282 c 256,0,1
EndSplineSet
EndChar

StartChar: circumflex
Encoding: 710 710 122
Width: 245
Flags: W
LayerCount: 2
Fore
SplineSet
251 625 m 1,0,-1
 208 625 l 1,1,-1
 125 733 l 1,2,-1
 42 625 l 1,3,-1
 -1 625 l 1,4,-1
 102 754 l 1,5,-1
 148 754 l 1,6,-1
 251 625 l 1,0,-1
EndSplineSet
EndChar

StartChar: tilde
Encoding: 732 732 123
Width: 222
Flags: W
LayerCount: 2
Fore
SplineSet
-18 705 m 1,0,1
 -14 711 -14 711 -1.5 718 c 128,-1,2
 11 725 11 725 39 725 c 0,3,4
 59 725 59 725 78.5 720.5 c 128,-1,5
 98 716 98 716 117.5 711 c 128,-1,6
 137 706 137 706 157 701.5 c 128,-1,7
 177 697 177 697 198 697 c 0,8,9
 218 697 218 697 233.5 699.5 c 128,-1,10
 249 702 249 702 261 707 c 1,11,-1
 261 669 l 1,12,13
 233 646 233 646 199 646 c 0,14,15
 176 646 176 646 156.5 650 c 128,-1,16
 137 654 137 654 118 659 c 128,-1,17
 99 664 99 664 79 668 c 128,-1,18
 59 672 59 672 37 672 c 0,19,20
 8 672 8 672 -17 662 c 1,21,-1
 -18 705 l 1,0,1
EndSplineSet
EndChar

StartChar: bullet
Encoding: 8226 8226 124
Width: 500
Flags: W
LayerCount: 2
Fore
SplineSet
78 364 m 0,0,1
 78 401 78 401 92 434 c 128,-1,2
 106 467 106 467 131 492 c 128,-1,3
 156 517 156 517 188.5 531 c 128,-1,4
 221 545 221 545 259 545 c 0,5,6
 296 545 296 545 329 531 c 128,-1,7
 362 517 362 517 387 492 c 128,-1,8
 412 467 412 467 426 434 c 128,-1,9
 440 401 440 401 440 364 c 0,10,11
 440 326 440 326 426 293.5 c 128,-1,12
 412 261 412 261 387 236 c 128,-1,13
 362 211 362 211 329 197 c 128,-1,14
 296 183 296 183 259 183 c 0,15,16
 221 183 221 183 188.5 197 c 128,-1,17
 156 211 156 211 131 236 c 128,-1,18
 106 261 106 261 92 293.5 c 128,-1,19
 78 326 78 326 78 364 c 0,0,1
EndSplineSet
EndChar

StartChar: braceleft
Encoding: 123 123 125
Width: 447
Flags: W
LayerCount: 2
Fore
SplineSet
430 -213 m 1,0,-1
 362 -213 l 2,1,2
 322 -213 322 -213 284.5 -202.5 c 128,-1,3
 247 -192 247 -192 217.5 -167.5 c 128,-1,4
 188 -143 188 -143 170.5 -103 c 128,-1,5
 153 -63 153 -63 153 -3 c 2,6,-1
 153 150 l 2,7,8
 153 175 153 175 143.5 192.5 c 128,-1,9
 134 210 134 210 120 221 c 128,-1,10
 106 232 106 232 91 238 c 128,-1,11
 76 244 76 244 66 248 c 1,12,-1
 66 294 l 1,13,14
 98 307 98 307 124 330.5 c 128,-1,15
 150 354 150 354 153 396 c 1,16,-1
 153 551 l 2,17,18
 153 606 153 606 170.5 644.5 c 128,-1,19
 188 683 188 683 217.5 707 c 128,-1,20
 247 731 247 731 284.5 742 c 128,-1,21
 322 753 322 753 362 753 c 2,22,-1
 430 753 l 1,23,-1
 430 706 l 1,24,-1
 372 706 l 2,25,26
 361 706 361 706 336.5 704.5 c 128,-1,27
 312 703 312 703 286.5 692.5 c 128,-1,28
 261 682 261 682 241.5 660 c 128,-1,29
 222 638 222 638 222 597 c 2,30,-1
 222 397 l 2,31,32
 222 381 222 381 218.5 363.5 c 128,-1,33
 215 346 215 346 207.5 331 c 128,-1,34
 200 316 200 316 188 304.5 c 128,-1,35
 176 293 176 293 159 290 c 1,36,-1
 159 252 l 1,37,38
 194 245 194 245 208 214.5 c 128,-1,39
 222 184 222 184 222 150 c 2,40,-1
 222 -60 l 2,41,42
 222 -102 222 -102 241.5 -123.5 c 128,-1,43
 261 -145 261 -145 286.5 -155 c 128,-1,44
 312 -165 312 -165 336.5 -166 c 128,-1,45
 361 -167 361 -167 372 -167 c 2,46,-1
 430 -167 l 1,47,-1
 430 -213 l 1,0,-1
EndSplineSet
EndChar

StartChar: bar
Encoding: 124 124 126
Width: 229
Flags: W
LayerCount: 2
Fore
SplineSet
100 809 m 1,0,-1
 147 809 l 1,1,-1
 147 -234 l 1,2,-1
 100 -234 l 1,3,-1
 100 809 l 1,0,-1
EndSplineSet
EndChar

StartChar: braceright
Encoding: 125 125 127
Width: 444
Flags: W
LayerCount: 2
Fore
SplineSet
37 -213 m 1,0,-1
 37 -167 l 1,1,-1
 95 -167 l 2,2,3
 107 -167 107 -167 132 -166 c 128,-1,4
 157 -165 157 -165 182.5 -155 c 128,-1,5
 208 -145 208 -145 227 -123.5 c 128,-1,6
 246 -102 246 -102 246 -60 c 2,7,-1
 246 150 l 2,8,9
 246 185 246 185 260 214.5 c 128,-1,10
 274 244 274 244 309 251 c 1,11,-1
 309 289 l 1,12,13
 291 292 291 292 279 303.5 c 128,-1,14
 267 315 267 315 259.5 330.5 c 128,-1,15
 252 346 252 346 249 363.5 c 128,-1,16
 246 381 246 381 246 397 c 2,17,-1
 246 597 l 2,18,19
 246 638 246 638 227 660 c 128,-1,20
 208 682 208 682 182.5 692.5 c 128,-1,21
 157 703 157 703 132 704.5 c 128,-1,22
 107 706 107 706 95 706 c 2,23,-1
 37 706 l 1,24,-1
 37 753 l 1,25,-1
 105 753 l 2,26,27
 146 753 146 753 184 742 c 128,-1,28
 222 731 222 731 251 707 c 128,-1,29
 280 683 280 683 297.5 644.5 c 128,-1,30
 315 606 315 606 315 551 c 2,31,-1
 315 397 l 2,32,33
 315 371 315 371 324.5 353.5 c 128,-1,34
 334 336 334 336 348 324 c 128,-1,35
 362 312 362 312 377 305 c 128,-1,36
 392 298 392 298 404 294 c 1,37,-1
 402 247 l 1,38,39
 387 241 387 241 372 231.5 c 128,-1,40
 357 222 357 222 344.5 210 c 128,-1,41
 332 198 332 198 324 183 c 128,-1,42
 316 168 316 168 315 150 c 1,43,-1
 315 -3 l 2,44,45
 315 -63 315 -63 297.5 -103 c 128,-1,46
 280 -143 280 -143 251 -167.5 c 128,-1,47
 222 -192 222 -192 184 -202.5 c 128,-1,48
 146 -213 146 -213 105 -213 c 2,49,-1
 37 -213 l 1,0,-1
EndSplineSet
EndChar

StartChar: asciitilde
Encoding: 126 126 128
Width: 600
Flags: W
LayerCount: 2
Fore
SplineSet
207 216 m 0,0,1
 181 216 181 216 154.5 209.5 c 128,-1,2
 128 203 128 203 108 197 c 1,3,4
 108 211 108 211 107 218 c 128,-1,5
 106 225 106 225 106 237 c 1,6,7
 134 250 134 250 158 259 c 128,-1,8
 182 268 182 268 209 268 c 0,9,10
 245 268 245 268 267.5 263.5 c 128,-1,11
 290 259 290 259 311 254 c 128,-1,12
 332 249 332 249 356 244.5 c 128,-1,13
 380 240 380 240 419 240 c 0,14,15
 448 240 448 240 473 246.5 c 128,-1,16
 498 253 498 253 518 262 c 1,17,-1
 518 217 l 1,18,19
 477 200 477 200 455.5 194.5 c 128,-1,20
 434 189 434 189 419 189 c 0,21,22
 382 189 382 189 358 193 c 128,-1,23
 334 197 334 197 312.5 202.5 c 128,-1,24
 291 208 291 208 267.5 212 c 128,-1,25
 244 216 244 216 207 216 c 0,0,1
EndSplineSet
EndChar

StartChar: yen
Encoding: 165 165 129
Width: 690
Flags: W
LayerCount: 2
Fore
SplineSet
24 731 m 1,0,-1
 107 731 l 1,1,-1
 352 328 l 1,2,3
 413 425 413 425 479.5 529.5 c 128,-1,4
 546 634 546 634 608 731 c 1,5,-1
 692 731 l 1,6,-1
 427 325 l 1,7,-1
 601 325 l 1,8,-1
 601 284 l 1,9,-1
 396 284 l 1,10,-1
 396 115 l 1,11,-1
 601 115 l 1,12,-1
 601 75 l 1,13,-1
 396 75 l 1,14,-1
 396 0 l 1,15,-1
 321 0 l 1,16,-1
 321 75 l 1,17,-1
 118 75 l 1,18,-1
 118 115 l 1,19,-1
 321 115 l 1,20,-1
 321 284 l 1,21,-1
 118 284 l 1,22,-1
 118 325 l 1,23,-1
 289 325 l 1,24,-1
 24 731 l 1,0,-1
EndSplineSet
EndChar

StartChar: bracketleft
Encoding: 91 91 130
Width: 324
Flags: W
LayerCount: 2
Fore
SplineSet
323 705 m 1,0,-1
 165 705 l 1,1,-1
 165 -169 l 1,2,-1
 323 -169 l 1,3,-1
 323 -213 l 1,4,-1
 90 -213 l 1,5,-1
 90 750 l 1,6,-1
 323 750 l 1,7,-1
 323 705 l 1,0,-1
EndSplineSet
EndChar

StartChar: bracketright
Encoding: 93 93 131
Width: 324
Flags: W
LayerCount: 2
Fore
SplineSet
247 750 m 1,0,-1
 247 -212 l 1,1,-1
 15 -212 l 1,2,-1
 15 -166 l 1,3,-1
 173 -166 l 1,4,-1
 173 705 l 1,5,-1
 15 705 l 1,6,-1
 15 750 l 1,7,-1
 247 750 l 1,0,-1
EndSplineSet
EndChar

StartChar: asciicircum
Encoding: 94 94 132
Width: 602
Flags: W
LayerCount: 2
Fore
SplineSet
64 288 m 1,0,-1
 294 715 l 1,1,-1
 348 715 l 1,2,-1
 571 280 l 1,3,-1
 521 280 l 1,4,-1
 322 695 l 1,5,-1
 116 287 l 1,6,-1
 64 288 l 1,0,-1
EndSplineSet
EndChar

StartChar: underscore
Encoding: 95 95 133
Width: 500
Flags: W
LayerCount: 2
Fore
SplineSet
511 -120 m 1,0,-1
 511 -139 l 1,1,-1
 10 -139 l 1,2,-1
 10 -120 l 1,3,-1
 511 -120 l 1,0,-1
EndSplineSet
EndChar

StartChar: grave
Encoding: 96 96 134
Width: 222
Flags: W
LayerCount: 2
Fore
SplineSet
82 751 m 1,0,-1
 132 639 l 1,1,-1
 90 639 l 1,2,-1
 4 751 l 1,3,-1
 82 751 l 1,0,-1
EndSplineSet
EndChar

StartChar: periodcentered
Encoding: 65543 -1 135
Width: 290
Flags: W
LayerCount: 2
Fore
SplineSet
106 391 m 1,0,-1
 191 391 l 1,1,-1
 191 306 l 1,2,-1
 106 306 l 1,3,-1
 106 391 l 1,0,-1
EndSplineSet
EndChar

StartChar: acute
Encoding: 180 180 136
Width: 222
Flags: W
LayerCount: 2
Fore
SplineSet
218 751 m 1,0,1
 194 719 194 719 180 701 c 128,-1,2
 166 683 166 683 157.5 672 c 128,-1,3
 149 661 149 661 143.5 654 c 128,-1,4
 138 647 138 647 131 639 c 1,5,-1
 89 639 l 1,6,7
 103 669 103 669 114 695.5 c 128,-1,8
 125 722 125 722 138 751 c 1,9,-1
 218 751 l 1,0,1
EndSplineSet
EndChar

StartChar: dieresis
Encoding: 168 168 137
Width: 222
Flags: W
LayerCount: 2
Fore
SplineSet
252 715 m 1,0,-1
 252 634 l 1,1,-1
 185 634 l 1,2,-1
 185 715 l 1,3,-1
 252 715 l 1,0,-1
46 715 m 1,4,-1
 46 634 l 1,5,-1
 -20 634 l 1,6,-1
 -20 715 l 1,7,-1
 46 715 l 1,4,-1
252 715 m 1,8,-1
 252 634 l 1,9,-1
 185 634 l 1,10,-1
 185 715 l 1,11,-1
 252 715 l 1,8,-1
46 715 m 1,12,-1
 46 634 l 1,13,-1
 -20 634 l 1,14,-1
 -20 715 l 1,15,-1
 46 715 l 1,12,-1
EndSplineSet
EndChar

StartChar: periodcentered
Encoding: 183 183 138
Width: 290
Flags: W
LayerCount: 2
Fore
SplineSet
106 391 m 1,0,-1
 191 391 l 1,1,-1
 191 306 l 1,2,-1
 106 306 l 1,3,-1
 106 391 l 1,0,-1
EndSplineSet
EndChar

StartChar: quotesinglbase
Encoding: 8218 8218 139
Width: 278
Flags: W
LayerCount: 2
Fore
SplineSet
106 84 m 1,0,-1
 193 84 l 1,1,2
 197 55 197 55 199 30 c 128,-1,3
 201 5 201 5 201 -15 c 0,4,5
 201 -60 201 -60 192 -91.5 c 128,-1,6
 183 -123 183 -123 167.5 -143.5 c 128,-1,7
 152 -164 152 -164 132.5 -174 c 128,-1,8
 113 -184 113 -184 92 -187 c 1,9,-1
 92 -152 l 1,10,11
 120 -149 120 -149 135 -134.5 c 128,-1,12
 150 -120 150 -120 157 -99 c 128,-1,13
 164 -78 164 -78 165 -52 c 128,-1,14
 166 -26 166 -26 166 0 c 1,15,-1
 106 0 l 1,16,-1
 106 84 l 1,0,-1
EndSplineSet
EndChar

StartChar: quotedblbase
Encoding: 8222 8222 140
Width: 487
Flags: W
LayerCount: 2
Fore
SplineSet
102 84 m 1,0,-1
 188 84 l 1,1,2
 197 25 197 25 197 -15 c 0,3,4
 197 -60 197 -60 188 -91.5 c 128,-1,5
 179 -123 179 -123 163.5 -143.5 c 128,-1,6
 148 -164 148 -164 128.5 -174 c 128,-1,7
 109 -184 109 -184 88 -187 c 1,8,-1
 88 -152 l 1,9,10
 115 -149 115 -149 130 -134.5 c 128,-1,11
 145 -120 145 -120 152 -99 c 128,-1,12
 159 -78 159 -78 160 -52 c 128,-1,13
 161 -26 161 -26 161 0 c 1,14,-1
 102 0 l 1,15,-1
 102 84 l 1,0,-1
328 84 m 1,16,-1
 415 84 l 1,17,18
 420 53 420 53 422.5 30.5 c 128,-1,19
 425 8 425 8 425 -15 c 0,20,21
 425 -61 425 -61 415.5 -92.5 c 128,-1,22
 406 -124 406 -124 390.5 -144 c 128,-1,23
 375 -164 375 -164 355 -174 c 128,-1,24
 335 -184 335 -184 315 -187 c 1,25,-1
 315 -152 l 1,26,27
 343 -149 343 -149 357.5 -135 c 128,-1,28
 372 -121 372 -121 378.5 -100.5 c 128,-1,29
 385 -80 385 -80 386 -54 c 128,-1,30
 387 -28 387 -28 387 -1 c 1,31,32
 374 -1 374 -1 358 -0.5 c 128,-1,33
 342 0 342 0 328 0 c 1,34,-1
 328 84 l 1,16,-1
EndSplineSet
EndChar

StartChar: cedilla
Encoding: 184 184 141
Width: 245
Flags: W
LayerCount: 2
Fore
SplineSet
109 -91 m 0,0,1
 100 -91 100 -91 90.5 -92 c 128,-1,2
 81 -93 81 -93 72 -95 c 1,3,4
 78 -90 78 -90 90.5 -63.5 c 128,-1,5
 103 -37 103 -37 123 0 c 1,6,-1
 130 0 l 1,7,-1
 89 -78 l 1,8,9
 122 -74 122 -74 144 -80 c 128,-1,10
 166 -86 166 -86 180 -97 c 128,-1,11
 194 -108 194 -108 200 -123 c 128,-1,12
 206 -138 206 -138 206 -151 c 0,13,14
 206 -185 206 -185 184 -202.5 c 128,-1,15
 162 -220 162 -220 125 -224 c 1,16,17
 104 -224 104 -224 90.5 -222.5 c 128,-1,18
 77 -221 77 -221 61 -216 c 1,19,-1
 61 -196 l 1,20,21
 86 -206 86 -206 109 -206 c 0,22,23
 116 -206 116 -206 126.5 -204.5 c 128,-1,24
 137 -203 137 -203 146.5 -197.5 c 128,-1,25
 156 -192 156 -192 163 -181 c 128,-1,26
 170 -170 170 -170 170 -151 c 0,27,28
 170 -91 170 -91 109 -91 c 0,0,1
EndSplineSet
EndChar

StartChar: caron
Encoding: 711 711 142
Width: 241
Flags: W
LayerCount: 2
Fore
SplineSet
148 625 m 1,0,-1
 102 625 l 1,1,-1
 -1 754 l 1,2,-1
 42 754 l 1,3,-1
 125 646 l 1,4,-1
 208 754 l 1,5,-1
 251 754 l 1,6,-1
 148 625 l 1,0,-1
EndSplineSet
EndChar

StartChar: tt
Encoding: 65544 -1 143
Width: 653
Flags: W
LayerCount: 2
Fore
SplineSet
245 517 m 1,0,-1
 425 517 l 1,1,2
 432 576 432 576 436.5 613.5 c 128,-1,3
 441 651 441 651 445 672 c 1,4,-1
 491 672 l 1,5,-1
 491 517 l 1,6,-1
 624 517 l 1,7,-1
 624 474 l 1,8,-1
 491 474 l 1,9,-1
 491 139 l 2,10,11
 491 106 491 106 493 85.5 c 128,-1,12
 495 65 495 65 501 54.5 c 128,-1,13
 507 44 507 44 518.5 40.5 c 128,-1,14
 530 37 530 37 550 37 c 0,15,16
 593 37 593 37 622 54 c 1,17,-1
 622 3 l 1,18,19
 587 -5 587 -5 564.5 -8.5 c 128,-1,20
 542 -12 542 -12 526 -12 c 0,21,22
 517 -12 517 -12 504 -10.5 c 128,-1,23
 491 -9 491 -9 477.5 -4.5 c 128,-1,24
 464 0 464 0 452 7.5 c 128,-1,25
 440 15 440 15 433 28 c 1,26,27
 408 7 408 7 374.5 -4 c 128,-1,28
 341 -15 341 -15 304 -15 c 0,29,30
 277 -15 277 -15 243.5 -13.5 c 128,-1,31
 210 -12 210 -12 180.5 1.5 c 128,-1,32
 151 15 151 15 130.5 46.5 c 128,-1,33
 110 78 110 78 110 138 c 2,34,-1
 110 473 l 1,35,-1
 9 473 l 1,36,-1
 9 516 l 1,37,-1
 109 516 l 1,38,-1
 130 671 l 1,39,-1
 175 671 l 1,40,-1
 175 138 l 2,41,42
 175 98 175 98 191.5 77 c 128,-1,43
 208 56 208 56 231 47 c 128,-1,44
 254 38 254 38 278.5 37 c 128,-1,45
 303 36 303 36 320 36 c 0,46,47
 328 36 328 36 346 40 c 128,-1,48
 364 44 364 44 382 51.5 c 128,-1,49
 400 59 400 59 413.5 70.5 c 128,-1,50
 427 82 427 82 427 97 c 2,51,-1
 427 474 l 1,52,-1
 245 474 l 1,53,-1
 245 517 l 1,0,-1
EndSplineSet
Ligature2: "'liga' Standard Ligatures in Latin lookup 0 subtable" t t
EndChar

StartChar: Wh
Encoding: 65545 -1 144
Width: 1701
Flags: W
LayerCount: 2
Fore
SplineSet
130 680 m 1,0,-1
 346 50 l 1,1,-1
 514 716 l 1,2,-1
 599 716 l 1,3,-1
 765 45 l 1,4,-1
 909 515 l 1,5,6
 940 611 940 611 968 667.5 c 128,-1,7
 996 724 996 724 1022.5 754 c 128,-1,8
 1049 784 1049 784 1075.5 792.5 c 128,-1,9
 1102 801 1102 801 1131 801 c 0,10,11
 1197 801 1197 801 1231 765.5 c 128,-1,12
 1265 730 1265 730 1265 642 c 2,13,-1
 1265 406 l 1,14,15
 1278 430 1278 430 1299 451.5 c 128,-1,16
 1320 473 1320 473 1346 489.5 c 128,-1,17
 1372 506 1372 506 1402 516 c 128,-1,18
 1432 526 1432 526 1464 526 c 0,19,20
 1499 526 1499 526 1528 513 c 128,-1,21
 1557 500 1557 500 1578 473 c 128,-1,22
 1599 446 1599 446 1610.5 405 c 128,-1,23
 1622 364 1622 364 1622 309 c 2,24,-1
 1621 39 l 1,25,-1
 1701 22 l 1,26,-1
 1701 0 l 1,27,-1
 1478 0 l 1,28,-1
 1478 21 l 1,29,-1
 1556 39 l 1,30,-1
 1558 316 l 2,31,32
 1558 392 1558 392 1526 434 c 128,-1,33
 1494 476 1494 476 1434 476 c 0,34,35
 1401 476 1401 476 1370.5 463.5 c 128,-1,36
 1340 451 1340 451 1316.5 430 c 128,-1,37
 1293 409 1293 409 1279 382 c 128,-1,38
 1265 355 1265 355 1265 326 c 2,39,-1
 1265 39 l 1,40,41
 1283 35 1283 35 1305.5 30.5 c 128,-1,42
 1328 26 1328 26 1347 21 c 1,43,-1
 1347 0 l 1,44,-1
 1121 0 l 1,45,-1
 1121 22 l 1,46,-1
 1200 38 l 1,47,-1
 1200 618 l 2,48,49
 1200 694 1200 694 1185.5 729 c 128,-1,50
 1171 764 1171 764 1131 764 c 0,51,52
 1113 764 1113 764 1097.5 755 c 128,-1,53
 1082 746 1082 746 1066 719 c 128,-1,54
 1050 692 1050 692 1031 642 c 128,-1,55
 1012 592 1012 592 986 511 c 2,56,-1
 818 0 l 1,57,-1
 716 0 l 1,58,-1
 565 645 l 1,59,-1
 546 645 l 1,60,-1
 392 0 l 1,61,-1
 297 0 l 1,62,-1
 48 679 l 1,63,-1
 -23 696 l 1,64,-1
 -23 716 l 1,65,-1
 200 716 l 1,66,-1
 200 695 l 1,67,-1
 130 680 l 1,0,-1
EndSplineSet
Ligature2: "'liga' Standard Ligatures in Latin lookup 0 subtable" W h
EndChar

StartChar: wh
Encoding: 65546 -1 145
Width: 1357
Flags: W
LayerCount: 2
Fore
SplineSet
117 479 m 1,0,-1
 223 50 l 1,1,-1
 369 517 l 1,2,-1
 436 517 l 1,3,-1
 563 49 l 1,4,-1
 651 476 l 1,5,6
 643 477 643 477 615.5 491.5 c 128,-1,7
 588 506 588 506 558.5 533.5 c 128,-1,8
 529 561 529 561 505.5 602 c 128,-1,9
 482 643 482 643 482 698 c 0,10,11
 482 731 482 731 495 753.5 c 128,-1,12
 508 776 508 776 530 789 c 128,-1,13
 552 802 552 802 581 807.5 c 128,-1,14
 610 813 610 813 643 813 c 0,15,16
 691 813 691 813 739.5 807.5 c 128,-1,17
 788 802 788 802 827 796 c 128,-1,18
 866 790 866 790 890 784.5 c 128,-1,19
 914 779 914 779 914 779 c 1,20,-1
 915 412 l 1,21,22
 927 434 927 434 948 456 c 128,-1,23
 969 478 969 478 995.5 495 c 128,-1,24
 1022 512 1022 512 1052.5 522.5 c 128,-1,25
 1083 533 1083 533 1115 533 c 0,26,27
 1187 533 1187 533 1231.5 479.5 c 128,-1,28
 1276 426 1276 426 1276 313 c 2,29,-1
 1276 40 l 1,30,-1
 1356 22 l 1,31,-1
 1356 0 l 1,32,-1
 1130 0 l 1,33,-1
 1130 21 l 1,34,-1
 1211 40 l 1,35,-1
 1211 320 l 2,36,37
 1211 397 1211 397 1178.5 440 c 128,-1,38
 1146 483 1146 483 1085 483 c 0,39,40
 1052 483 1052 483 1021 470.5 c 128,-1,41
 990 458 990 458 966.5 437 c 128,-1,42
 943 416 943 416 929 388.5 c 128,-1,43
 915 361 915 361 915 331 c 2,44,-1
 915 40 l 1,45,-1
 997 21 l 1,46,-1
 997 0 l 1,47,-1
 769 0 l 1,48,-1
 769 22 l 1,49,-1
 849 38 l 1,50,-1
 849 742 l 1,51,52
 791 763 791 763 738.5 773.5 c 128,-1,53
 686 784 686 784 646 784 c 0,54,55
 590 784 590 784 556 763.5 c 128,-1,56
 522 743 522 743 522 693 c 0,57,58
 522 667 522 667 533 637.5 c 128,-1,59
 544 608 544 608 568.5 582 c 128,-1,60
 593 556 593 556 632 538 c 128,-1,61
 671 520 671 520 726 517 c 1,62,-1
 609 0 l 1,63,-1
 527 0 l 1,64,-1
 403 485 l 1,65,-1
 260 0 l 1,66,-1
 178 0 l 1,67,-1
 54 480 l 1,68,-1
 -23 494 l 1,69,-1
 -23 517 l 1,70,-1
 204 517 l 1,71,-1
 204 494 l 1,72,-1
 117 479 l 1,0,-1
EndSplineSet
Ligature2: "'liga' Standard Ligatures in Latin lookup 0 subtable" w h
EndChar

StartChar: St
Encoding: 65547 -1 146
Width: 943
Flags: W
LayerCount: 2
Fore
SplineSet
727 517 m 1,0,1
 752 585 752 585 766.5 635 c 128,-1,2
 781 685 781 685 781 717 c 0,3,4
 781 751 781 751 763 769.5 c 128,-1,5
 745 788 745 788 702 788 c 0,6,7
 679 788 679 788 652.5 779 c 128,-1,8
 626 770 626 770 602 750.5 c 128,-1,9
 578 731 578 731 559 700 c 128,-1,10
 540 669 540 669 532 625 c 1,11,-1
 530 584 l 1,12,-1
 508 584 l 1,13,-1
 492 656 l 1,14,15
 438 679 438 679 396 685.5 c 128,-1,16
 354 692 354 692 312 692 c 0,17,18
 278 692 278 692 247 682 c 128,-1,19
 216 672 216 672 193 654 c 128,-1,20
 170 636 170 636 156 609.5 c 128,-1,21
 142 583 142 583 142 550 c 256,22,23
 142 517 142 517 152.5 494 c 128,-1,24
 163 471 163 471 183.5 454 c 128,-1,25
 204 437 204 437 233 425 c 128,-1,26
 262 413 262 413 299 402 c 0,27,28
 341 390 341 390 387 373.5 c 128,-1,29
 433 357 433 357 471.5 330.5 c 128,-1,30
 510 304 510 304 535.5 265 c 128,-1,31
 561 226 561 226 561 170 c 0,32,33
 561 111 561 111 532.5 74 c 128,-1,34
 504 37 504 37 462 16 c 128,-1,35
 420 -5 420 -5 373 -12.5 c 128,-1,36
 326 -20 326 -20 290 -20 c 0,37,38
 245 -20 245 -20 209.5 -14.5 c 128,-1,39
 174 -9 174 -9 146 0 c 128,-1,40
 118 9 118 9 97.5 19 c 128,-1,41
 77 29 77 29 64 38 c 1,42,-1
 64 154 l 1,43,-1
 84 154 l 1,44,-1
 100 82 l 1,45,46
 139 59 139 59 187 43.5 c 128,-1,47
 235 28 235 28 290 28 c 0,48,49
 331 28 331 28 366.5 39 c 128,-1,50
 402 50 402 50 428.5 69.5 c 128,-1,51
 455 89 455 89 470 114.5 c 128,-1,52
 485 140 485 140 485 170 c 0,53,54
 485 186 485 186 481 209 c 128,-1,55
 477 232 477 232 459 255.5 c 128,-1,56
 441 279 441 279 404.5 301.5 c 128,-1,57
 368 324 368 324 302 341 c 1,58,-1
 303 341 l 1,59,60
 246 357 246 357 201.5 376 c 128,-1,61
 157 395 157 395 126.5 419.5 c 128,-1,62
 96 444 96 444 80 476 c 128,-1,63
 64 508 64 508 64 551 c 0,64,65
 64 586 64 586 80 618.5 c 128,-1,66
 96 651 96 651 127.5 676 c 128,-1,67
 159 701 159 701 205.5 716 c 128,-1,68
 252 731 252 731 313 731 c 0,69,70
 383 731 383 731 428.5 724 c 128,-1,71
 474 717 474 717 505 706 c 1,72,73
 517 725 517 725 535.5 746.5 c 128,-1,74
 554 768 554 768 579 786 c 128,-1,75
 604 804 604 804 636 816 c 128,-1,76
 668 828 668 828 707 828 c 0,77,78
 744 828 744 828 768 817.5 c 128,-1,79
 792 807 792 807 806 789.5 c 128,-1,80
 820 772 820 772 825.5 749 c 128,-1,81
 831 726 831 726 831 701 c 0,82,83
 831 669 831 669 824.5 636.5 c 128,-1,84
 818 604 818 604 810.5 577.5 c 128,-1,85
 803 551 803 551 796.5 534 c 128,-1,86
 790 517 790 517 790 517 c 1,87,-1
 923 517 l 1,88,-1
 923 475 l 1,89,-1
 790 475 l 1,90,-1
 790 138 l 2,91,92
 790 105 790 105 792 85 c 128,-1,93
 794 65 794 65 800 54.5 c 128,-1,94
 806 44 806 44 817.5 40.5 c 128,-1,95
 829 37 829 37 848 37 c 0,96,97
 869 37 869 37 887.5 42 c 128,-1,98
 906 47 906 47 920 53 c 1,99,-1
 920 1 l 1,100,101
 906 -3 906 -3 879 -7.5 c 128,-1,102
 852 -12 852 -12 823 -12 c 0,103,104
 799 -12 799 -12 781 -7.5 c 128,-1,105
 763 -3 763 -3 750.5 10 c 128,-1,106
 738 23 738 23 731.5 45 c 128,-1,107
 725 67 725 67 725 103 c 2,108,-1
 725 475 l 1,109,-1
 626 475 l 1,110,-1
 626 517 l 1,111,-1
 727 517 l 1,0,1
EndSplineSet
Ligature2: "'liga' Standard Ligatures in Latin lookup 0 subtable" S t
EndChar

StartChar: st
Encoding: 64262 64262 147
Width: 852
Flags: W
LayerCount: 2
Fore
SplineSet
384 455 m 1,0,1
 366 464 366 464 346 469.5 c 128,-1,2
 326 475 326 475 306.5 479 c 128,-1,3
 287 483 287 483 269.5 484.5 c 128,-1,4
 252 486 252 486 239 486 c 0,5,6
 218 486 218 486 199 482.5 c 128,-1,7
 180 479 180 479 165 469.5 c 128,-1,8
 150 460 150 460 141 442 c 128,-1,9
 132 424 132 424 132 395 c 0,10,11
 132 371 132 371 139.5 355.5 c 128,-1,12
 147 340 147 340 162 330 c 128,-1,13
 177 320 177 320 199 313 c 128,-1,14
 221 306 221 306 250 299 c 0,15,16
 359 275 359 275 410.5 239.5 c 128,-1,17
 462 204 462 204 462 143 c 0,18,19
 462 68 462 68 407 26.5 c 128,-1,20
 352 -15 352 -15 261 -15 c 0,21,22
 223 -15 223 -15 190 -9 c 128,-1,23
 157 -3 157 -3 130.5 5.5 c 128,-1,24
 104 14 104 14 84.5 22.5 c 128,-1,25
 65 31 65 31 55 37 c 1,26,27
 55 39 55 39 55 42 c 128,-1,28
 55 45 55 45 56 56 c 128,-1,29
 57 67 57 67 58 89.5 c 128,-1,30
 59 112 59 112 61 152 c 1,31,-1
 83 152 l 1,32,-1
 100 80 l 1,33,34
 136 63 136 63 179 49 c 128,-1,35
 222 35 222 35 260 35 c 0,36,37
 287 35 287 35 311.5 39.5 c 128,-1,38
 336 44 336 44 354 56 c 128,-1,39
 372 68 372 68 383 88.5 c 128,-1,40
 394 109 394 109 394 140 c 0,41,42
 394 163 394 163 378 180.5 c 128,-1,43
 362 198 362 198 335.5 211.5 c 128,-1,44
 309 225 309 225 274.5 234.5 c 128,-1,45
 240 244 240 244 203 252 c 1,46,47
 134 272 134 272 97.5 307.5 c 128,-1,48
 61 343 61 343 61 395 c 0,49,50
 61 411 61 411 67.5 433.5 c 128,-1,51
 74 456 74 456 93 477 c 128,-1,52
 112 498 112 498 146.5 513 c 128,-1,53
 181 528 181 528 238 528 c 0,54,55
 279 528 279 528 317.5 520.5 c 128,-1,56
 356 513 356 513 388 502 c 1,57,58
 394 551 394 551 409 608.5 c 128,-1,59
 424 666 424 666 451 715 c 128,-1,60
 478 764 478 764 517.5 796.5 c 128,-1,61
 557 829 557 829 613 829 c 0,62,63
 650 829 650 829 674.5 818.5 c 128,-1,64
 699 808 699 808 713 790 c 128,-1,65
 727 772 727 772 733 748.5 c 128,-1,66
 739 725 739 725 739 700 c 0,67,68
 739 673 739 673 734 644.5 c 128,-1,69
 729 616 729 616 722 591 c 128,-1,70
 715 566 715 566 708 546 c 128,-1,71
 701 526 701 526 698 517 c 1,72,-1
 832 517 l 1,73,-1
 832 474 l 1,74,-1
 698 474 l 1,75,-1
 698 139 l 2,76,77
 698 106 698 106 700 85.5 c 128,-1,78
 702 65 702 65 708 54.5 c 128,-1,79
 714 44 714 44 725.5 40.5 c 128,-1,80
 737 37 737 37 756 37 c 0,81,82
 777 37 777 37 796 42.5 c 128,-1,83
 815 48 815 48 829 54 c 1,84,-1
 829 1 l 1,85,86
 815 -3 815 -3 787.5 -7.5 c 128,-1,87
 760 -12 760 -12 731 -12 c 0,88,89
 707 -12 707 -12 688.5 -7.5 c 128,-1,90
 670 -3 670 -3 657.5 10 c 128,-1,91
 645 23 645 23 638.5 45.5 c 128,-1,92
 632 68 632 68 632 104 c 2,93,-1
 632 474 l 1,94,-1
 531 474 l 1,95,-1
 531 517 l 1,96,-1
 628 517 l 1,97,98
 655 590 655 590 669.5 640 c 128,-1,99
 684 690 684 690 684 720 c 0,100,101
 684 756 684 756 666 772.5 c 128,-1,102
 648 789 648 789 608 789 c 0,103,104
 577 789 577 789 548 768 c 128,-1,105
 519 747 519 747 495.5 708 c 128,-1,106
 472 669 472 669 454.5 613.5 c 128,-1,107
 437 558 437 558 428 488 c 1,108,109
 427 462 427 462 425.5 434.5 c 128,-1,110
 424 407 424 407 423 381 c 1,111,-1
 402 381 l 1,112,-1
 384 455 l 1,0,1
EndSplineSet
Ligature2: "'liga' Standard Ligatures in Latin lookup 0 subtable" s t
EndChar

StartChar: ch
Encoding: 65548 -1 148
Width: 1146
Flags: W
LayerCount: 2
Fore
SplineSet
326 31 m 0,0,1
 351 31 351 31 376.5 35 c 128,-1,2
 402 39 402 39 425 45.5 c 128,-1,3
 448 52 448 52 467.5 59.5 c 128,-1,4
 487 67 487 67 502 74 c 1,5,-1
 502 16 l 1,6,7
 457 2 457 2 416.5 -6.5 c 128,-1,8
 376 -15 376 -15 326 -15 c 0,9,10
 191 -15 191 -15 123.5 52.5 c 128,-1,11
 56 120 56 120 56 264 c 0,12,13
 56 340 56 340 74.5 391.5 c 128,-1,14
 93 443 93 443 128 474.5 c 128,-1,15
 163 506 163 506 213 519.5 c 128,-1,16
 263 533 263 533 326 533 c 0,17,18
 359 533 359 533 390.5 524.5 c 128,-1,19
 422 516 422 516 445 505 c 1,20,-1
 445 623 l 2,21,22
 445 674 445 674 452 709.5 c 128,-1,23
 459 745 459 745 474 767 c 128,-1,24
 489 789 489 789 512.5 798.5 c 128,-1,25
 536 808 536 808 569 808 c 0,26,27
 635 808 635 808 670.5 772 c 128,-1,28
 706 736 706 736 706 647 c 2,29,-1
 706 411 l 1,30,31
 721 435 721 435 742 457 c 128,-1,32
 763 479 763 479 789 495.5 c 128,-1,33
 815 512 815 512 845 522 c 128,-1,34
 875 532 875 532 907 532 c 0,35,36
 978 532 978 532 1022.5 478 c 128,-1,37
 1067 424 1067 424 1067 312 c 2,38,-1
 1067 40 l 1,39,-1
 1147 22 l 1,40,-1
 1147 0 l 1,41,-1
 921 0 l 1,42,-1
 921 21 l 1,43,-1
 1000 40 l 1,44,-1
 1002 319 l 2,45,46
 1002 396 1002 396 970 439 c 128,-1,47
 938 482 938 482 877 482 c 0,48,49
 843 482 843 482 812 469.5 c 128,-1,50
 781 457 781 457 757.5 436 c 128,-1,51
 734 415 734 415 720 387.5 c 128,-1,52
 706 360 706 360 706 330 c 2,53,-1
 706 40 l 1,54,-1
 788 21 l 1,55,-1
 788 0 l 1,56,-1
 560 0 l 1,57,-1
 560 22 l 1,58,-1
 640 38 l 1,59,-1
 640 623 l 2,60,61
 640 700 640 700 625 735 c 128,-1,62
 610 770 610 770 569 770 c 0,63,64
 530 770 530 770 512.5 735.5 c 128,-1,65
 495 701 495 701 492 623 c 2,66,-1
 481 386 l 1,67,-1
 461 386 l 1,68,-1
 444 458 l 1,69,70
 415 471 415 471 383.5 479 c 128,-1,71
 352 487 352 487 326 487 c 0,72,73
 287 487 287 487 250 479 c 128,-1,74
 213 471 213 471 185 447 c 128,-1,75
 157 423 157 423 140 379.5 c 128,-1,76
 123 336 123 336 123 266 c 0,77,78
 123 193 123 193 139.5 147.5 c 128,-1,79
 156 102 156 102 183.5 76 c 128,-1,80
 211 50 211 50 248 40.5 c 128,-1,81
 285 31 285 31 326 31 c 0,0,1
EndSplineSet
Ligature2: "'liga' Standard Ligatures in Latin lookup 0 subtable" c h
EndChar

StartChar: Ch
Encoding: 65549 -1 149
Width: 1257
Flags: W
LayerCount: 2
Fore
SplineSet
577 659 m 1,0,1
 538 679 538 679 505 684.5 c 128,-1,2
 472 690 472 690 432 690 c 0,3,4
 414 690 414 690 386.5 683 c 128,-1,5
 359 676 359 676 327.5 660.5 c 128,-1,6
 296 645 296 645 264.5 619.5 c 128,-1,7
 233 594 233 594 207 557 c 128,-1,8
 181 520 181 520 164.5 470 c 128,-1,9
 148 420 148 420 147 356 c 1,10,11
 151 280 151 280 171 226 c 128,-1,12
 191 172 191 172 220 136 c 128,-1,13
 249 100 249 100 282.5 79 c 128,-1,14
 316 58 316 58 346.5 47.5 c 128,-1,15
 377 37 377 37 400.5 34 c 128,-1,16
 424 31 424 31 432 31 c 0,17,18
 492 31 492 31 542 55 c 128,-1,19
 592 79 592 79 630 109 c 1,20,-1
 630 40 l 1,21,22
 618 32 618 32 598 22.5 c 128,-1,23
 578 13 578 13 552 4 c 128,-1,24
 526 -5 526 -5 495.5 -12 c 128,-1,25
 465 -19 465 -19 432 -20 c 1,26,27
 340 -20 340 -20 271.5 9.5 c 128,-1,28
 203 39 203 39 157 90 c 128,-1,29
 111 141 111 141 88 209.5 c 128,-1,30
 65 278 65 278 65 355 c 0,31,32
 65 437 65 437 88.5 506.5 c 128,-1,33
 112 576 112 576 158.5 626 c 128,-1,34
 205 676 205 676 273.5 704 c 128,-1,35
 342 732 342 732 432 732 c 0,36,37
 473 732 473 732 512.5 725.5 c 128,-1,38
 552 719 552 719 587 709 c 1,39,40
 601 760 601 760 628.5 781 c 128,-1,41
 656 802 656 802 701 802 c 0,42,43
 767 802 767 802 801.5 766.5 c 128,-1,44
 836 731 836 731 836 643 c 2,45,-1
 837 409 l 1,46,47
 851 433 851 433 872 454 c 128,-1,48
 893 475 893 475 919 491.5 c 128,-1,49
 945 508 945 508 974.5 517.5 c 128,-1,50
 1004 527 1004 527 1035 527 c 0,51,52
 1070 527 1070 527 1099 514 c 128,-1,53
 1128 501 1128 501 1149 474 c 128,-1,54
 1170 447 1170 447 1181.5 406 c 128,-1,55
 1193 365 1193 365 1193 310 c 2,56,-1
 1193 40 l 1,57,-1
 1272 23 l 1,58,-1
 1272 1 l 1,59,-1
 1049 1 l 1,60,-1
 1049 22 l 1,61,-1
 1127 40 l 1,62,-1
 1127 317 l 2,63,64
 1127 393 1127 393 1096 435 c 128,-1,65
 1065 477 1065 477 1005 477 c 0,66,67
 972 477 972 477 941 464.5 c 128,-1,68
 910 452 910 452 887 431 c 128,-1,69
 864 410 864 410 850 383 c 128,-1,70
 836 356 836 356 836 327 c 2,71,-1
 836 40 l 1,72,-1
 917 22 l 1,73,-1
 917 1 l 1,74,-1
 692 1 l 1,75,-1
 692 23 l 1,76,-1
 771 39 l 1,77,-1
 771 619 l 2,78,79
 771 695 771 695 756.5 729.5 c 128,-1,80
 742 764 742 764 701 764 c 0,81,82
 670 764 670 764 646 740 c 128,-1,83
 622 716 622 716 620 665 c 1,84,-1
 613 574 l 1,85,-1
 593 574 l 1,86,-1
 577 659 l 1,0,1
EndSplineSet
Ligature2: "'liga' Standard Ligatures in Latin lookup 0 subtable" C h
EndChar

StartChar: degree
Encoding: 176 176 151
Width: 400
Flags: W
LayerCount: 2
Fore
SplineSet
96 592 m 0,0,1
 96 544 96 544 111 518.5 c 128,-1,2
 126 493 126 493 145 482 c 128,-1,3
 164 471 164 471 182.5 469.5 c 128,-1,4
 201 468 201 468 207 468 c 256,5,6
 213 468 213 468 231.5 470 c 128,-1,7
 250 472 250 472 270.5 484 c 128,-1,8
 291 496 291 496 306.5 521 c 128,-1,9
 322 546 322 546 322 592 c 0,10,11
 322 639 322 639 306.5 664 c 128,-1,12
 291 689 291 689 270.5 700.5 c 128,-1,13
 250 712 250 712 231.5 713.5 c 128,-1,14
 213 715 213 715 207 715 c 0,15,16
 200 715 200 715 182 713 c 128,-1,17
 164 711 164 711 145 699.5 c 128,-1,18
 126 688 126 688 111 663 c 128,-1,19
 96 638 96 638 96 592 c 0,0,1
207 731 m 1,20,21
 281 730 281 730 314 695 c 128,-1,22
 347 660 347 660 347 591 c 0,23,24
 347 561 347 561 339.5 536 c 128,-1,25
 332 511 332 511 315 492 c 128,-1,26
 298 473 298 473 271.5 462.5 c 128,-1,27
 245 452 245 452 207 452 c 256,28,29
 169 452 169 452 142.5 462 c 128,-1,30
 116 472 116 472 99.5 490.5 c 128,-1,31
 83 509 83 509 75.5 534.5 c 128,-1,32
 68 560 68 560 68 591 c 0,33,34
 68 660 68 660 104.5 695 c 128,-1,35
 141 730 141 730 207 731 c 1,20,21
EndSplineSet
EndChar

StartChar: ring
Encoding: 730 730 152
Width: 400
Flags: W
LayerCount: 2
Fore
SplineSet
96 592 m 0,0,1
 96 544 96 544 111 518.5 c 128,-1,2
 126 493 126 493 145 482 c 128,-1,3
 164 471 164 471 182.5 469.5 c 128,-1,4
 201 468 201 468 207 468 c 256,5,6
 213 468 213 468 231.5 470 c 128,-1,7
 250 472 250 472 270.5 484 c 128,-1,8
 291 496 291 496 306.5 521 c 128,-1,9
 322 546 322 546 322 592 c 0,10,11
 322 639 322 639 306.5 664 c 128,-1,12
 291 689 291 689 270.5 700.5 c 128,-1,13
 250 712 250 712 231.5 713.5 c 128,-1,14
 213 715 213 715 207 715 c 0,15,16
 200 715 200 715 182 713 c 128,-1,17
 164 711 164 711 145 699.5 c 128,-1,18
 126 688 126 688 111 663 c 128,-1,19
 96 638 96 638 96 592 c 0,0,1
207 731 m 1,20,21
 281 730 281 730 314 695 c 128,-1,22
 347 660 347 660 347 591 c 0,23,24
 347 561 347 561 339.5 536 c 128,-1,25
 332 511 332 511 315 492 c 128,-1,26
 298 473 298 473 271.5 462.5 c 128,-1,27
 245 452 245 452 207 452 c 256,28,29
 169 452 169 452 142.5 462 c 128,-1,30
 116 472 116 472 99.5 490.5 c 128,-1,31
 83 509 83 509 75.5 534.5 c 128,-1,32
 68 560 68 560 68 591 c 0,33,34
 68 660 68 660 104.5 695 c 128,-1,35
 141 730 141 730 207 731 c 1,20,21
EndSplineSet
EndChar

StartChar: fraction
Encoding: 8260 8260 155
Width: 347
Flags: W
LayerCount: 2
Fore
SplineSet
340 753 m 1,0,-1
 357 753 l 1,1,-1
 6 -19 l 1,2,3
 0 -19 0 -19 -1.5 -19 c 128,-1,4
 -3 -19 -3 -19 -3.5 -19.5 c 128,-1,5
 -4 -20 -4 -20 -5.5 -20 c 128,-1,6
 -7 -20 -7 -20 -11 -20 c 1,7,-1
 340 753 l 1,0,-1
EndSplineSet
EndChar

StartChar: oslash
Encoding: 248 248 156
Width: 585
Flags: W
LayerCount: 2
Fore
SplineSet
452 533 m 1,0,-1
 468 533 l 1,1,-1
 164 -19 l 1,2,3
 158 -19 158 -19 156.5 -19 c 128,-1,4
 155 -19 155 -19 154.5 -19.5 c 128,-1,5
 154 -20 154 -20 153 -20 c 128,-1,6
 152 -20 152 -20 148 -20 c 1,7,-1
 452 533 l 1,0,-1
131 261 m 0,8,9
 131 179 131 179 148 132.5 c 128,-1,10
 165 86 165 86 191 63 c 128,-1,11
 217 40 217 40 248 34.5 c 128,-1,12
 279 29 279 29 307 29 c 0,13,14
 329 29 329 29 356.5 33 c 128,-1,15
 384 37 384 37 409 58.5 c 128,-1,16
 434 80 434 80 451 127 c 128,-1,17
 468 174 468 174 468 261 c 0,18,19
 468 345 468 345 451 391 c 128,-1,20
 434 437 434 437 408.5 458 c 128,-1,21
 383 479 383 479 353 483 c 128,-1,22
 323 487 323 487 298 487 c 0,23,24
 271 487 271 487 242 484 c 128,-1,25
 213 481 213 481 188 460 c 128,-1,26
 163 439 163 439 147 393 c 128,-1,27
 131 347 131 347 131 261 c 0,8,9
298 533 m 0,28,29
 369 533 369 533 416.5 511.5 c 128,-1,30
 464 490 464 490 492.5 453 c 128,-1,31
 521 416 521 416 533 366.5 c 128,-1,32
 545 317 545 317 545 261 c 0,33,34
 545 193 545 193 533.5 141 c 128,-1,35
 522 89 522 89 494.5 54 c 128,-1,36
 467 19 467 19 421 1 c 128,-1,37
 375 -17 375 -17 307 -17 c 0,38,39
 238 -17 238 -17 191 5.5 c 128,-1,40
 144 28 144 28 115 66.5 c 128,-1,41
 86 105 86 105 73 155 c 128,-1,42
 60 205 60 205 60 261 c 0,43,44
 60 326 60 326 72.5 376.5 c 128,-1,45
 85 427 85 427 113 462 c 128,-1,46
 141 497 141 497 186.5 515 c 128,-1,47
 232 533 232 533 298 533 c 0,28,29
EndSplineSet
EndChar

StartChar: gravecmb
Encoding: 768 768 157
Width: 222
Flags: W
LayerCount: 2
Fore
SplineSet
82 751 m 1,0,-1
 132 639 l 1,1,-1
 90 639 l 1,2,-1
 4 751 l 1,3,-1
 82 751 l 1,0,-1
EndSplineSet
EndChar

StartChar: acutecmb
Encoding: 769 769 159
Width: 222
Flags: W
LayerCount: 2
Fore
SplineSet
218 751 m 1,0,1
 194 719 194 719 180 701 c 128,-1,2
 166 683 166 683 157.5 672 c 128,-1,3
 149 661 149 661 143.5 654 c 128,-1,4
 138 647 138 647 131 639 c 1,5,-1
 89 639 l 1,6,7
 103 669 103 669 114 695.5 c 128,-1,8
 125 722 125 722 138 751 c 1,9,-1
 218 751 l 1,0,1
EndSplineSet
EndChar

StartChar: circumflexcmb
Encoding: 770 770 161
Width: 245
Flags: W
LayerCount: 2
Fore
SplineSet
251 625 m 1,0,-1
 208 625 l 1,1,-1
 125 733 l 1,2,-1
 42 625 l 1,3,-1
 -1 625 l 1,4,-1
 102 754 l 1,5,-1
 148 754 l 1,6,-1
 251 625 l 1,0,-1
EndSplineSet
EndChar

StartChar: tildecmb
Encoding: 771 771 163
Width: 222
Flags: W
LayerCount: 2
Fore
SplineSet
-18 705 m 1,0,1
 -14 711 -14 711 -1.5 718 c 128,-1,2
 11 725 11 725 39 725 c 0,3,4
 59 725 59 725 78.5 720.5 c 128,-1,5
 98 716 98 716 117.5 711 c 128,-1,6
 137 706 137 706 157 701.5 c 128,-1,7
 177 697 177 697 198 697 c 0,8,9
 218 697 218 697 233.5 699.5 c 128,-1,10
 249 702 249 702 261 707 c 1,11,-1
 261 669 l 1,12,13
 233 646 233 646 199 646 c 0,14,15
 176 646 176 646 156.5 650 c 128,-1,16
 137 654 137 654 118 659 c 128,-1,17
 99 664 99 664 79 668 c 128,-1,18
 59 672 59 672 37 672 c 0,19,20
 8 672 8 672 -17 662 c 1,21,-1
 -18 705 l 1,0,1
EndSplineSet
EndChar

StartChar: ringcmb
Encoding: 778 778 167
Width: 400
Flags: W
LayerCount: 2
Fore
SplineSet
96 592 m 0,0,1
 96 544 96 544 111 518.5 c 128,-1,2
 126 493 126 493 145 482 c 128,-1,3
 164 471 164 471 182.5 469.5 c 128,-1,4
 201 468 201 468 207 468 c 256,5,6
 213 468 213 468 231.5 470 c 128,-1,7
 250 472 250 472 270.5 484 c 128,-1,8
 291 496 291 496 306.5 521 c 128,-1,9
 322 546 322 546 322 592 c 0,10,11
 322 639 322 639 306.5 664 c 128,-1,12
 291 689 291 689 270.5 700.5 c 128,-1,13
 250 712 250 712 231.5 713.5 c 128,-1,14
 213 715 213 715 207 715 c 0,15,16
 200 715 200 715 182 713 c 128,-1,17
 164 711 164 711 145 699.5 c 128,-1,18
 126 688 126 688 111 663 c 128,-1,19
 96 638 96 638 96 592 c 0,0,1
207 731 m 1,20,21
 281 730 281 730 314 695 c 128,-1,22
 347 660 347 660 347 591 c 0,23,24
 347 561 347 561 339.5 536 c 128,-1,25
 332 511 332 511 315 492 c 128,-1,26
 298 473 298 473 271.5 462.5 c 128,-1,27
 245 452 245 452 207 452 c 256,28,29
 169 452 169 452 142.5 462 c 128,-1,30
 116 472 116 472 99.5 490.5 c 128,-1,31
 83 509 83 509 75.5 534.5 c 128,-1,32
 68 560 68 560 68 591 c 0,33,34
 68 660 68 660 104.5 695 c 128,-1,35
 141 730 141 730 207 731 c 1,20,21
EndSplineSet
EndChar

StartChar: cedillacmb
Encoding: 807 807 169
Width: 245
Flags: W
LayerCount: 2
Fore
SplineSet
109 -91 m 0,0,1
 100 -91 100 -91 90.5 -92 c 128,-1,2
 81 -93 81 -93 72 -95 c 1,3,4
 78 -90 78 -90 90.5 -63.5 c 128,-1,5
 103 -37 103 -37 123 0 c 1,6,-1
 130 0 l 1,7,-1
 89 -78 l 1,8,9
 122 -74 122 -74 144 -80 c 128,-1,10
 166 -86 166 -86 180 -97 c 128,-1,11
 194 -108 194 -108 200 -123 c 128,-1,12
 206 -138 206 -138 206 -151 c 0,13,14
 206 -185 206 -185 184 -202.5 c 128,-1,15
 162 -220 162 -220 125 -224 c 1,16,17
 104 -224 104 -224 90.5 -222.5 c 128,-1,18
 77 -221 77 -221 61 -216 c 1,19,-1
 61 -196 l 1,20,21
 86 -206 86 -206 109 -206 c 0,22,23
 116 -206 116 -206 126.5 -204.5 c 128,-1,24
 137 -203 137 -203 146.5 -197.5 c 128,-1,25
 156 -192 156 -192 163 -181 c 128,-1,26
 170 -170 170 -170 170 -151 c 0,27,28
 170 -91 170 -91 109 -91 c 0,0,1
EndSplineSet
EndChar

StartChar: caroncmb
Encoding: 780 780 184
Width: 241
Flags: W
LayerCount: 2
Fore
SplineSet
148 625 m 1,0,-1
 102 625 l 1,1,-1
 -1 754 l 1,2,-1
 42 754 l 1,3,-1
 125 646 l 1,4,-1
 208 754 l 1,5,-1
 251 754 l 1,6,-1
 148 625 l 1,0,-1
EndSplineSet
EndChar

StartChar: g
Encoding: 103 103 195
Width: 587
Flags: W
LayerCount: 2
Fore
SplineSet
587 517 m 1,0,-1
 587 493 l 1,1,-1
 519 467 l 1,2,-1
 519 -11 l 2,3,4
 519 -19 519 -19 518 -39 c 128,-1,5
 517 -59 517 -59 510.5 -83.5 c 128,-1,6
 504 -108 504 -108 490 -134 c 128,-1,7
 476 -160 476 -160 449.5 -181.5 c 128,-1,8
 423 -203 423 -203 382 -217 c 128,-1,9
 341 -231 341 -231 282 -231 c 0,10,11
 213 -231 213 -231 164.5 -206 c 128,-1,12
 116 -181 116 -181 80 -138 c 1,13,14
 91 -128 91 -128 100 -121.5 c 128,-1,15
 109 -115 109 -115 120 -106 c 1,16,17
 141 -128 141 -128 167 -146 c 0,18,19
 189 -161 189 -161 218 -173.5 c 128,-1,20
 247 -186 247 -186 282 -186 c 0,21,22
 347 -186 347 -186 382 -163.5 c 128,-1,23
 417 -141 417 -141 432.5 -111.5 c 128,-1,24
 448 -82 448 -82 450.5 -53 c 128,-1,25
 453 -24 453 -24 452 -11 c 1,26,-1
 452 64 l 1,27,28
 437 40 437 40 420.5 24 c 128,-1,29
 404 8 404 8 384.5 -1 c 128,-1,30
 365 -10 365 -10 342.5 -13.5 c 128,-1,31
 320 -17 320 -17 293 -17 c 0,32,33
 224 -17 224 -17 177.5 5.5 c 128,-1,34
 131 28 131 28 102.5 66.5 c 128,-1,35
 74 105 74 105 61.5 155 c 128,-1,36
 49 205 49 205 49 261 c 0,37,38
 49 326 49 326 61 377 c 128,-1,39
 73 428 73 428 100.5 462.5 c 128,-1,40
 128 497 128 497 172.5 515 c 128,-1,41
 217 533 217 533 283 533 c 0,42,43
 322 533 322 533 351.5 527 c 128,-1,44
 381 521 381 521 402.5 509 c 128,-1,45
 424 497 424 497 440 480 c 128,-1,46
 456 463 456 463 469 442 c 1,47,-1
 474 517 l 1,48,-1
 587 517 l 1,0,-1
587 493 m 1,49,50
 587 493 587 493 588 494 c 2,51,-1
 587 493 l 1,49,50
118 261 m 0,52,53
 118 179 118 179 135 132.5 c 128,-1,54
 152 86 152 86 178 63 c 128,-1,55
 204 40 204 40 234.5 34.5 c 128,-1,56
 265 29 265 29 293 29 c 0,57,58
 315 29 315 29 343 33 c 128,-1,59
 371 37 371 37 395.5 58.5 c 128,-1,60
 420 80 420 80 437 127 c 128,-1,61
 454 174 454 174 454 261 c 0,62,63
 454 345 454 345 437 391 c 128,-1,64
 420 437 420 437 394 458 c 128,-1,65
 368 479 368 479 338 483 c 128,-1,66
 308 487 308 487 283 487 c 0,67,68
 257 487 257 487 228 484 c 128,-1,69
 199 481 199 481 174.5 460 c 128,-1,70
 150 439 150 439 134 393 c 128,-1,71
 118 347 118 347 118 261 c 0,52,53
EndSplineSet
EndChar

StartChar: backslash
Encoding: 92 92 196
Width: 347
Flags: W
LayerCount: 2
Fore
SplineSet
357 -20 m 1,0,1
 348 -20 348 -20 334.5 -19.5 c 128,-1,2
 321 -19 321 -19 310 -19 c 1,3,-1
 6 753 l 1,4,-1
 53 753 l 1,5,-1
 357 -20 l 1,0,1
EndSplineSet
EndChar

